<?xml version='1.0' encoding='utf-8'?>
<svg xmlns="http://www.w3.org/2000/svg" enable-background="new 0 0 5002 5002" version="1.1" viewBox="0 0 5002 5002"> <path d="m5001 1v5e3h-704.49c-47.852-100.49-102.59-212.5-164.21-336.04-22.217-44.531-44.678-96.24-67.481-155.18-16.26-42.042-27.588-81.934-33.984-119.78-11.865-70.41-17.236-134.91-16.015-193.46 3.711-178.52 5.615-333.16 5.664-463.87 0.049-13.721 0.098-27.539 0.244-41.455 13.721-12.451 23.242-22.9 28.613-31.445 49.17-77.979 89.355-159.23 120.6-243.75 69.287-187.6 103.03-384.62 75.244-585.2-18.604-134.38-69.824-254.05-153.61-359.08-50.684-63.574-101.46-111.52-167.38-173.14-40.674-38.037-76.66-80.518-108.06-127.44-78.467-117.33-105.62-253.03-86.963-392.43 9.033-67.627 36.767-142.68 61.328-208.01 74.658-198.88 67.041-393.46-22.852-583.69-49.462-104.64-123.58-188.28-222.36-251.02-76.465-48.584-172.51-78.076-262.6-89.795-93.75-12.256-187.5-12.109-281.2 0.44-113.72 15.234-221 43.945-321.83 86.084-12.11 5.029-18.36 10.596-18.799 16.651-272.8 0-545.85 0.293-819.04 0.83-32.471 0.098-62.353 6.104-89.551 18.018-55.566 24.414-92.432 65.771-110.55 124.12-17.822 57.178-11.035 134.52-12.5 180.91-0.049 2.295-1.953 4.102-4.248 4.15-12.305 0.049-18.555 4.981-18.799 14.893-1.123 47.07-0.732 94.433 1.172 142.04-10.108 15.381-19.385 27.539-27.783 36.377-63.037 66.699-111.82 150.05-143.21 236.38-14.404 39.6-31.152 86.767-50.244 141.5-48.682 139.36-123.34 260.74-218.51 379.64-52.197 65.185-81.885 102.59-89.16 112.21-50.928 67.041-94.824 132.23-131.69 195.46-59.668 102.49-106.98 213.09-141.99 331.79-21.338 72.559-37.451 150.05-48.34 232.47-42.139 319.63 19.238 655.86 217.87 912.74 77.393 100.1 166.6 182.18 267.72 246.24 112.35 71.191 238.33 125.44 377.93 162.74 115.33 30.859 225.39 49.902 350.44 69.58 37.647 5.908 85.987 14.843 145.07 26.758 4.444 0.879 21.973 5.811 52.686 14.795 22.998 6.689 46.582 10.937 70.752 12.646l16.357 23.047c59.717 84.912 120.85 169.53 183.5 253.96 65.479 88.33 135.64 172.7 210.6 253.17 42.676 45.752 87.646 87.5 134.96 125.15h-2783.3v-5e3h5e3z" fill="#fff"/> <path d="m4020.7 3691.2c-1.172-75.928-0.635-132.91 1.66-170.85 3.418-56.25 6.104-105.08 8.057-146.48 2.588-54.981 3.565-88.428 2.832-100.29-2.051-32.568-8.985-65.137-20.752-97.803-22.363-62.06-59.229-151.46-84.521-229.98-36.181-112.35-67.871-224.85-95.068-337.45-0.44-1.758-1.416-3.809-2.979-6.152l-0.586-9.326c-7.715-40.381-21.875-78.125-42.48-113.23-4.736-8.057-9.082-13.428-12.939-16.016-1.465-4.883-3.027-7.569-4.688-8.008-3.711-7.617-8.301-14.746-13.769-21.436-17.578-21.484-37.94-42.822-54.053-62.988-40.918-51.172-81.201-102.39-120.9-153.66 0.586-3.76-0.928-6.299-4.59-7.568-20.458-71.533-42.431-136.67-66.016-195.46-10.009-25-23.828-52.197-41.358-81.543-2.929-5.225-6.299-8.203-10.058-8.887-9.277-15.381-28.418-20.41-45.605-21.924-31.445-2.783-66.748 3.809-91.406 23.926-3.662 3.027-7.421 5.615-11.23 7.812l-0.684-116.75c0-1.562 1.27-2.832 2.832-2.832 25.83-0.244 23.682-24.121 23.73-44.531 0.098-77.979 0.196-156.74 0.293-236.28 4.346 0.195 8.887 0.049 13.623-0.391 6.055-0.586 10.596-0.879 13.623-0.83 94.58 1.416 179.98 1.514 256.25 0.342 59.424-0.879 104.78-39.648 106.79-100.73 1.709-52.393 1.904-119.82 0.634-202.2-1.123-70.606-50.683-108.11-117.43-107.42-85.352 0.83-190.04 2.05-299.9-1.318 0-46.924 0.195-93.506 0.537-139.75 0.781-107.42-50.635-196.29-157.81-226.07-14.551-4.052-43.945-5.957-88.233-5.81-134.47 0.439-269.04 0.439-403.66 0.049 0.439-6.055 6.69-11.621 18.799-16.651 100.83-42.139 208.1-70.85 321.83-86.084 93.701-12.549 187.45-12.695 281.2-0.44 90.088 11.719 186.13 41.211 262.6 89.795 98.779 62.744 172.9 146.39 222.36 251.02 89.893 190.24 97.51 384.82 22.852 583.69-24.561 65.332-52.295 140.38-61.328 208.01-18.653 139.4 8.496 275.1 86.963 392.43 31.396 46.924 67.383 89.404 108.06 127.44 65.918 61.621 116.7 109.57 167.38 173.14 83.789 105.03 135.01 224.71 153.61 359.08 27.784 200.59-5.957 397.61-75.244 585.2-31.25 84.521-71.436 165.77-120.6 243.75-5.371 8.543-14.893 18.992-28.613 31.443z" fill="#E8F1FA"/> <path d="m2660.9 749.39c134.62 0.39 269.19 0.39 403.66-0.049 44.287-0.147 73.682 1.758 88.233 5.81 107.18 29.785 158.59 118.65 157.81 226.07-0.342 46.24-0.537 92.822-0.537 139.75l-82.764 0.83c-0.146-51.221-0.049-84.277 0.293-99.121 1.318-57.373-18.311-103.76-58.887-139.26-30.273-26.514-68.066-39.746-113.33-39.746-439.31-0.244-822.9-0.097-1150.9 0.342-34.814 0.049-59.863 2.344-75.244 6.835-58.008 16.992-100.64 68.067-112.99 123.98-2.1 9.619-3.174 42.432-3.174 98.486-0.049 419.97 0 818.56 0.098 1195.8 0.049 140.67 0.293 227.3 0.684 259.96 0 0.244-0.342 14.893-1.074 43.945-0.342 14.209 0.244 29.102 1.807 44.678l-1.074 458.64c-25.391-36.719-52.539-69.776-81.445-99.121-1.416-1.465-2.246-3.418-2.246-5.469l-0.439-89.6 0.83-64.941c6.152-7.91 12.353-16.064 18.604-24.512 74.365-100.68 41.699-233.74-16.309-332.08-1.807-2.978-2.734-6.445-2.686-9.961l0.244-74.121 0.146-146.24v-259.47c0-2.686-2.148-4.834-4.785-4.785-9.961 0.049-15.625-3.857-17.041-11.719-0.928-5.078-1.465-19.385-1.612-42.871-0.293-43.994-0.537-88.086-0.683-132.18-0.147-17.285-0.488-34.668-0.928-52.148-0.195-7.813 2.783-13.721 8.984-17.676 2.441-1.611 7.129-2.588 14.014-2.978 1.318-0.098 2.393-1.172 2.344-2.49l-0.391-72.51c0-1.611-1.123-3.027-2.734-3.418-20.654-4.834-21.192-8.74-21.24-30.762-0.391-116.31-0.537-188.18-0.439-215.62 0-9.961 3.955-18.066 13.525-19.775 4.834-0.83 7.324-1.319 7.568-1.416 1.563-0.537 2.588-2.002 2.588-3.613l0.195-112.4c0-1.514-0.977-2.832-2.392-3.321l-19.824-6.738c-1.905-47.607-2.295-94.97-1.172-142.04 0.244-9.912 6.494-14.844 18.799-14.893 2.295-0.049 4.199-1.855 4.248-4.15 1.465-46.387-5.322-123.73 12.5-180.91 18.115-58.35 54.98-99.707 110.55-124.12 27.197-11.914 57.08-17.92 89.551-18.018 273.19-0.537 546.24-0.829 819.04-0.829z" fill="#1F1C32"/> <path d="m3227.3 1121.8c-78.564-0.635-157.08-0.586-235.55 0.244-41.211 0.44-78.418 25.879-93.604 63.965-4.004 10.059-5.957 27.539-5.859 52.49 0.342 75.293 0.537 142.09 0.635 200.39 0.098 47.949 38.135 82.52 82.52 91.651 2.685 0.537 4.297 3.32 3.467 5.957l-33.398 108.25c-0.244 0.732 0.635 1.367 1.27 0.879l149.02-108.98c2.929-2.149 6.445-3.272 10.058-3.223l122.17 0.733-1.172 570.02c-6.689 59.912-8.008 122.17-3.955 186.77 2.099 34.131 4.492 61.182 7.08 81.201-3.515 76.806-4.199 152.25-2.002 226.32 0.781 18.994-0.195 35.4-10.303 49.316-0.635 0.879-2.051 0.635-2.344-0.44-2.344-8.349-6.885-19.238-13.672-32.666-14.209-28.271-30.225-56.103-48.096-83.447-15.527-23.779-30.957-41.699-46.338-53.76-14.697-11.572-36.426-23.584-65.088-36.133-35.107-15.381-79.589-32.47-133.45-51.27-24.512-8.545-42.627-15.185-54.345-19.971-17.53-7.129-35.401-14.404-53.662-21.777-6.494-6.982-13.77-14.6-21.729-22.754-31.006-31.787-67.871-53.857-110.6-66.211-0.635-0.196-1.318-0.146-1.904 0.146-0.928 0.439-0.83 0.635 0.293 0.537-2.246-0.635-3.662-0.83-4.248-0.635 2.734-1.709 4.101-4.199 4.101-7.519 0-28.272-0.976-57.715-2.881-88.281 2.246-4.443 5.713-9.424 10.449-14.892 16.65-19.336 29.98-45.654 37.842-66.699 17.823-47.51 28.125-98.584 30.908-153.22 2.832-54.932 2.686-121.44-0.439-199.56-0.537-13.33-0.684-26.514-0.342-39.551 27.637-63.086 60.84-139.55 42.041-209.86-7.471-27.881-19.726-51.074-36.768-69.58-1.563-1.66-2.588-3.76-2.979-6.006-1.074-6.689-2.1-13.428-3.125-20.215-6.836-47.559-31.103-84.326-72.754-110.35-11.23-6.983-20.117-10.791-26.611-11.328-1.758-0.147-3.516 0.342-4.98 1.367-33.74 23.633-75.733 29.59-113.96 26.709-67.822-5.127-131.06-10.547-192.48 4.346-67.969 16.504-121.83 47.852-140.33 118.99-0.489 1.807-1.612 3.418-3.223 4.444-8.887 5.908-23.291 9.912-32.666 15.918-33.252 21.289-51.904 52.246-55.908 92.92-7.471 76.66 9.717 156.93 36.523 229.83-26.904-0.684-45.654 8.936-56.25 28.809-5.811 10.938-8.692 21.924-8.594 32.959 0.439 41.943 13.233 80.42 38.379 115.48 9.424 13.184 32.52 28.613 49.17 35.889 14.697 6.396 26.611 5.273 45.508 4.052 3.467-0.244 6.543 2.051 7.373 5.42 3.564 14.697 9.228 31.445 17.09 50.293 7.617 18.359 10.401 34.277 10.303 52.539-0.342 59.814-0.683 118.41-0.976 175.73-46.875 10.303-87.061 32.031-120.56 65.283-4.15 4.101-8.301 9.18-12.5 15.234-3.955 5.713-7.715 11.084-11.279 16.113-3.809 1.807-7.52 4.102-11.084 6.885-5.371 4.052-8.984 6.445-10.791 7.177-10.107 4.053-18.359 8.789-30.371 12.842-58.447 19.873-119.97 44.092-184.52 72.705-38.867 17.236-64.306 42.627-87.5 76.904-21.191 31.299-39.111 60.107-53.711 86.475-1.563-15.576-2.149-30.469-1.807-44.678 0.733-29.052 1.074-43.701 1.074-43.945-0.391-32.666-0.635-119.29-0.684-259.96-0.098-377.2-0.146-775.78-0.098-1195.8 0-56.055 1.074-88.867 3.174-98.486 12.353-55.908 54.98-106.98 112.99-123.98 15.381-4.492 40.43-6.787 75.244-6.835 327.98-0.44 711.57-0.586 1150.9-0.342 45.263 0 83.056 13.233 113.33 39.746 40.576 35.498 60.205 81.885 58.887 139.26-0.34 14.844-0.438 47.9-0.291 99.121m-248.97-209.8c-0.051-2.794-2.346-4.991-5.116-4.94l-5.956 0.104c-2.797 0.041-4.994 2.336-4.941 5.116l0.971 55.558c0.051 2.794 2.346 4.991 5.116 4.94l5.956-0.104c2.797-0.041 4.994-2.335 4.941-5.116l-0.971-55.558m36.179 5.263-1.953 46.142c-0.049 1.123 0.293 2.197 0.879 3.076 1.709 2.49 4.199 4.004 7.47 4.492 1.026 0.146 1.954-0.634 1.954-1.66v-1.806c0-1.123-0.879-2.1-2.051-2.246-0.977-0.147-1.953-0.488-2.93-1.074-0.439-0.244-0.244-0.928 0.293-0.928l59.034 0.293c0.537 0 1.074 0.097 1.611 0.244 20.85 6.299 36.914 5.029 48.291-3.76l3.223-33.008c0.146-1.563 1.563-2.685 3.076-2.441 0.635 0.097 1.025 0.146 1.27 0.146 1.611 0.049 2.148-1.465 1.513-4.541-1.513-7.52-5.322-11.28-11.524-11.328-43.31-0.244-70.507-0.586-81.592-1.025-13.573-0.537-23.094 2.637-28.564 9.424m-63.042 7.022c6e-3 -2.335-1.898-4.19-4.229-4.169l-8.203 0.057c-2.309 0.02-4.164 1.924-4.17 4.228l0.305 43.651c-6e-3 2.335 1.898 4.19 4.228 4.169l8.204-0.057c2.308-0.02 4.164-1.924 4.17-4.229l-0.305-43.65m-1085.6 14.371c-0.891-8.112-8.215-13.972-16.351-13.053l-2.912 0.326c-8.141 0.904-13.952 8.228-13.054 16.352l0.458 4.076c0.891 8.113 8.215 13.972 16.351 13.053l2.912-0.326c8.141-0.904 13.951-8.228 13.054-16.352l-0.458-4.076m39.904-10.058c-7.396-5.378-17.895-3.571-23.537 4.133-5.637 7.677-4.221 18.272 3.178 23.686 7.396 5.378 17.895 3.571 23.537-4.133 5.636-7.677 4.22-18.273-3.178-23.686m30.627-2.437c-9.02 0.33-16.003 8.484-15.65 18.262 0.38 9.754 7.948 17.42 16.946 17.066 9.02-0.33 16.003-8.484 15.65-18.262-0.38-9.753-7.948-17.419-16.946-17.066m59.047 18.152c0-9.033-7.324-16.357-16.357-16.357s-16.357 7.324-16.357 16.357 7.324 16.358 16.357 16.358c9.032 0 16.357-7.324 16.357-16.358m927.64-5.06c0.046-2.948-2.346-5.389-5.296-5.445l-5.664-0.079c-2.959-0.06-5.4 2.333-5.446 5.296l-0.397 28.415c-0.046 2.948 2.346 5.389 5.296 5.445l5.664 0.079c2.959 0.06 5.4-2.333 5.445-5.296l0.398-28.415m-27.518 12.44c0.22-3.913-2.807-7.282-6.733-7.504l-1.853-0.1c-3.938-0.215-7.307 2.812-7.504 6.733l-0.755 13.944c-0.22 3.913 2.807 7.282 6.733 7.504l1.853 0.1c3.939 0.215 7.308-2.812 7.505-6.733l0.754-13.944z" fill="#85C0EA"/> <path d="m2979.3 967.56c0.053 2.781-2.144 5.076-4.941 5.116l-5.956 0.104c-2.77 0.051-5.065-2.147-5.116-4.94l-0.971-55.558c-0.053-2.781 2.144-5.076 4.941-5.116l5.956-0.104c2.77-0.051 5.065 2.147 5.116 4.94l0.971 55.558z" fill="#fff"/> <path d="m3127.1 960.03-0.537-34.229c-0.049-4.053-3.32-7.324-7.373-7.373l-104.69-1.172c5.469-6.787 14.99-9.961 28.565-9.424 11.084 0.439 38.281 0.781 81.592 1.025 6.201 0.049 10.01 3.809 11.524 11.328 0.635 3.076 0.098 4.59-1.513 4.541-0.245 0-0.635-0.049-1.27-0.146-1.514-0.244-2.93 0.879-3.076 2.441l-3.224 33.009z" fill="#D0E7F5"/> <path d="m3127.1 960.03c-11.377 8.789-27.441 10.059-48.291 3.76-0.537-0.146-1.074-0.244-1.611-0.244l-59.034-0.293c-0.537 0-0.732 0.684-0.293 0.928 0.977 0.586 1.953 0.927 2.93 1.074 1.172 0.147 2.051 1.123 2.051 2.246v1.806c0 1.026-0.928 1.807-1.954 1.66-3.271-0.488-5.761-2.002-7.47-4.492-0.586-0.879-0.928-1.953-0.879-3.076l1.953-46.142 104.69 1.172c4.052 0.049 7.324 3.32 7.373 7.373l0.537 34.228z" fill="#fff"/> <path d="m2951.7 967.93c-6e-3 2.305-1.862 4.209-4.17 4.229l-8.204 0.057c-2.33 0.021-4.234-1.834-4.228-4.169l-0.305-43.651c6e-3 -2.304 1.861-4.209 4.17-4.228l8.203-0.057c2.33-0.021 4.234 1.835 4.229 4.169l0.305 43.65z" fill="#fff"/> <path d="m1866.3 942.73c0.898 8.124-4.913 15.448-13.054 16.352l-2.912 0.326c-8.137 0.919-15.461-4.941-16.351-13.053l-0.458-4.076c-0.898-8.124 4.913-15.448 13.054-16.352l2.912-0.326c8.137-0.919 15.461 4.941 16.351 13.053l0.458 4.076z" fill="#fff"/> <path d="m1905.8 928.6c7.398 5.413 8.814 16.009 3.178 23.685-5.642 7.704-16.141 9.511-23.537 4.133-7.399-5.413-8.815-16.009-3.178-23.686 5.642-7.704 16.14-9.51 23.537-4.132z" fill="#fff"/> <path d="m1936.4 926.16c8.997-0.354 16.566 7.312 16.946 17.066 0.353 9.777-6.63 17.931-15.65 18.262-8.998 0.353-16.566-7.313-16.946-17.066-0.352-9.778 6.63-17.932 15.65-18.262z" fill="#fff"/> <path d="m1995.4 944.31c0 9.033-7.324 16.358-16.357 16.358s-16.357-7.324-16.357-16.358c0-9.033 7.324-16.357 16.357-16.357 9.032 0 16.357 7.324 16.357 16.357z" fill="#fff"/> <path d="m2922.7 967.67c-0.045 2.963-2.486 5.355-5.445 5.296l-5.664-0.079c-2.95-0.056-5.342-2.498-5.296-5.445l0.397-28.415c0.045-2.963 2.487-5.355 5.446-5.296l5.664 0.079c2.949 0.056 5.342 2.498 5.296 5.445l-0.398 28.415z" fill="#fff"/> <path d="m2894.8 965.63c-0.197 3.921-3.566 6.948-7.505 6.733l-1.853-0.1c-3.926-0.222-6.953-3.591-6.733-7.504l0.755-13.944c0.197-3.92 3.566-6.948 7.504-6.733l1.853 0.1c3.926 0.222 6.953 3.591 6.733 7.504l-0.754 13.944z" fill="#fff"/> <path d="m3227.3 1121.8 82.764-0.83c109.86 3.369 214.55 2.148 299.9 1.318 66.748-0.684 116.31 36.816 117.43 107.42 1.27 82.373 1.075 149.8-0.634 202.2-2.002 61.084-47.363 99.854-106.79 100.73-76.27 1.172-161.67 1.074-256.25-0.342-3.027-0.049-7.568 0.244-13.623 0.83-4.736 0.44-9.277 0.586-13.623 0.391l-108.45 0.635-122.17-0.733c-3.613-0.049-7.129 1.074-10.058 3.223l-149.02 108.98c-0.635 0.488-1.514-0.146-1.27-0.879l33.398-108.25c0.83-2.637-0.781-5.42-3.467-5.957-44.385-9.131-82.422-43.701-82.52-91.651-0.098-58.301-0.293-125.1-0.635-200.39-0.098-24.951 1.855-42.432 5.859-52.49 15.186-38.086 52.393-63.525 93.604-63.965 78.466-0.828 156.98-0.877 235.55-0.242m397.31 121c0-2.539-2.099-4.638-4.638-4.638h-618.56c-2.539 0-4.639 2.1-4.639 4.638v6.543c0 2.539 2.1 4.638 4.639 4.638h618.56c2.539 0 4.638-2.099 4.638-4.638v-6.543m-0.293 79.687c0-2.1-1.66-3.76-3.759-3.76h-620.61c-2.1 0-3.76 1.66-3.76 3.76v8.301c0 2.099 1.66 3.76 3.76 3.76h620.61c2.099 0 3.759-1.66 3.759-3.76v-8.301m-240.44 79.447c8e-3 -1.956-1.604-3.519-3.522-3.509l-380.47 0.664c-1.94 0.01-3.502 1.572-3.51 3.522l0.015 8.594c-8e-3 1.956 1.604 3.519 3.522 3.51l380.47-0.664c1.94-0.01 3.503-1.572 3.51-3.522l-0.015-8.595z" fill="#fff"/> <path d="m1606.1 1779.2c-2.295 1.318-3.858 1.855-4.688 1.611-11.474-3.467-23.291-6.445-35.351-8.936-63.477-14.111-138.23-1.465-177.69 52.539-27.246 37.256-36.475 76.904-27.734 118.9 11.865 56.982 68.457 121.29 115.62 162.79 35.205 31.006 62.402 54.443 81.641 70.263l72.314 53.857-0.146 146.24c-35.596-0.586-68.115 2.93-97.559 10.596-131.25 34.082-185.2 150.59-170.02 278.56 5.127 43.018 15.869 86.231 32.324 129.59 18.897 49.756 56.006 73.584 111.33 71.582 37.354-1.416 71.582-12.939 102.69-34.57 5.908-4.102 10.547-8.691 13.867-13.818 1.221-1.904 2.295-2.881 3.272-2.881 1.221-0.049 2.637 0.489 4.248 1.612l-0.83 64.941c-46.777-7.226-91.992-3.222-135.6 11.963-64.697 22.607-109.33 67.041-133.84 133.4-22.803 61.767-6.25 120.02 23.584 179.39 26.904 53.711 55.908 89.356 94.482 138.96 18.066 23.291 40.381 39.941 66.943 50 5.03 4.59-0.098 7.031-15.381 7.276-46.435-0.244-84.668 16.113-114.6 49.072-21.045 23.096-35.254 48.486-42.676 76.123-18.115 67.627-5.225 127.83 38.574 180.57 29.785 35.889 67.676 66.016 113.72 90.43 33.74 17.92 64.99 23.633 101.22 16.015 1.807-0.342 3.174-0.146 4.053 0.684 0.293 6.006 0.488 20.166 0.586 42.431 0.195 41.406 11.719 80.859 34.521 118.31 36.524 59.912 109.33 93.506 178.08 94.385 31.836 0.391 83.447-0.244 154.78-1.904 91.455 80.371 171.83 172.51 241.06 276.46-24.17-1.709-47.754-5.957-70.752-12.646-30.713-8.984-48.242-13.916-52.686-14.795-59.082-11.915-107.42-20.85-145.07-26.758-125.05-19.678-235.11-38.721-350.44-69.58-139.6-37.305-265.58-91.553-377.93-162.74-101.12-64.063-190.33-146.14-267.72-246.24-198.63-256.88-260.01-593.12-217.87-912.74 10.889-82.422 27.002-159.91 48.34-232.47 35.01-118.7 82.324-229.3 141.99-331.79 36.865-63.232 80.762-128.42 131.69-195.46 7.276-9.619 36.963-47.021 89.16-112.21 95.166-118.9 169.82-240.28 218.51-379.64 19.092-54.736 35.84-101.9 50.244-141.5 31.396-86.328 80.176-169.68 143.21-236.38 8.398-8.838 17.676-20.996 27.783-36.377l19.824 6.738c1.416 0.488 2.392 1.807 2.392 3.321l-0.195 112.4c0 1.611-1.025 3.076-2.588 3.613-0.244 0.097-2.734 0.586-7.568 1.416-9.57 1.709-13.525 9.814-13.525 19.775-0.098 27.441 0.049 99.316 0.439 215.62 0.049 22.021 0.586 25.928 21.24 30.762 1.611 0.391 2.734 1.807 2.734 3.418l0.391 72.51c0.049 1.318-1.026 2.393-2.344 2.49-6.885 0.39-11.572 1.367-14.014 2.978-6.201 3.955-9.18 9.863-8.984 17.676 0.443 17.483 0.785 34.867 0.931 52.152z" fill="#E8F1FA"/> <path d="m3624.6 1249.3c0 2.539-2.099 4.638-4.638 4.638h-618.56c-2.539 0-4.639-2.099-4.639-4.638v-6.543c0-2.539 2.1-4.638 4.639-4.638h618.56c2.539 0 4.638 2.1 4.638 4.638v6.543z" fill="#1F1C32"/> <path d="m2742.1 1689.7c-0.879-5.322-1.367-13.281-1.465-23.877-0.342-41.602-8.35-83.203-23.975-124.85-6.348-16.992-18.115-23.438-35.302-19.336-6.397 1.514-18.408 4.639-35.987 9.375-50.928 13.721-103.12 16.358-156.59 7.91-17.285-2.734-55.273-9.375-113.92-19.873-60.058-10.743-124.8 13.574-125.73 84.326-0.391 31.348 2.929 62.5-11.573 88.184-15.381 27.197-20.898 57.177-16.602 89.844 4.151 31.494 6.299 48.389 6.348 50.684 0.537 13.574-11.23 23.535-22.07 13.379-4.492-4.248-7.129-7.666-7.861-10.254-6.934-24.61-11.475-39.942-13.672-45.948-7.764-21.533-24.023-32.324-48.828-32.373-26.806-72.9-43.994-153.17-36.523-229.83 4.004-40.674 22.656-71.631 55.908-92.92 9.375-6.006 23.779-10.01 32.666-15.918 1.611-1.026 2.734-2.637 3.223-4.444 18.506-71.142 72.363-102.49 140.33-118.99 61.426-14.892 124.66-9.473 192.48-4.346 38.232 2.881 80.225-3.076 113.96-26.709 1.465-1.025 3.222-1.514 4.98-1.367 6.494 0.537 15.381 4.345 26.611 11.328 41.651 26.025 65.918 62.793 72.754 110.35 1.025 6.787 2.051 13.525 3.125 20.215 0.391 2.246 1.416 4.345 2.979 6.006 17.041 18.506 29.297 41.699 36.768 69.58 18.799 70.314-14.404 146.78-42.041 209.86m-31.445-259.57c-3.565 25.147-12.793 46.484-27.735 64.063-0.098 0.146-0.146 0.293-0.098 0.44 0.293 1.074 0.928 1.514 1.855 1.318 0.586-0.146 1.172-0.44 1.563-0.83 16.602-17.09 26.368-40.332 29.737-64.209 3.369-23.926 0.439-48.974-10.791-69.971-0.293-0.537-0.732-0.928-1.269-1.221-0.83-0.488-1.563-0.195-2.149 0.732-0.049 0.147-0.049 0.293 0 0.44 9.473 21.045 12.451 44.092 8.887 69.238m-78.027 30.616c-14.209 22.901-34.619 38.33-61.329 46.289-0.586 0.147-0.927 0.781-0.83 1.367 0.244 1.318 1.123 1.758 2.539 1.367 27.54-7.178 48.73-22.705 63.525-46.582 14.844-23.877 19.336-49.756 13.574-77.637-0.293-1.465-1.074-2.002-2.393-1.66-0.586 0.196-0.928 0.781-0.83 1.367 4.689 27.442-0.047 52.588-14.256 75.489z" fill="#1F1C32"/> <path d="m3624.3 1330.8c0 2.099-1.66 3.76-3.759 3.76h-620.61c-2.1 0-3.76-1.66-3.76-3.76v-8.301c0-2.1 1.66-3.76 3.76-3.76h620.61c2.099 0 3.759 1.66 3.759 3.76v8.301z" fill="#1F1C32"/> <path d="m2716 1430.9c-3.369 23.877-13.135 47.119-29.737 64.209-0.39 0.39-0.977 0.684-1.563 0.83-0.928 0.195-1.563-0.244-1.855-1.318-0.049-0.147 0-0.293 0.098-0.44 14.941-17.578 24.17-38.916 27.735-64.063 3.564-25.146 0.586-48.193-8.887-69.238-0.049-0.147-0.049-0.293 0-0.44 0.586-0.928 1.319-1.221 2.149-0.732 0.537 0.293 0.976 0.683 1.269 1.221 11.231 20.996 14.16 46.045 10.791 69.971z" fill="#BABABB"/> <path d="m2636.5 1463.2c-14.795 23.877-35.986 39.404-63.525 46.582-1.416 0.39-2.295-0.049-2.539-1.367-0.097-0.586 0.244-1.221 0.83-1.367 26.709-7.959 47.119-23.388 61.329-46.289 14.208-22.9 18.945-48.047 14.257-75.488-0.098-0.586 0.244-1.172 0.83-1.367 1.318-0.341 2.1 0.196 2.393 1.66 5.761 27.88 1.269 53.759-13.575 77.636z" fill="#D0E7F5"/> <path d="m3383.9 1410.5c-7e-3 1.95-1.57 3.513-3.51 3.522l-380.47 0.664c-1.918 0.01-3.53-1.553-3.522-3.51l-0.015-8.594c7e-3 -1.95 1.57-3.512 3.51-3.522l380.47-0.664c1.919-0.01 3.53 1.553 3.522 3.509l0.015 8.595z" fill="#1F1C32"/> <path d="m2742.1 1689.7c-0.342 13.037-0.195 26.221 0.342 39.551 3.125 78.125 3.271 144.63 0.439 199.56-2.783 54.639-13.086 105.71-30.908 153.22-7.861 21.045-21.191 47.363-37.842 66.699-4.736 5.469-8.203 10.449-10.449 14.892-34.423 33.252-73.193 51.855-116.31 55.762-80.518 7.275-153.22-14.209-218.12-64.453-1.514-1.172-2.832-1.563-3.857-1.123-1.026 0.39-1.416 1.709-0.732 2.588 75.39 98.193 216.31 164.31 337.79 103.03 0.586-0.195 2.002 0 4.248 0.635-3.321 11.084-2.49 20.703 2.49 28.858-54.296 48.73-110.99 94.726-170.12 137.99-11.474 8.349-23.047 8.691-34.619 0.928-33.252-22.266-64.502-41.26-98.34-64.746-43.75-30.42-82.91-57.031-117.43-79.883-1.27-0.83-2.295-2.051-2.929-3.467-2.051-4.639-4.785-7.959-8.154-9.961l-0.732-11.719c0.293-57.324 0.635-115.92 0.976-175.73 0.098-18.262-2.686-34.18-10.303-52.539-7.861-18.848-13.525-35.596-17.09-50.293-0.83-3.369-3.906-5.664-7.373-5.42-18.896 1.221-30.811 2.344-45.508-4.052-16.651-7.275-39.746-22.705-49.17-35.889-25.146-35.059-37.939-73.535-38.379-115.48-0.098-11.035 2.783-22.021 8.594-32.959 10.596-19.873 29.345-29.492 56.25-28.809 24.805 0.049 41.064 10.84 48.828 32.373 2.198 6.006 6.738 21.338 13.672 45.948 0.732 2.588 3.369 6.006 7.861 10.254 10.84 10.156 22.607 0.195 22.07-13.379-0.049-2.295-2.197-19.189-6.348-50.684-4.297-32.666 1.221-62.647 16.602-89.844 14.502-25.684 11.182-56.836 11.573-88.184 0.927-70.752 65.674-95.068 125.73-84.326 58.643 10.498 96.631 17.138 113.92 19.873 53.467 8.448 105.66 5.811 156.59-7.91 17.578-4.736 29.59-7.861 35.987-9.375 17.188-4.102 28.955 2.344 35.302 19.336 15.625 41.65 23.633 83.252 23.975 124.85 0.097 10.594 0.585 18.553 1.464 23.875m-414.75 32.568c8.447-2.686 15.429-5.127 20.947-7.276 34.961-13.525 68.457-10.742 107.08-7.226 6.738 0.586 12.549-4.736 12.5-11.474l-0.098-9.815c-0.049-6.689-4.883-12.402-11.524-13.476-46.191-7.47-93.555-0.049-127.15 31.055-4.639 4.345-6.836 9.277-6.592 14.843 0.148 2.442 2.541 4.102 4.835 3.369m402.69-8.301c-2.246-11.279-8.935-20.263-20.117-26.953-30.615-18.213-65.234-22.608-103.81-13.135-7.861 1.904-13.428 8.984-13.379 17.139l0.049 3.76c0.049 8.105 7.373 14.209 15.381 12.744 41.992-7.812 76.416-8.154 116.65 10.547 2.734 1.318 5.81-1.123 5.224-4.102m-185.5 23.242c3.272 50.44 16.455 100.05 39.453 148.73 8.35 17.627 3.515 29.834-14.551 36.621-16.65 6.25-34.277 5.859-52.979-1.172-1.123-0.391-2.295 0.293-2.49 1.465l-0.195 1.563c-0.391 2.49 1.074 4.932 3.418 5.811 21.533 8.106 41.651 7.861 60.449-0.732 20.117-9.229 25.928-23.535 17.432-43.017-16.26-37.256-28.125-72.021-35.596-104.4-1.22-5.322-3.027-20.117-5.371-44.385-0.244-2.099-1.855-3.808-3.955-4.102l-1.464-0.195c-2.296-0.343-4.298 1.513-4.151 3.807m105.55 14.659c-11.168 0.283-19.908 13.272-19.51 29.036 0.433 15.73 9.808 28.279 21.003 27.975 11.168-0.283 19.908-13.271 19.51-29.036-0.432-15.729-9.807-28.278-21.003-27.975m-241.75 0.676c-11.265 0.144-20.201 13.229-19.955 29.236 0.242 15.976 9.52 28.817 20.764 28.668 11.266-0.143 20.201-13.229 19.955-29.236-0.242-15.975-9.519-28.817-20.764-28.668m-310.24 56.492c-0.537 1.807 1.172 3.467 2.93 2.881 15.576-4.932 29.004-1.563 40.381 10.01 10.547 10.742 19.531 22.559 26.953 35.4 0.928 1.563 0.342 3.613-1.27 4.492-17.236 9.326-25.098 24.756-23.682 46.289 0.195 2.783 2.539 4.98 5.322 4.931h0.586c2.636 0 4.59-2.344 4.199-4.883-2.295-14.795 2.344-26.611 13.818-35.4 2.636-2.051 6.494-0.976 7.715 2.148l14.551 36.719c0.781 1.904 2.588 3.125 4.638 3.125h1.953c2.441 0 4.15-2.441 3.369-4.737-12.256-37.451-27.881-73.144-58.105-98.877-9.373-7.958-38.084-20.702-43.358-2.098m346 198.68-3.564-0.439c-1.807-0.244-3.028 1.807-1.953 3.271 27.929 38.135 72.754 57.91 120.02 44.629 18.115-5.127 33.301-16.065 45.606-32.813 1.611-2.197 0.048-5.273-2.637-5.273l-75.098-0.391 79.444-2.491c6.006-0.195 11.426-3.76 13.965-9.228l0.684-1.416c1.855-4.004-1.123-8.594-5.518-8.447-57.47 1.807-114.55 0.879-171.24-2.832-6.055-0.391-11.23 0.781-15.527 3.467-1.514 0.928-1.611 3.125-0.195 4.199 4.442 3.37 9.813 5.958 16.014 7.764m84.082 80.079c-8.838 0.391-18.555-0.781-29.15-3.516-3.027-0.781-5.664 2.198-4.541 5.127 0.83 2.197 2.197 3.662 4.102 4.395 7.813 2.881 17.822 4.053 30.029 3.467 12.208-0.586 22.071-2.686 29.59-6.299 1.807-0.879 3.028-2.441 3.662-4.736 0.83-2.979-2.051-5.713-5.029-4.639-10.303 3.71-19.874 5.761-28.663 6.201z" fill="#FDA996"/> <path d="m3336.4 1533.5c-0.097 79.541-0.195 158.3-0.293 236.28-0.049 20.41 2.099 44.287-23.73 44.531-1.563 0-2.832 1.27-2.832 2.832l0.684 116.75c-31.494 26.807-52.832 59.375-64.111 97.705-3.028 10.303-9.473 34.473-19.336 72.559l1.172-570.02 108.45-0.634z" fill="#1F1C32"/> <path d="m2327.4 1722.2c-2.295 0.732-4.688-0.928-4.834-3.369-0.244-5.566 1.953-10.498 6.592-14.843 33.594-31.104 80.957-38.525 127.15-31.055 6.641 1.074 11.475 6.787 11.524 13.476l0.098 9.815c0.049 6.738-5.762 12.06-12.5 11.474-38.623-3.516-72.119-6.299-107.08 7.226-5.518 2.149-12.5 4.59-20.948 7.276z" fill="#1F1C32"/> <path d="m2730.1 1713.9c0.586 2.979-2.49 5.42-5.225 4.102-40.235-18.701-74.658-18.359-116.65-10.547-8.008 1.465-15.332-4.639-15.381-12.744l-0.049-3.76c-0.049-8.154 5.518-15.234 13.379-17.139 38.574-9.473 73.193-5.078 103.81 13.135 11.183 6.69 17.872 15.674 20.118 26.953z" fill="#1F1C32"/> <path d="m2544.6 1737.2c-0.146-2.295 1.856-4.15 4.151-3.808l1.464 0.195c2.1 0.293 3.711 2.002 3.955 4.102 2.344 24.268 4.151 39.063 5.371 44.385 7.471 32.373 19.336 67.139 35.596 104.4 8.496 19.482 2.686 33.789-17.432 43.017-18.799 8.594-38.916 8.838-60.449 0.732-2.343-0.879-3.809-3.32-3.418-5.811l0.195-1.563c0.196-1.172 1.367-1.856 2.49-1.465 18.701 7.031 36.328 7.422 52.979 1.172 18.066-6.787 22.901-18.994 14.551-36.621-22.998-48.681-36.181-98.29-39.453-148.73z" fill="#1F1C32"/> <path d="m2650.1 1751.8c11.196-0.302 20.571 12.246 21.003 27.976 0.398 15.765-8.343 28.753-19.51 29.036-11.196 0.303-20.571-12.246-21.003-27.975-0.398-15.766 8.342-28.754 19.51-29.037z" fill="#1F1C32"/> <path d="m2408.4 1752.5c11.244-0.15 20.522 12.692 20.764 28.668 0.246 16.007-8.689 29.093-19.955 29.236-11.244 0.15-20.522-12.692-20.764-28.668-0.246-16.006 8.69-29.092 19.955-29.236z" fill="#1F1C32"/> <path d="m1566 1771.9c1.318 11.767 2.49 23.486 3.613 35.156 3.857 40.576 1.66 80.518 0.683 126.32-0.244 11.279 0.244 41.016 1.465 89.111 0.537 20.068-1.27 56.396-5.42 108.98-0.733 9.619-3.565 24.609-8.496 44.922-19.238-15.82-46.436-39.258-81.641-70.263-47.168-41.504-103.76-105.81-115.62-162.79-8.74-41.992 0.488-81.641 27.734-118.9 39.455-54.003 114.21-66.65 177.69-52.539z" fill="#FDA996"/> <path d="m1566 1771.9c12.061 2.49 23.877 5.469 35.351 8.936 0.83 0.244 2.393-0.293 4.688-1.611 0.146 44.092 0.391 88.184 0.683 132.18 0.147 23.486 0.684 37.793 1.612 42.871 1.416 7.862 7.08 11.768 17.041 11.719 2.637-0.049 4.785 2.099 4.785 4.785v259.47l-72.314-53.857c4.931-20.312 7.764-35.302 8.496-44.922 4.15-52.588 5.957-88.916 5.42-108.98-1.221-48.096-1.709-77.832-1.465-89.111 0.977-45.801 3.174-85.742-0.683-126.32-1.124-11.672-2.295-23.391-3.614-35.159z" fill="#EA6D5E"/> <path d="m2098.1 1809c5.273-18.604 33.984-5.859 43.36 2.099 30.225 25.733 45.849 61.426 58.105 98.877 0.781 2.295-0.928 4.737-3.369 4.737h-1.953c-2.051 0-3.857-1.221-4.638-3.125l-14.551-36.719c-1.22-3.125-5.078-4.199-7.715-2.148-11.475 8.789-16.114 20.605-13.818 35.4 0.391 2.539-1.563 4.883-4.199 4.883h-0.586c-2.783 0.049-5.127-2.148-5.322-4.931-1.416-21.533 6.446-36.963 23.682-46.289 1.611-0.879 2.197-2.93 1.27-4.492-7.422-12.842-16.406-24.658-26.953-35.4-11.377-11.572-24.804-14.941-40.381-10.01-1.76 0.585-3.469-1.076-2.932-2.882z" fill="#1F1C32"/> <path d="m3458.5 1924.1c-16.015 6.348-54.688 29.346-51.611 49.854 1.611 10.889 5.957 25.293 12.988 43.311 22.949 58.838 43.457 106.49 61.475 142.92 8.74 17.724 17.334 33.154 25.732 46.24 8.643 13.525 21.582 19.238 38.721 17.236 15.869-1.807 27.441-3.858 34.717-6.104 39.697 51.27 79.98 102.49 120.9 153.66 16.113 20.166 36.475 41.504 54.053 62.988 5.469 6.689 10.058 13.818 13.769 21.436-29.834 0.293-56.836 8.35-81.103 24.121-3.321 2.198-1.758 7.373 2.198 7.324h2.636c0.44 0 0.928-0.146 1.318-0.39 22.705-15.479 49.219-23.145 79.639-23.047 3.857 2.588 8.203 7.959 12.939 16.016 20.606 35.107 34.765 72.851 42.48 113.23-26.709 4.736-52.588 4.004-77.637-2.246-2.588-0.635-5.225 0.879-6.006 3.467l-0.097 0.244c-0.733 2.49 0.781 5.078 3.32 5.664 27.587 6.397 54.589 7.129 81.005 2.198 1.563 2.344 2.539 4.394 2.979 6.152 27.197 112.6 58.887 225.1 95.068 337.45 25.293 78.515 62.158 167.92 84.521 229.98 11.767 32.666 18.701 65.235 20.752 97.803 0.733 11.865-0.244 45.313-2.832 100.29-1.953 41.406-4.638 90.234-8.057 146.48-2.295 37.939-2.832 94.922-1.66 170.85-0.146 13.916-0.195 27.734-0.244 41.455-0.049 130.71-1.953 285.35-5.664 463.87-1.221 58.545 4.15 123.05 16.015 193.46 6.396 37.842 17.725 77.734 33.984 119.78 22.803 58.936 45.264 110.64 67.481 155.18 61.621 123.54 116.36 235.55 164.21 336.04h-1180.9l-16.504-2.442c1.562-2.001 4.102-4.345 7.666-6.982 60.4-45.068 111.91-80.616 154.59-106.64 110.99-67.627 228.12-118.56 351.42-152.78 50.733-14.063 95.606-23.828 134.67-29.297 2.539-0.342 4.346-2.686 4.052-5.225v-0.391c-0.244-2.441-2.587-4.199-5.029-3.759-200.1 35.059-384.18 109.86-552.2 224.46-37.353 25.439-74.658 53.125-111.91 83.057h-298.1c-47.314-37.646-92.285-79.395-134.96-125.15-74.951-80.469-145.12-164.84-210.6-253.17-62.646-84.424-123.78-169.04-183.5-253.96 5.517-8.35 11.767-15.234 18.799-20.703 17.139-13.379 37.11-27.637 57.666-37.988 71.924-36.279 129.05-61.523 171.44-75.781 102.49-34.424 226.61-68.945 372.32-103.47 46.485-11.035 93.457-25.439 126.71-34.521 21.192-5.762 38.037-7.373 57.373-11.279 0.44-0.049 0.83-0.195 1.172-0.391l34.473-15.576c1.318 6.689 1.22 13.037-0.196 18.945-2.1 8.74-10.449 13.525-15.43 20.556-52.832 74.316-88.232 156.01-106.2 245.02-0.439 2.148 0.977 4.199 3.125 4.59l0.342 0.048c2.197 0.391 4.297-1.025 4.785-3.223 18.505-83.837 55.176-171.44 108.64-243.7 1.074-1.465 3.369-0.586 3.223 1.221-6.348 82.52 0.537 164.16 20.605 244.87 0.781 3.174 3.418 5.518 6.64 5.908l0.439 0.049c2.539 0.342 4.59-2.051 3.906-4.541-14.502-51.904-22.266-104.78-23.242-158.54-1.465-81.738 6.738-163.92 24.61-246.48 25.928-125.88 59.473-250.83 100.68-374.85 0.83-2.393 1.074-6.543 0.781-12.451 0.83 4.052 1.465 5.42 1.954 4.004 10.498-31.396 20.849-63.427 31.005-96.094 14.111-45.508 25.196-77.295 33.252-95.362 25.977-58.35 53.223-109.86 87.695-150.05 5.811-6.787 16.406-11.865 18.359-24.414 5.078-32.569 9.277-59.668 12.646-81.25 0.342-2.295 2.783-3.613 4.883-2.637 26.025 11.67 53.272 18.066 81.836 19.14 2.637 0.098 4.834-1.953 4.981-4.59v-0.098c0.146-2.637-1.905-4.932-4.541-5.029-28.076-1.026-55.665-7.715-82.813-20.117-1.416-0.684-2.637-1.758-3.516-3.076-2.588-4.053-4.492-9.473-5.664-16.26-16.357-93.311-28.711-184.62-37.109-273.93-0.537-5.469-3.418-8.057-8.642-7.715 1.806-16.016 1.367-32.129-1.27-48.291-0.976-5.957-0.586-21.973 1.172-47.998 0.146-1.807-0.537-3.516-1.855-4.737-18.164-16.553-32.178-36.377-42.09-59.472-0.83-1.953-2.002-3.369-3.467-4.248-2.002-1.221-3.662-0.977-4.98 0.635l-1.27-12.305c-0.146-1.514-0.537-3.027-1.172-4.394-36.67-80.42-62.451-165.77-77.344-256.01-2.588-20.02-4.98-47.071-7.08-81.201-4.053-64.6-2.734-126.86 3.955-186.77 9.863-38.086 16.309-62.256 19.336-72.559 11.279-38.33 32.617-70.899 64.111-97.705 3.809-2.197 7.568-4.785 11.23-7.812 24.659-20.117 59.961-26.709 91.406-23.926 17.191 1.515 36.331 6.545 45.609 21.926m13.252 727.66c-0.313-0.659-1.094-0.952-1.761-0.613l-106.65 51.556c-0.644 0.302-0.936 1.083-0.613 1.761l2.635 5.451c0.313 0.658 1.094 0.951 1.76 0.613l106.65-51.556c0.644-0.303 0.937-1.084 0.613-1.761l-2.634-5.451m39.141 696.66c38.818 20.801 76.708 45.362 113.72 73.633 76.025 58.057 134.62 100.88 216.94 142.82 2.246 1.172 4.98 0.196 6.006-2.099l0.244-0.489c1.025-2.392 0-5.126-2.344-6.25-46.143-22.021-87.744-46.631-124.71-73.926-67.871-50.097-129.15-99.17-204.88-141.31-2.246-1.221-5.029-0.537-6.396 1.611l-0.098 0.146c-1.27 2.052-0.586 4.737 1.514 5.86m-57.374 967.97c-1.123 2.1-0.537 4.688 1.416 6.104 85.4 60.938 181.15 91.26 287.3 91.016 1.757 0 3.173-1.416 3.173-3.174v-2.197c-0.049-1.904-1.562-3.467-3.466-3.467-105.22 0.439-199.66-29.785-283.3-90.674-1.513-1.074-3.613-0.586-4.444 1.074l-0.683 1.318m295.41 202.44c-150.44 32.422-297.66 17.041-426.17-68.701-2.149-1.416-4.98-0.635-6.104 1.611l-0.195 0.342c-1.221 2.441-0.439 5.42 1.855 6.885 80.908 52.686 171.09 80.957 270.56 84.717 49.316 1.904 103.08-3.564 161.33-16.309 2.295-0.488 3.808-2.686 3.418-5.03l-0.049-0.341c-0.39-2.197-2.49-3.662-4.638-3.174m-346.48 375.88c-42.969 20.557-88.33 45.85-136.08 75.831-2.588 1.563-3.174 3.613-1.758 6.202 1.123 2.099 3.76 2.782 5.713 1.513 41.748-27.002 87.06-52.197 135.94-75.586 48.828-23.438 96.875-42.969 144.09-58.643 2.246-0.683 3.32-3.223 2.392-5.371-1.123-2.686-3.125-3.564-5.957-2.54-53.27 18.457-101.42 37.989-144.34 58.594z" fill="#FDA996"/> <path d="m3468.6 1933c-20.312 3.809-36.865 14.746-49.609 32.813-2.734 3.857-3.467 8.838-1.855 13.281 15.625 44.189 32.031 86.817 49.268 127.83 10.693 25.391 40.478 95.752 61.035 105.13 13.672 6.201 34.18 0.635 48.535-2.051 3.662 1.27 5.176 3.809 4.59 7.568-7.276 2.246-18.848 4.297-34.717 6.104-17.139 2.002-30.078-3.711-38.721-17.236-8.398-13.086-16.992-28.516-25.732-46.24-18.017-36.426-38.526-84.082-61.475-142.92-7.031-18.018-11.377-32.422-12.988-43.311-3.076-20.508 35.596-43.506 51.611-49.854 3.759 0.684 7.128 3.663 10.058 8.887z" fill="#1F1C32"/> <path d="m3468.6 1933c17.53 29.346 31.348 56.543 41.358 81.543 23.584 58.789 45.557 123.93 66.016 195.46-14.355 2.686-34.863 8.252-48.535 2.051-20.557-9.375-50.342-79.736-61.035-105.13-17.237-41.016-33.643-83.643-49.268-127.83-1.611-4.443-0.879-9.424 1.855-13.281 12.744-18.066 29.297-29.004 49.609-32.813z" fill="#FDA996"/> <path d="m2526.5 2016.7c-28.173-0.244-55.664-3.223-82.373-8.984-6.201-1.807-11.572-4.394-16.015-7.764-1.416-1.074-1.319-3.272 0.195-4.199 4.297-2.685 9.473-3.857 15.527-3.467 56.689 3.711 113.77 4.639 171.24 2.832 4.395-0.147 7.373 4.443 5.518 8.447l-0.684 1.416c-2.539 5.469-7.959 9.033-13.965 9.228l-79.443 2.491z" fill="#fff"/> <path d="m2444.1 2007.7c26.709 5.762 54.199 8.74 82.373 8.984l75.098 0.391c2.686 0 4.248 3.076 2.637 5.273-12.305 16.748-27.491 27.686-45.606 32.813-47.266 13.281-92.09-6.494-120.02-44.629-1.074-1.464 0.146-3.516 1.953-3.271l3.564 0.439z" fill="#EA6D5E"/> <path d="m2528.6 2097.2c-12.207 0.586-22.216-0.586-30.029-3.467-1.905-0.732-3.271-2.198-4.102-4.395-1.123-2.93 1.513-5.908 4.541-5.127 10.596 2.734 20.313 3.906 29.15 3.516 8.789-0.44 18.359-2.49 28.662-6.201 2.978-1.074 5.859 1.66 5.029 4.639-0.634 2.295-1.855 3.857-3.662 4.736-7.518 3.614-17.381 5.713-29.589 6.299z" fill="#1F1C32"/> <path d="m2663.7 2163.6c1.905 30.566 2.881 60.01 2.881 88.281 0 3.32-1.367 5.811-4.101 7.519-121.48 61.28-262.4-4.834-337.79-103.03-0.684-0.879-0.293-2.198 0.732-2.588 1.025-0.44 2.344-0.049 3.857 1.123 64.893 50.244 137.6 71.729 218.12 64.453 43.116-3.905 81.886-22.509 116.31-55.761z" fill="#1F1C32"/> <path d="m2236.9 2258 0.732 11.719c-1.026 5.713-3.418 10.107-7.227 13.183-11.914 9.619-24.072 17.481-36.523 23.584-97.07 48.926-111.23 144.97-98.633 243.16 0.196 1.367 1.367 2.393 2.734 2.441 112.74 2.881 158.06 120.46 164.26 215.09 0.146 1.807-0.146 3.223-0.879 4.199-0.879 1.172-2.051 2.1-3.516 2.734l-23.877 1.807c-4.59-6.104-6.885-15.186-6.836-27.344 0-1.855-2.49-2.441-3.272-0.781l-38.33 82.47c-0.781 1.709-0.586 3.711 0.488 5.274l48.584 68.115c4.688 6.592 4.492 11.084-0.586 13.477l-57.178-79.98c-1.465-2.1-1.709-4.834-0.635-7.129 5.322-11.182 19.238-40.332 41.65-87.5 5.03-10.546 5.371-17.431 2.783-28.027-1.172-4.785-4.785-8.594-9.521-10.058l-133.45-41.211c-2.246-0.684-3.76-2.734-3.76-5.078l-0.391-67.871c0-1.416-1.367-2.49-2.783-2.1-59.717 15.43-87.744 71.094-90.918 130.03-1.318 25.049-2.1 50.293-2.246 75.83l-24.902 2.246c-3.564-0.146-5.566-1.758-5.957-4.737-9.766-78.125 5.762-190.87 90.185-227.34 7.813-3.369 15.479-6.348 23.047-8.936 1.611-0.537 2.636-2.099 2.49-3.808-5.029-52.198-2.783-103.66 6.836-154.3 0.293-1.416 1.123-2.637 2.344-3.369 9.472-5.762 16.748-28.223 20.947-39.16 3.564-5.029 7.324-10.4 11.279-16.113 4.199-6.055 8.35-11.133 12.5-15.234 33.499-33.252 73.685-54.981 120.56-65.284m-23.193 434.33c-19.482-62.696-56.104-106.64-127.15-107.72-2.441-0.049-4.444 1.953-4.444 4.395l0.391 63.574c0 1.465 0.977 2.783 2.393 3.223l126.27 39.014c1.561 0.488 3.026-0.977 2.538-2.491z" fill="#1F1C32"/> <path d="m2800.7 2348.3c24.61 33.301 45.117 65.527 58.741 104.44 21.24 60.596 31.494 121.88 30.81 183.84-0.488 43.311-3.906 84.18-10.254 122.7-0.489 3.027 1.367 5.957 4.345 6.689 39.795 10.059 63.037 53.711 59.424 92.139-5.469 57.959-68.798 97.803-121.88 75.976-32.568-13.379-51.807-37.695-57.666-72.9-0.098-0.586-0.88-0.732-1.172-0.195l-206.69 351.17c-0.928 1.563-2.93 2.1-4.492 1.172l-1.514-0.928c-1.611-0.927-2.148-2.978-1.221-4.59l212.26-360.64c1.806-3.125 1.953-6.934 0.293-10.107l-62.891-122.51c-1.27-2.393-0.147-5.371 2.393-6.396l142.68-56.494c1.611-0.635 2.588-2.344 2.344-4.053-4.541-31.592-11.035-82.568-19.433-152.93-1.953-16.26-6.006-33.496-9.522-53.223-0.635-3.467-1.66-6.836-3.174-10.01-23.633-51.025-60.742-91.26-111.28-120.7l-33.545-21.875c-4.98-8.154-5.811-17.773-2.49-28.858-1.123 0.098-1.221-0.097-0.293-0.537 0.586-0.293 1.269-0.342 1.904-0.146 42.725 12.354 79.59 34.424 110.6 66.211 7.959 8.156 15.234 15.773 21.728 22.755m34.375 131.74c-0.732 6.689-0.634 13.281 0.244 19.776 12.061 89.355 18.653 139.84 19.775 151.42 0.293 2.978-1.416 5.762-4.199 6.885l-138.48 54.834c-2.051 0.83-2.93 3.174-1.953 5.127l55.273 107.62c0.44 0.879 1.709 0.781 2.002-0.146 12.207-37.451 37.549-59.131 76.074-65.039 2.051-0.293 3.662-1.855 4.004-3.906 15.234-91.601 13.867-186.28-11.767-276.61-0.147-0.538-0.928-0.489-0.977 0.047m100.44 369.04c0-44.775-36.328-81.104-81.104-81.104s-81.104 36.328-81.104 81.104 36.328 81.104 81.104 81.104 81.104-36.328 81.104-81.104z" fill="#1F1C32"/> <path d="m2669.2 2288.9 33.545 21.875c10.4 13.721 14.599 25.195 12.549 34.326-9.18 41.064-24.902 109.42-47.217 205.13-1.758-0.928-2.734-1.221-2.929-0.977-12.646 17.432-26.318 37.256-40.918 59.473-0.781 1.22-2.539 1.27-3.418 0.146l-132.23-165.82c-2.197-2.783-6.397-2.735-8.594 0.049l-130.57 167.43c-1.66 2.051-4.736 2.1-6.445 0.098-22.51-26.905-46.777-54.737-72.705-83.398-2.344-2.588-4.688-3.906-6.982-3.955l-69.434-216.75c12.451-6.104 24.609-13.965 36.523-23.584 3.809-3.076 6.201-7.471 7.227-13.183 3.369 2.002 6.104 5.322 8.154 9.961 0.635 1.416 1.66 2.636 2.929 3.467 34.521 22.852 73.682 49.463 117.43 79.883 33.838 23.486 65.088 42.48 98.34 64.746 11.573 7.764 23.145 7.422 34.619-0.928 59.131-43.263 115.82-89.259 170.12-137.99z" fill="#84CBC0"/> <path d="m2193.9 2306.5 69.434 216.75c0.39 4.395 1.514 7.52 3.369 9.375 5.566 32.177 18.652 59.814 27.441 88.818 6.982 23.096 11.719 38.086 14.111 44.873 17.285 48.877 35.596 106.25 54.883 172.12 6.348 21.533 15.918 46.387 23.975 74.219 0.488 1.708 1.123 3.32 1.953 4.932l5.225 10.107c0.635 1.221 0.927 2.588 0.977 3.955 0.049 9.521 2.979 18.554 8.838 27.197l91.992 295.22c0.488 1.66 2.881 1.611 3.32-0.049 25.537-94.14 49.024-190.18 70.459-288.18 1.806-8.252 5.175-19.434 10.205-33.594l84.277-371.39 3.76-10.644c22.315-95.703 38.037-164.06 47.217-205.13 2.051-9.131-2.148-20.605-12.549-34.326 50.537 29.443 87.647 69.678 111.28 120.7 1.513 3.174 2.539 6.543 3.174 10.01 3.516 19.727 7.569 36.963 9.522 53.223 8.398 70.362 14.892 121.34 19.433 152.93 0.244 1.709-0.733 3.418-2.344 4.053l-142.68 56.494c-2.539 1.025-3.662 4.004-2.393 6.396l62.891 122.51c1.66 3.174 1.513 6.982-0.293 10.107l-212.26 360.64c-0.927 1.612-0.39 3.662 1.221 4.59l1.514 0.928c1.562 0.928 3.564 0.39 4.492-1.172l206.69-351.17c0.292-0.537 1.074-0.391 1.172 0.195 5.859 35.205 25.097 59.521 57.666 72.9 53.077 21.826 116.41-18.018 121.88-75.976 3.613-38.428-19.629-82.08-59.424-92.139-2.979-0.732-4.834-3.662-4.345-6.689 6.347-38.525 9.765-79.395 10.254-122.7 0.684-61.963-9.57-123.24-30.81-183.84-13.624-38.916-34.131-71.142-58.741-104.44 18.262 7.373 36.133 14.648 53.662 21.777 11.719 4.785 29.833 11.426 54.345 19.971 53.858 18.799 98.34 35.889 133.45 51.27 28.662 12.549 50.391 24.561 65.088 36.133 15.381 12.06 30.811 29.98 46.338 53.76 17.871 27.344 33.887 55.176 48.096 83.447 6.787 13.428 11.328 24.317 13.672 32.666 0.293 1.075 1.709 1.319 2.344 0.44 10.108-13.916 11.084-30.322 10.303-49.316l-0.586 576.17c-30.713 8.74-64.258 20.459-100.59 35.254-2.783 1.123-4.687 2.588-5.761 4.395-0.635 1.025-1.807 1.563-2.978 1.465l-3.76-0.391c0.342-13.525 0.488-27.051 0.439-40.527-0.83-168.41-7.959-334.38-21.338-498-4.736-58.252-13.671-127.39-26.709-207.47-0.391-2.148-2.49-3.467-4.59-2.929l-0.146 0.049c-2.149 0.537-3.516 2.636-3.174 4.834 9.717 57.666 16.553 107.18 20.508 148.58 18.311 191.31 27.686 390.38 28.125 597.17-21.631 5.127-43.212 10.84-64.746 17.09-31.689 9.18-53.125 15.137-64.404 17.92-161.28 39.306-330.66 58.008-508.06 56.055-211.48-2.393-412.11-33.105-601.95-92.188 4.15-179.54 0.879-358.45-9.912-536.72-3.955-65.234-11.084-128.66-21.484-190.28-0.342-1.953-2.1-3.272-4.053-3.076h-0.147c-1.904 0.196-3.223 1.953-2.978 3.858 17.139 116.06 24.17 234.33 27.832 351.86 3.857 124.27 4.834 249.02 2.979 374.36l-102.78-36.035c-5.713-38.086-20.459-72.607-44.189-103.61l1.074-458.64c14.599-26.367 32.52-55.176 53.711-86.475 23.193-34.278 48.633-59.668 87.5-76.904 64.551-28.614 126.07-52.833 184.52-72.705 12.012-4.053 20.264-8.789 30.371-12.842 1.807-0.732 5.42-3.125 10.791-7.177 3.564-2.783 7.275-5.078 11.084-6.885-4.199 10.938-11.475 33.399-20.947 39.16-1.221 0.732-2.051 1.953-2.344 3.369-9.619 50.635-11.865 102.1-6.836 154.3 0.146 1.709-0.879 3.271-2.49 3.808-7.569 2.588-15.234 5.566-23.047 8.936-84.424 36.474-99.951 149.22-90.185 227.34 0.391 2.979 2.392 4.59 5.957 4.737 0.635 10.693 1.611 21.24 3.028 31.738 6.103 45.654 14.453 90.918 25.146 135.79 9.668 40.625 28.174 87.451 55.518 140.53 14.697 28.515 35.498 53.271 62.012 68.994 1.904 1.123 1.269 4.102-0.928 4.297-13.623 1.367-25.342-0.293-35.156-4.98-9.326-10.108-23.779-17.09-43.261-20.947-13.623-2.686-22.656 2.197-27.002 14.551-11.133 31.592 26.416 33.496 47.558 36.621 7.471 1.123 12.549-0.049 15.283-3.515 23.095 3.759 45.898 1.904 68.311-5.469 15.137-4.98 26.66 3.272 41.406 3.906 17.627 0.732 35.547 0.391 53.76-1.025 14.307 2.197 30.713-0.537 49.268-8.105 12.5-5.127 17.139-14.356 13.867-27.735-5.078-20.898-21.338-18.701-38.819-11.426-15.674 6.542-26.025 10.84-30.957 12.939-3.272 1.367-3.906 4.444-2.002 9.278l-45.752 5.078c-2.344 0.244-3.565-2.637-1.758-4.15 7.764-6.446 15.43-12.5 21.582-20.41 22.705-29.199 39.16-61.768 49.365-97.656 10.351-36.377 21.484-64.893 23.633-103.42l185.11 254.35c0.83 1.123 2.295 1.465 3.515 0.83l1.514-0.781c2.051-1.074 2.686-3.76 1.318-5.615l-187.26-257.52c2.198-10.01 3.467-20.41 3.809-31.299 0.781-22.998 1.514-45.361-2.051-68.213-2.442-15.674-0.342-33.105-2.442-50.489-0.732-6.104-1.563-12.207-2.441-18.311 1.465-0.635 2.637-1.562 3.516-2.734 0.732-0.976 1.025-2.392 0.879-4.199-6.201-94.629-51.514-212.21-164.26-215.09-1.367-0.048-2.539-1.074-2.734-2.441-12.6-98.2 1.56-194.24 98.63-243.17m748.73 608.4c-10.596 22.803-10.107 44.385-9.619 73.34l-151.71 1.074c-2.1 0.049-3.711 1.758-3.613 3.858l0.049 0.342c0.146 2.148 1.904 3.809 4.052 3.809l166.8-1.27c2.881 15.381 2.686 30.761-0.586 46.24l-164.45 1.514c-1.758 0-3.174 1.416-3.174 3.174l0.049 1.27c0 2.246 1.807 4.052 4.053 4.004l163.92-1.514-1.416 54.785c-0.098 4.688 3.564 8.545 8.057 8.447h0.342c5.029-0.049 9.375-3.564 10.498-8.496 3.027-13.33 4.785-30.029 5.322-50.195 0.098-3.369 1.953-5.323 5.615-5.908l62.696-0.195c1.709 0 3.125-1.416 3.125-3.125v-1.514c-0.049-1.074-0.879-1.904-1.953-1.904l-65.576 0.098 1.758-47.949 62.598 1.465c2.05 0.049 3.759-1.709 3.662-3.857v-0.244c-0.098-2.051-1.807-3.711-3.907-3.76l-63.525-1.221c-1.123-2.783-1.416-3.076-0.977-0.977 4.541-19.287 6.055-38.428 4.541-57.373-0.927-11.67-2.588-22.266-15.039-24.267-13.429-2.151-20.607 1.316-21.583 10.349z" fill="#fff"/> <path d="m3309.7 2644.8 0.146 225.88c0.196 146.34 0.538 292.43 1.026 438.28 0 1.611 0.293 2.979 0.928 4.052 0.781 1.319 2.685 1.27 3.418-0.097 18.506-35.059 40.528-72.559 68.702-102.3 3.662-3.858 6.054-8.838 6.835-14.16l11.475-78.516c0.439-2.93 0.488-5.957 0.195-8.936-1.611-9.863-5.859-23.34-7.763-35.693-8.057-52.686-15.576-104.54-22.656-155.66l-9.814-108.74c5.224-0.342 8.105 2.246 8.642 7.715 8.398 89.306 20.752 180.62 37.109 273.93 1.172 6.787 3.076 12.207 5.664 16.26 0.879 1.318 2.1 2.393 3.516 3.076 27.148 12.402 54.736 19.092 82.813 20.117 2.636 0.097 4.687 2.392 4.541 5.029v0.098c-0.147 2.636-2.344 4.688-4.981 4.59-28.564-1.074-55.811-7.47-81.836-19.14-2.1-0.977-4.541 0.342-4.883 2.637-3.369 21.582-7.568 48.681-12.646 81.25-1.953 12.549-12.548 17.627-18.359 24.414-34.472 40.185-61.719 91.699-87.695 150.05-8.056 18.067-19.141 49.854-33.252 95.362-10.156 32.666-20.508 64.697-31.005 96.094-0.489 1.416-1.123 0.049-1.954-4.004l-0.537-391.8 0.586-576.17c-2.197-74.073-1.513-149.51 2.002-226.32 14.893 90.235 40.674 175.59 77.344 256.01 0.635 1.367 1.025 2.881 1.172 4.394l1.267 12.303z" fill="#1F1C32"/> <path d="m1630.1 2376.5-0.244 74.121c-0.048 3.515 0.879 6.982 2.686 9.961 58.008 98.34 90.674 231.4 16.309 332.08-6.25 8.447-12.451 16.602-18.604 24.512-1.611-1.123-3.027-1.661-4.248-1.612-0.977 0-2.051 0.977-3.272 2.881-3.32 5.127-7.959 9.717-13.867 13.818-31.104 21.631-65.332 33.154-102.69 34.57-55.322 2.002-92.432-21.826-111.33-71.582-16.455-43.359-27.197-86.572-32.324-129.59-15.186-127.98 38.77-244.48 170.02-278.56 29.443-7.665 61.962-11.181 97.558-10.595m-208.64 410.5c9.326-66.992 43.311-117.92 101.9-152.73 11.377-6.787 22.754-13.428 34.131-19.922 13.281-7.666 17.188-18.848 11.67-33.643-6.933-18.604-42.822-76.66-71.973-66.748-67.724 22.998-107.32 92.578-109.96 161.67-1.172 31.396 2.588 62.842 11.23 94.238 2.198 7.959 6.006 14.893 11.426 20.801 3.859 4.151 10.792 1.953 11.573-3.662z" fill="#FDA996"/> <path d="m2668.1 2550.2-3.76 10.644-38.183 58.496c-2.295 3.516-7.373 3.613-9.814 0.244l-50.195-68.652c-1.221-1.66-3.76-1.465-4.688 0.342l-32.422 61.524c-0.586 1.074-0.781 2.295-0.586 3.516 21.631 126.9 37.402 218.6 47.314 275.2 2.295 13.086 3.76 26.66 4.297 40.723-5.03 14.16-8.399 25.342-10.205 33.594-21.435 97.998-44.922 194.04-70.459 288.18-0.439 1.66-2.832 1.709-3.32 0.049l-91.992-295.22c6.836-48.877 11.816-102.78 18.994-146.63 7.178-43.945 17.578-106.59 31.153-187.94 0.586-3.32-0.146-6.738-2.051-9.57l-41.406-62.451c-1.269-1.855-3.955-1.953-5.371-0.195l-54.346 69.677c-2.198 2.832-6.494 2.93-8.838 0.196l-75.537-89.307c-1.855-1.856-2.979-4.98-3.369-9.375 2.295 0.049 4.638 1.367 6.982 3.955 25.928 28.662 50.195 56.494 72.705 83.398 1.709 2.002 4.785 1.953 6.445-0.098l130.57-167.43c2.197-2.783 6.396-2.832 8.594-0.049l132.23 165.82c0.878 1.123 2.636 1.074 3.418-0.146 14.6-22.217 28.272-42.041 40.918-59.473 0.194-0.245 1.17 0.048 2.928 0.976z" fill="#1F1C32"/> <path d="m3769.3 2455.6c1.661 0.439 3.223 3.125 4.688 8.008-30.42-0.098-56.934 7.568-79.639 23.047-0.391 0.244-0.878 0.39-1.318 0.39h-2.636c-3.956 0.049-5.518-5.127-2.198-7.324 24.267-15.772 51.269-23.829 81.103-24.121z" fill="#1F1C32"/> <path d="m3114.3 3215.4-6.885 1.709c-0.439-206.79-9.814-405.86-28.125-597.17-3.955-41.406-10.791-90.918-20.508-148.58-0.342-2.198 1.025-4.297 3.174-4.834l0.146-0.049c2.1-0.537 4.199 0.781 4.59 2.929 13.038 80.078 21.973 149.22 26.709 207.47 13.379 163.62 20.508 329.59 21.338 498 0.05 13.478-0.097 27.003-0.439 40.528z" fill="#1F1C32"/> <path d="m2835 2480.1c0.049-0.537 0.83-0.586 0.977-0.049 25.635 90.332 27.002 185.01 11.767 276.61-0.342 2.051-1.953 3.614-4.004 3.906-38.525 5.908-63.867 27.588-76.074 65.039-0.293 0.927-1.562 1.025-2.002 0.146l-55.273-107.62c-0.977-1.953-0.098-4.297 1.953-5.127l138.48-54.834c2.783-1.123 4.492-3.906 4.199-6.885-1.123-11.572-7.715-62.061-19.775-151.42-0.878-6.492-0.976-13.084-0.244-19.774z" fill="#fff"/> <path d="m1868.2 3215.9c-1.318 1.025-2.832 1.465-4.443 1.416-1.514-0.049-2.637-0.488-3.32-1.416 1.855-125.34 0.879-250.1-2.979-374.36-3.662-117.53-10.693-235.79-27.832-351.86-0.244-1.904 1.074-3.662 2.978-3.858h0.147c1.953-0.196 3.711 1.123 4.053 3.076 10.4 61.621 17.529 125.05 21.484 190.28 10.791 178.27 14.063 357.18 9.912 536.72z" fill="#1F1C32"/> <path d="m1421.4 2787c-0.781 5.615-7.715 7.812-11.572 3.662-5.42-5.908-9.228-12.842-11.426-20.801-8.642-31.397-12.402-62.842-11.23-94.238 2.637-69.092 42.236-138.67 109.96-161.67 29.15-9.912 65.039 48.145 71.973 66.748 5.518 14.795 1.611 25.977-11.67 33.643-11.377 6.494-22.754 13.135-34.131 19.922-58.594 34.814-92.579 85.742-101.9 152.73m-7.178-9.473c10.986-63.818 43.945-113.52 98.779-149.07 7.959-5.127 16.943-10.254 27.002-15.332 17.285-8.74 27.295-16.944 17.334-36.23-10.693-20.655-24.17-41.943-44.092-53.076-1.416-0.781-2.979-1.172-4.59-1.172-8.203 0.147-13.965 1.074-17.334 2.783-54.834 27.783-85.84 72.803-92.969 135.01-4.688 40.625-0.83 79.248 11.621 115.92 0.342 0.977 0.928 1.709 1.758 2.246 0.978 0.634 2.296 0.097 2.491-1.075z" fill="#1F1C32"/> <path d="m1414.2 2777.5c-0.195 1.172-1.514 1.709-2.49 1.074-0.83-0.537-1.416-1.27-1.758-2.246-12.451-36.67-16.308-75.293-11.621-115.92 7.129-62.207 38.135-107.23 92.969-135.01 3.369-1.709 9.131-2.636 17.334-2.783 1.611 0 3.174 0.391 4.59 1.172 19.922 11.133 33.398 32.422 44.092 53.076 9.961 19.287-0.049 27.49-17.334 36.23-10.059 5.078-19.043 10.205-27.002 15.332-54.834 35.548-87.793 85.255-98.78 149.07z" fill="#FDA996"/> <path d="m2404.1 2958.9c-5.859-8.643-8.789-17.676-8.838-27.197-0.049-1.367-0.342-2.734-0.977-3.955l-5.225-10.107c-0.83-1.611-1.465-3.223-1.953-4.932-8.057-27.832-17.627-52.686-23.975-74.219-19.287-65.869-37.598-123.24-54.883-172.12-2.392-6.787-7.129-21.777-14.111-44.873-8.789-29.004-21.875-56.641-27.441-88.818l75.537 89.307c2.344 2.734 6.641 2.636 8.838-0.196l54.346-69.677c1.416-1.758 4.102-1.66 5.371 0.195l41.406 62.451c1.905 2.832 2.637 6.25 2.051 9.57-13.574 81.348-23.975 143.99-31.153 187.94-7.176 43.848-12.157 97.754-18.993 146.63z" fill="#84CBC0"/> <path d="m2664.3 2560.9-84.277 371.39c-0.537-14.063-2.002-27.637-4.297-40.723-9.912-56.592-25.684-148.29-47.314-275.2-0.196-1.221 0-2.442 0.586-3.516l32.422-61.524c0.928-1.806 3.467-2.002 4.688-0.342l50.195 68.652c2.441 3.369 7.519 3.271 9.814-0.244l38.183-58.495z" fill="#84CBC0"/> <path d="m2213.7 2692.4c0.488 1.513-0.977 2.978-2.539 2.49l-126.27-39.014c-1.416-0.439-2.393-1.758-2.393-3.223l-0.391-63.574c0-2.441 2.002-4.443 4.444-4.395 71.045 1.076 107.67 45.021 127.15 107.72z" fill="#fff"/> <path d="m2234 2917.2c-4.639 31.054-9.571 63.037-14.844 95.996-9.375 58.936-33.594 120.07-85.254 151.9-2.929 1.806-6.641 1.563-9.326-0.586-30.518-24.463-56.104-54.15-76.855-89.112-11.475-19.385-22.949-47.754-34.326-85.156-11.426-37.695-19.434-67.334-23.975-88.867-6.494-31.055-10.449-66.797-11.865-107.28 0.146-25.537 0.928-50.781 2.246-75.83 3.174-58.936 31.201-114.6 90.918-130.03 1.416-0.39 2.783 0.684 2.783 2.1l0.391 67.871c0 2.344 1.514 4.395 3.76 5.078l133.45 41.211c4.737 1.464 8.35 5.273 9.521 10.058 2.588 10.596 2.246 17.481-2.783 28.027-22.412 47.168-36.328 76.319-41.65 87.5-1.074 2.295-0.83 5.029 0.635 7.129l57.177 79.982z" fill="#fff"/> <path d="m3829.4 2592.9 0.586 9.326c-26.416 4.931-53.418 4.199-81.005-2.198-2.539-0.586-4.053-3.174-3.32-5.664l0.097-0.244c0.781-2.588 3.418-4.102 6.006-3.467 25.048 6.25 50.927 6.983 77.636 2.247z" fill="#1F1C32"/> <path d="m3362.2 2809 9.814 108.74c-9.033-8.35-20.85-18.506-35.449-30.371-8.74-7.08-17.627-12.647-26.709-16.602l-0.146-225.88c1.318-1.612 2.979-1.855 4.98-0.635 1.465 0.879 2.637 2.295 3.467 4.248 9.912 23.096 23.926 42.92 42.09 59.472 1.318 1.221 2.002 2.93 1.855 4.737-1.758 26.025-2.148 42.041-1.172 47.998 2.637 16.162 3.076 32.275 1.27 48.291z" fill="#E8F1FA"/> <path d="m3474.4 2657.2c0.323 0.677 0.03 1.458-0.613 1.761l-106.65 51.556c-0.666 0.339-1.447 0.046-1.76-0.613l-2.635-5.451c-0.323-0.677-0.03-1.458 0.613-1.761l106.65-51.556c0.667-0.339 1.448-0.046 1.761 0.613l2.634 5.451z" fill="#1F1C32"/> <path d="m2234 2776c7.08 41.552 7.324 84.131 0.635 127.73l-48.584-68.115c-1.074-1.563-1.27-3.564-0.488-5.274l38.33-82.47c0.781-1.66 3.272-1.074 3.272 0.781-0.05 12.159 2.245 21.241 6.835 27.344z" fill="#fff"/> <path d="m2935.5 2849.1c0 44.776-36.328 81.104-81.104 81.104s-81.104-36.328-81.104-81.104c0-44.775 36.328-81.104 81.104-81.104s81.104 36.329 81.104 81.104m-93.121-45.273c-24.262 6.26-38.617 31.846-32.094 57.07 6.514 25.264 31.466 40.645 55.739 34.355 24.261-6.26 38.617-31.846 32.094-57.07-6.515-25.263-31.466-40.644-55.739-34.355z" fill="#BABABB"/> <path d="m2257.8 2774.1c0.879 6.104 1.709 12.207 2.441 18.311 2.1 17.383 0 34.815 2.442 50.489 3.564 22.852 2.832 45.215 2.051 68.213-0.342 10.888-1.611 21.289-3.809 31.299-3.76 0.146-5.664 1.563-5.713 4.249-0.049 1.904 0.488 3.418 1.514 4.492-2.149 38.525-13.281 67.041-23.633 103.42-10.205 35.888-26.66 68.457-49.365 97.656-6.152 7.91-13.818 13.965-21.582 20.41-1.807 1.513-0.586 4.395 1.758 4.15l45.752-5.078c3.711 6.201 6.592 14.551 8.643 25.049-18.213 1.416-36.133 1.758-53.76 1.025-14.746-0.635-26.27-8.887-41.406-3.906-22.412 7.373-45.215 9.229-68.311 5.469l7.422-26.709c9.815 4.688 21.533 6.348 35.156 4.98 2.197-0.195 2.832-3.174 0.928-4.297-26.514-15.723-47.314-40.479-62.012-68.994-27.344-53.076-45.849-99.902-55.518-140.53-10.693-44.873-19.043-90.137-25.146-135.79-1.416-10.498-2.393-21.045-3.028-31.738l24.902-2.246c1.416 40.479 5.371 76.22 11.865 107.28 4.541 21.533 12.549 51.172 23.975 88.867 11.377 37.403 22.852 65.771 34.326 85.156 20.752 34.961 46.338 64.648 76.855 89.112 2.685 2.148 6.396 2.392 9.326 0.586 51.66-31.836 75.879-92.969 85.254-151.9 5.273-32.959 10.205-64.942 14.844-95.996 5.078-2.393 5.273-6.885 0.586-13.477 6.69-43.603 6.446-86.181-0.635-127.73l23.878-1.809z" fill="#BABABB"/> <path d="m2842.4 2803.8c24.273-6.289 49.225 9.092 55.739 34.355 6.523 25.224-7.833 50.811-32.094 57.07-24.273 6.289-49.225-9.092-55.739-34.355-6.524-25.224 7.832-50.81 32.094-57.07z" fill="#1F1C32"/> <path d="m3372 2917.7c7.081 51.123 14.6 102.98 22.656 155.66 1.904 12.354 6.152 25.83 7.763 35.693 0.293 2.979 0.244 6.006-0.195 8.936l-11.475 78.516c-0.781 5.322-3.173 10.302-6.835 14.16-28.174 29.736-50.196 67.236-68.702 102.3-0.732 1.367-2.637 1.416-3.418 0.097-0.635-1.074-0.928-2.441-0.928-4.052-0.488-145.85-0.83-291.94-1.026-438.28 9.082 3.955 17.969 9.522 26.709 16.602 14.601 11.865 26.418 22.021 35.451 30.371z" fill="#EA6D5E"/> <path d="m1629.4 2882.1 0.439 89.6c0 2.051 0.83 4.004 2.246 5.469 28.906 29.345 56.055 62.402 81.445 99.121 23.73 31.006 38.477 65.527 44.189 103.61 1.904 27.197 1.953 46.631 0.195 58.398-5.664 37.549-20.849 68.408-45.605 92.676-23.096 25.097-49.121 44.238-78.027 57.422-4.443 2.002-6.201 6.054-5.371 12.109 0.44-3.369 0.195-6.055-0.83-8.105-0.635-1.27-2.246-1.758-3.418-0.977-19.092 12.597-58.155 9.082-79.688 4.394-26.562-10.058-48.877-26.709-66.943-50-38.574-49.609-67.578-85.254-94.482-138.96-29.834-59.375-46.387-117.63-23.584-179.39 24.512-66.357 69.141-110.79 133.84-133.4 43.604-15.185 88.819-19.189 135.6-11.963m5.274 326.86c22.412-12.744 68.652-19.482 43.945-56.689-17.578-26.563-39.307-50.537-65.185-71.875-16.26-13.428-35.303-16.748-57.08-9.863-69.19 21.826-114.99 84.277-98.682 157.57 8.447 37.989 24.609 75.537 48.486 112.7 3.174 4.931 7.324 8.691 12.402 11.23 6.592 3.32 14.551-0.684 15.869-7.959 10.45-58.546 49.61-106.3 100.24-135.11z" fill="#FDA996"/> <path d="m2974.7 2986.2-6.152-32.813c-0.049-0.146-0.049-0.244-0.097-0.293-4.004-10.693-9.961-17.969-17.871-21.826-7.324-3.564-8.984-8.692-7.959-16.357 0.977-9.033 8.154-12.5 21.582-10.352 12.451 2.002 14.111 12.598 15.039 24.267 1.512 18.946-1e-3 38.087-4.542 57.374z" fill="#1F1C32"/> <path d="m2942.6 2914.9c-1.025 7.666 0.635 12.793 7.959 16.357 7.91 3.857 13.867 11.133 17.871 21.826 0.049 0.049 0.049 0.146 0.097 0.293l6.152 32.813c-0.439-2.1-0.146-1.807 0.977 0.977-1.465 2.49-1.074 5.029 1.172 7.617l-1.758 47.949c-0.781-0.049-1.562 0.293-2.344 0.928-1.611 1.27-1.513 3.76 0.146 4.932 0.928 0.635 2.198 0.879 3.906 0.781-3.662 0.586-5.517 2.539-5.615 5.908-0.537 20.166-2.295 36.865-5.322 50.195-1.124 4.932-5.469 8.448-10.498 8.496h-0.342c-4.492 0.098-8.154-3.76-8.057-8.447l1.416-54.785c2.686-1.513 3.613-3.467 2.783-5.859-0.293-0.83-1.367-1.709-3.174-2.588 3.272-15.479 3.467-30.859 0.586-46.24 3.321-0.293 4.785-1.855 4.444-4.737-0.244-2.051-1.416-3.076-3.516-3.076h-16.504c-0.487-28.955-0.975-50.537 9.621-73.34z" fill="#54C399"/> <path d="m2261 2942.5 187.26 257.52c1.367 1.855 0.732 4.541-1.318 5.615l-1.514 0.781c-1.221 0.635-2.685 0.293-3.515-0.83l-185.11-254.35c-1.026-1.074-1.563-2.588-1.514-4.492 0.048-2.686 1.952-4.102 5.712-4.248z" fill="#1F1C32"/> <path d="m2975.7 2987.2 63.525 1.221c2.1 0.049 3.809 1.709 3.907 3.76v0.244c0.097 2.148-1.612 3.906-3.662 3.857l-62.598-1.465c-2.246-2.588-2.637-5.127-1.172-7.617z" fill="#1F1C32"/> <path d="m2933 2988.3h16.504c2.1 0 3.271 1.026 3.516 3.076 0.342 2.881-1.123 4.444-4.444 4.737l-166.8 1.27c-2.148 0-3.906-1.66-4.052-3.809l-0.049-0.342c-0.098-2.1 1.513-3.809 3.613-3.858l151.71-1.074z" fill="#1F1C32"/> <path d="m2948 3042.3c1.807 0.879 2.881 1.758 3.174 2.588 0.83 2.393-0.098 4.346-2.783 5.859l-163.92 1.514c-2.246 0.049-4.053-1.758-4.053-4.004l-0.049-1.27c0-1.758 1.416-3.174 3.174-3.174l164.45-1.513z" fill="#1F1C32"/> <path d="m2975.1 3042.7 65.576-0.098c1.074 0 1.904 0.83 1.953 1.904v1.514c0 1.709-1.416 3.125-3.125 3.125l-62.696 0.195c-1.709 0.098-2.978-0.146-3.906-0.781-1.66-1.172-1.758-3.662-0.146-4.932 0.781-0.634 1.562-0.976 2.344-0.927z" fill="#1F1C32"/> <path d="m1678.6 3152.3c24.707 37.207-21.533 43.945-43.945 56.689-50.635 28.808-89.795 76.563-100.24 135.11-1.318 7.276-9.277 11.279-15.869 7.959-5.078-2.539-9.229-6.299-12.402-11.23-23.877-37.158-40.039-74.707-48.486-112.7-16.309-73.291 29.492-135.74 98.682-157.57 21.777-6.885 40.82-3.565 57.08 9.863 25.877 21.338 47.606 45.313 65.184 71.876m-158.06 188.04c1.758 1.416 4.443 0.489 4.981-1.709 4.639-18.604 9.375-36.182 18.896-52.783 22.656-39.697 54.639-70.117 95.996-91.357 17.481-8.936 27.637-14.16 30.42-15.674 1.66-0.879 2.832-2.393 3.271-4.199 4.59-18.847-44.824-67.871-60.303-81.25-21.631-18.75-33.642-21.143-59.18-11.67-65.43 24.365-103.47 77.295-86.67 149.41 7.764 33.252 21.728 65.771 41.992 97.607 2.785 4.395 6.349 8.252 10.597 11.621z" fill="#1F1C32"/> <path d="m1520.5 3340.3c-4.248-3.369-7.812-7.227-10.596-11.621-20.264-31.836-34.229-64.355-41.992-97.607-16.797-72.119 21.24-125.05 86.67-149.41 25.537-9.473 37.549-7.08 59.18 11.67 15.479 13.379 64.893 62.403 60.303 81.25-0.44 1.806-1.611 3.32-3.271 4.199-2.783 1.513-12.94 6.738-30.42 15.674-41.357 21.24-73.34 51.66-95.996 91.357-9.521 16.602-14.258 34.18-18.896 52.783-0.538 2.198-3.224 3.125-4.982 1.709z" fill="#FDA996"/> <path d="m2218.3 3196.8c-2.051-10.498-4.931-18.848-8.643-25.049-1.904-4.834-1.27-7.91 2.002-9.278 4.932-2.1 15.283-6.397 30.957-12.939 17.481-7.275 33.74-9.473 38.819 11.426 3.271 13.379-1.367 22.608-13.867 27.735-18.555 7.568-34.961 10.302-49.268 8.105z" fill="#1F1C32"/> <path d="m2062.3 3172.7-7.422 26.709c-2.735 3.466-7.813 4.638-15.283 3.515-21.142-3.125-58.691-5.029-47.558-36.621 4.346-12.354 13.379-17.237 27.002-14.551 19.482 3.858 33.935 10.84 43.261 20.948z" fill="#1F1C32"/> <path d="m3227.4 3174.6 0.537 391.8c0.293 5.908 0.049 10.059-0.781 12.451-41.21 124.02-74.755 248.98-100.68 374.85-23.096 10.986-47.657 16.455-73.682 16.504-571.97 0.537-949.02 0.879-1131.1 0.977-45.752 0-75.928-2.344-90.625-6.982-29.297-9.326-54.834-25.977-76.611-49.951-37.598-41.406-41.651-90.82-41.162-143.6-2.344-6.446-1.953-10.401 3.467-15.332 8.154-7.422 15.527-16.7 22.07-27.832 32.959-56.201 32.129-119.68-7.275-171.73-6.201-8.155-12.061-15.723-17.578-22.656l-1.66-202.15c24.756-24.268 39.941-55.127 45.605-92.676 1.758-11.768 1.709-31.202-0.195-58.398l102.78 36.035c0.683 0.928 1.806 1.367 3.32 1.416 1.611 0.049 3.125-0.391 4.443-1.416 189.84 59.082 390.48 89.795 601.95 92.188 177.39 1.953 346.78-16.748 508.06-56.055 11.28-2.783 32.715-8.74 64.404-17.92 21.534-6.25 43.115-11.963 64.746-17.09l6.885-1.709 3.76 0.391c1.172 0.098 2.344-0.44 2.978-1.465 1.074-1.807 2.979-3.272 5.761-4.395 36.329-14.797 69.874-26.516 100.59-35.256m-466.48 262.58c-73.513 7.582-126.83 74.135-119.14 148.63 7.69 74.48 73.51 128.73 147.02 121.12 73.513-7.583 126.83-74.135 119.14-148.63-7.689-74.48-73.509-128.73-147.02-121.12m-675.45 16.489c-65.108 35.332-88.936 117.31-53.199 183.12 35.699 65.783 117.44 90.49 182.55 55.119 65.108-35.332 88.936-117.31 53.199-183.12-35.699-65.783-117.44-90.49-182.55-55.119z" fill="#D0E7F5"/> <path d="m1712.3 3331 1.66 202.15-79.736-77.295c-3.174-3.125-4.981-7.373-5.03-11.865l-0.098-23.437-0.195-20.02c-0.83-6.055 0.927-10.107 5.371-12.109 28.907-13.183 54.933-32.324 78.028-57.422z" fill="#1F1C32"/> <path d="m3510.9 3348.4c-2.1-1.123-2.784-3.809-1.514-5.86l0.098-0.146c1.367-2.148 4.15-2.832 6.396-1.611 75.732 42.138 137.01 91.211 204.88 141.31 36.963 27.295 78.564 51.905 124.71 73.926 2.344 1.123 3.369 3.857 2.344 6.25l-0.244 0.489c-1.026 2.295-3.76 3.271-6.006 2.099-82.324-41.943-140.92-84.765-216.94-142.82-37.012-28.271-74.902-52.832-113.72-73.633z" fill="#1F1C32"/> <path d="m1628.9 3400.5 0.195 20.02c-31.543-11.67-64.697-17.48-99.512-17.432 15.283-0.244 20.41-2.686 15.381-7.276 21.533 4.688 60.596 8.203 79.688-4.394 1.172-0.781 2.783-0.293 3.418 0.977 1.025 2.051 1.27 4.737 0.83 8.105z" fill="#fff"/> <path d="m1529.6 3403.1c34.814-0.049 67.969 5.761 99.512 17.432l0.098 23.437c0.049 4.492 1.856 8.74 5.03 11.865l79.736 77.295c5.518 6.933 11.377 14.501 17.578 22.656 39.404 52.051 40.234 115.53 7.275 171.73-6.543 11.132-13.916 20.41-22.07 27.832-5.42 4.932-5.81 8.887-3.467 15.332-0.342-1.758-1.27-2.979-2.686-3.711-1.318-0.684-2.588-0.342-3.858 1.025-21.338 22.949-46.924 38.965-76.855 47.998-0.879-0.83-2.246-1.026-4.053-0.684-36.23 7.617-67.48 1.904-101.22-16.015-46.045-24.414-83.936-54.541-113.72-90.43-43.799-52.734-56.689-112.94-38.574-180.57 7.422-27.637 21.631-53.028 42.676-76.123 29.933-32.959 68.165-49.317 114.6-49.072m151.9 169.78c-5.176-14.941-48.779-38.184-60.01-43.555-8.057-3.857-15.039-6.005-20.85-6.396-58.301-3.906-124.22 65.528-117.19 121.24 4.297 34.277 35.693 72.509 62.451 97.51 4.541 4.248 10.058 7.568 16.602 10.01 9.473 3.516 16.162-4.443 16.162-12.744 0.195-61.719 39.307-110.4 91.846-139.7 9.082-5.029 13.086-12.256 12.06-21.582-0.145-1.612-0.536-3.223-1.073-4.786z" fill="#FDA996"/> <path d="m2760.9 3437.2c73.509-7.603 139.33 46.645 147.02 121.12 7.691 74.495-45.629 141.05-119.14 148.63-73.509 7.603-139.33-46.645-147.02-121.12-7.691-74.495 45.629-141.05 119.14-148.63z" fill="#EA6D5E"/> <path d="m2085.4 3453.7c65.117-35.371 146.86-10.664 182.55 55.119 35.737 65.809 11.909 147.79-53.199 183.12-65.117 35.371-146.86 10.664-182.55-55.119-35.737-65.809-11.909-147.79 53.199-183.12z" fill="#54C399"/> <path d="m1682.5 3577.7c1.026 9.326-2.978 16.553-12.06 21.582-52.539 29.297-91.65 77.979-91.846 139.7 0 8.301-6.689 16.26-16.162 12.744-6.543-2.441-12.061-5.762-16.602-10.01-26.758-25.001-58.154-63.233-62.451-97.51-7.031-55.713 58.887-125.15 117.19-121.24 5.811 0.391 12.793 2.539 20.85 6.396 11.231 5.371 54.834 28.614 60.01 43.555 0.536 1.564 0.927 3.175 1.073 4.786m-115.82 158.5c5.127-50.147 27.637-92.139 67.529-125.88 4.004-3.369 13.428-9.668 28.321-18.897 9.326-5.761 15.185-13.476 4.59-21.826-12.842-10.156-53.027-38.819-70.41-36.914-23.73 2.587-45.898 12.207-66.455 28.906-24.609 19.97-44.482 56.25-36.572 88.477 8.594 34.961 37.744 65.723 66.504 88.867 2.489 2.002 6.2 0.44 6.493-2.734z" fill="#1F1C32"/> <path d="m1566.7 3736.2c-0.293 3.174-4.004 4.736-6.494 2.734-28.76-23.144-57.91-53.906-66.504-88.867-7.91-32.227 11.963-68.506 36.572-88.477 20.557-16.699 42.725-26.319 66.455-28.906 17.383-1.905 57.568 26.758 70.41 36.914 10.596 8.349 4.736 16.064-4.59 21.826-14.893 9.229-24.317 15.528-28.321 18.897-39.892 33.741-62.401 75.733-67.528 125.88z" fill="#FDA996"/> <path d="m1713.3 3770.7c-0.489 52.783 3.564 102.2 41.162 143.6 21.777 23.975 47.315 40.625 76.611 49.951 14.697 4.638 44.873 6.982 90.625 6.982 182.08-0.098 559.13-0.439 1131.1-0.977 26.025-0.049 50.586-5.518 73.682-16.504-17.872 82.568-26.075 164.75-24.61 246.48 0.977 53.76 8.74 106.64 23.242 158.54 0.683 2.49-1.367 4.883-3.906 4.541l-0.439-0.049c-3.223-0.391-5.86-2.734-6.64-5.908-20.068-80.713-26.953-162.35-20.605-244.87 0.146-1.807-2.149-2.686-3.223-1.221-53.467 72.266-90.137 159.86-108.64 243.7-0.488 2.198-2.588 3.614-4.785 3.223l-0.342-0.048c-2.148-0.391-3.564-2.441-3.125-4.59 17.969-89.014 53.369-170.7 106.2-245.02 4.98-7.031 13.33-11.816 15.43-20.556 1.416-5.908 1.514-12.256 0.196-18.945-7.373 0.537-13.867 0.293-19.482-0.781-0.293-0.049-0.586-0.097-0.928-0.097l-587.55 3.32c-1.904 0-3.711 0.781-5.029 2.148-23.73 24.902-49.756 47.021-71.582 74.072-31.787 39.404-56.054 72.559-72.705 99.463-1.563 2.588-3.369 3.906-5.371 3.955-3.223 0.146-5.273-3.418-3.711-6.348 28.027-53.32 62.012-89.502 109.28-141.6 7.959-8.74 18.066-18.311 30.322-28.662 1.66-1.416 0.684-4.102-1.465-4.102l-469.14-1.172c-71.338 1.66-122.95 2.295-154.78 1.904-68.75-0.879-141.55-34.473-178.08-94.385-22.803-37.451-34.326-76.904-34.521-118.31-0.098-22.266-0.293-36.426-0.586-42.431 29.932-9.033 55.518-25.049 76.855-47.998 1.27-1.367 2.539-1.709 3.858-1.025 1.412 0.734 2.34 1.955 2.682 3.713z" fill="#1F1C32"/> <path d="m3095.2 4069-34.473 15.576c-0.342 0.195-0.732 0.342-1.172 0.391-19.336 3.906-36.181 5.518-57.373 11.279-33.252 9.082-80.224 23.486-126.71 34.521-145.7 34.521-269.82 69.043-372.32 103.47-42.383 14.258-99.511 39.502-171.44 75.781-20.556 10.352-40.527 24.609-57.666 37.988-7.031 5.469-13.281 12.354-18.799 20.703l-16.357-23.047c-69.238-103.96-149.61-196.09-241.06-276.46l469.14 1.172c2.149 0 3.125 2.686 1.465 4.102-12.256 10.352-22.363 19.922-30.322 28.662-47.266 52.099-81.25 88.281-109.28 141.6-1.562 2.929 0.489 6.494 3.711 6.348 2.002-0.049 3.809-1.367 5.371-3.955 16.65-26.904 40.918-60.059 72.705-99.463 21.826-27.051 47.852-49.17 71.582-74.072 1.319-1.367 3.125-2.148 5.029-2.148l587.55-3.32c0.342 0 0.635 0.049 0.928 0.097 5.615 1.072 12.11 1.317 19.483 0.78z" fill="#EA6D5E"/> <path d="m3453.5 4316.4 0.683-1.318c0.83-1.66 2.93-2.148 4.444-1.074 83.643 60.889 178.08 91.113 283.3 90.674 1.904 0 3.417 1.563 3.466 3.467v2.197c0 1.758-1.416 3.174-3.173 3.174-106.15 0.244-201.9-30.078-287.3-91.016-1.953-1.416-2.539-4.004-1.416-6.104z" fill="#1F1C32"/> <path d="m3749 4518.8c2.148-0.488 4.248 0.977 4.638 3.174l0.049 0.341c0.391 2.344-1.123 4.542-3.418 5.03-58.252 12.744-112.01 18.213-161.33 16.309-99.463-3.76-189.65-32.031-270.56-84.717-2.295-1.465-3.076-4.443-1.855-6.885l0.195-0.342c1.123-2.246 3.955-3.027 6.104-1.611 128.52 85.742 275.73 101.12 426.17 68.701z" fill="#1F1C32"/> <path d="m3099.1 4998.6c-1.905 0.391-3.467 1.221-4.736 2.442h-12.012c37.256-29.932 74.561-57.617 111.91-83.057 168.02-114.6 352.1-189.4 552.2-224.46 2.442-0.439 4.785 1.318 5.029 3.759v0.391c0.293 2.539-1.514 4.883-4.052 5.225-39.062 5.469-83.936 15.234-134.67 29.297-123.29 34.229-240.43 85.156-351.42 152.78-42.676 26.025-94.19 61.572-154.59 106.64-3.565 2.637-6.104 4.981-7.666 6.982z" fill="#1F1C32"/> <path d="m3406.3 4902.7c-48.877 23.389-94.189 48.583-135.94 75.586-1.953 1.269-4.59 0.586-5.713-1.513-1.416-2.588-0.83-4.639 1.758-6.202 47.754-29.981 93.115-55.273 136.08-75.831 42.92-20.605 91.065-40.137 144.34-58.594 2.832-1.024 4.834-0.146 5.957 2.54 0.928 2.148-0.146 4.688-2.392 5.371-47.218 15.674-95.264 35.206-144.09 58.643z" fill="#1F1C32"/> <path d="m3099.1 4998.6 16.504 2.442h-21.24c1.269-1.221 2.831-2.051 4.736-2.442z" fill="#fff"/> </svg>