<svg xmlns="http://www.w3.org/2000/svg" width="58.095" height="46.336" viewBox="0 0 58.095 46.336"><defs><style>.a{fill:#16a34a;}.b{fill:#16a34a;}</style></defs><path class="a" d="M142.146,154.006a1.651,1.651,0,0,1-1.651-1.651V141.742a1.651,1.651,0,0,1,3.3,0v10.614A1.651,1.651,0,0,1,142.146,154.006Z" transform="translate(-124.553 -130.075)"/><path class="a" d="M105.992,190.161H95.379a1.651,1.651,0,0,1,0-3.3h10.613a1.651,1.651,0,0,1,0,3.3Z" transform="translate(-83.093 -171.537)"/><path class="a" d="M53.812,90.809H4.283A4.288,4.288,0,0,1,0,86.526V56.1a4.288,4.288,0,0,1,4.283-4.283H32.146A4.289,4.289,0,0,1,36.429,56.1a1.651,1.651,0,0,1-1.649,1.652h0A1.651,1.651,0,0,1,33.127,56.1a.983.983,0,0,0-.982-.98H4.283A.983.983,0,0,0,3.3,56.1V86.526a.983.983,0,0,0,.982.982H53.812a.983.983,0,0,0,.982-.982V73.043a.975.975,0,0,0-.691-.938,1.651,1.651,0,0,1,.969-3.156,4.26,4.26,0,0,1,3.024,4.094V86.526A4.288,4.288,0,0,1,53.812,90.809Z" transform="translate(0 -51.817)"/><path class="b" d="M326.314,103.97a2.608,2.608,0,0,0-.775-.117H309.26a2.756,2.756,0,0,1-2.755-2.757V89.541h8.959a6.708,6.708,0,0,1,6.176,4.342Z" transform="translate(-271.727 -85.261)"/><path class="a" d="M313.417,92.721a1.642,1.642,0,0,1-.49-.074.96.96,0,0,0-.285-.043H296.364a4.412,4.412,0,0,1-4.406-4.408V76.644a1.653,1.653,0,0,1,1.651-1.654h8.96a8.334,8.334,0,0,1,7.692,5.338l4.611,9.955a1.652,1.652,0,0,1-1.425,2.438Zm-18.158-14.43v9.9a1.107,1.107,0,0,0,1.1,1.106h14.415l-3.532-7.626c-.013-.027-.025-.055-.036-.083a5.054,5.054,0,0,0-4.643-3.3Z" transform="translate(-258.83 -72.361)"/><ellipse class="b" cx="7.133" cy="7.133" rx="7.133" ry="7.133" transform="translate(8.563 30.419)"/><path class="a" d="M69.7,322.92a8.784,8.784,0,1,1,8.784-8.784A8.794,8.794,0,0,1,69.7,322.92Zm0-14.266a5.482,5.482,0,1,0,5.483,5.483A5.489,5.489,0,0,0,69.7,308.654Z" transform="translate(-54.008 -276.584)"/><ellipse class="b" cx="7.133" cy="7.133" rx="7.133" ry="7.133" transform="translate(35.267 30.419)"/><path class="a" d="M305.036,322.92a8.784,8.784,0,1,1,8.784-8.784A8.794,8.794,0,0,1,305.036,322.92Zm0-14.266a5.482,5.482,0,1,0,5.482,5.483A5.489,5.489,0,0,0,305.036,308.654Z" transform="translate(-262.637 -276.584)"/></svg>