<svg width="59" height="24" viewBox="0 0 51 20" fill="none" xmlns="http://www.w3.org/2000/svg">
    <g clip-path="url(#clip0_8753_280546)">
        <path d="M48.4909 16.5366C48.5396 16.4878 48.5883 16.4146 48.637 16.3659C48.6857 16.2927 48.7345 16.2439 48.7832 16.1707C48.8319 16.0976 48.8806 16.0488 48.9294 15.9756C48.9781 15.9024 49.0268 15.8293 49.0755 15.7805C49.1242 15.7073 49.1729 15.6586 49.2217 15.5854L49.3679 15.3659C49.4166 15.2927 49.4409 15.2439 49.4896 15.1707C49.5384 15.0976 49.5627 15.0244 49.6114 14.9512C49.6601 14.8781 49.6845 14.8293 49.7333 14.7561C49.782 14.6829 49.8064 14.6098 49.8551 14.5366C49.8794 14.4634 49.9281 14.3902 49.9525 14.3414C50.0012 14.2683 50.0256 14.1951 50.0499 14.0976C50.0743 14.0244 50.123 13.9512 50.1474 13.8781C50.1717 13.8049 50.2204 13.7073 50.2449 13.6341L50.3179 13.4146C50.3423 13.3415 50.3666 13.2439 50.4154 13.1707L50.4884 12.9512L50.5615 12.6829L50.6346 12.4634L50.7076 12.1951C50.732 12.1219 50.732 12.0488 50.7564 11.9756C50.7808 11.8781 50.7808 11.7805 50.8051 11.7073C50.8295 11.6341 50.8295 11.561 50.8539 11.4878C50.8782 11.3902 50.8782 11.2927 50.9026 11.1951C50.9026 11.1219 50.9269 11.0488 50.9269 11C50.9269 10.8781 50.9513 10.7805 50.9513 10.6586C50.9513 10.6098 50.9513 10.5366 50.9756 10.4878C50.9756 10.3171 50.9756 10.1707 51 10V9.97564C51 4.92683 47.2485 0.7561 42.4007 0.0731707H42.3764C42.2302 0.0487805 42.0841 0.0243901 41.9135 0.0243901H41.7674C41.6456 0.0243901 41.5481 0 41.4263 0H40.5006C40.4275 0 40.3544 -1.41251e-07 40.2814 0.0243901C40.2083 0.0243901 40.1596 0.0243902 40.0865 0.0487804C40.0134 0.0487804 39.9403 0.0731707 39.8916 0.0731707C39.8185 0.0731707 39.7698 0.0975607 39.6967 0.0975607C39.6236 0.0975607 39.5506 0.121951 39.5019 0.121951C39.4287 0.121951 39.38 0.146341 39.3069 0.146341C39.2339 0.146341 39.1608 0.170731 39.1121 0.195122C39.0634 0.195122 38.9903 0.219512 38.9415 0.219512C38.8684 0.243902 38.8197 0.243902 38.7466 0.268293C38.6979 0.292683 38.6249 0.292683 38.5761 0.317074C38.5031 0.341464 38.4544 0.341464 38.3812 0.365854C38.3325 0.390244 38.2594 0.390244 38.2107 0.414634C38.1376 0.439024 38.0889 0.463414 38.0158 0.463414C37.9671 0.487805 37.894 0.487805 37.8453 0.512195C37.7722 0.536585 37.7235 0.560976 37.6504 0.585366C37.6017 0.609756 37.5286 0.634146 37.4799 0.634146C37.4068 0.658536 37.3581 0.682926 37.285 0.707317C37.2363 0.731707 37.1876 0.7561 37.1145 0.780486C37.0414 0.804879 36.9927 0.829271 36.9196 0.853657L36.7735 0.926829C36.7004 0.951221 36.6516 1 36.5786 1.02439L36.4324 1.09756C36.3593 1.12195 36.3106 1.17073 36.2375 1.19512L36.0913 1.26829C36.0183 1.29269 35.9695 1.34146 35.8965 1.39024L35.7503 1.46341C35.6772 1.51219 35.6041 1.56098 35.5554 1.58536C35.5067 1.60976 35.1413 1.87805 35.1413 1.87805C35.1413 1.87805 33.3142 0.487805 32.5834 0.121951C31.8526 -0.243902 31 0.268293 31 1.09756V10.0244C31 15.3171 35.1169 19.6586 40.3301 20H41.475C41.5725 20 41.6456 20 41.743 19.9756C41.8161 19.9756 41.9135 19.9756 41.9866 19.9512C42.0841 19.9512 42.1571 19.9269 42.2546 19.9269C42.3276 19.9269 42.4251 19.9024 42.4981 19.9024C42.5713 19.8781 42.6687 19.8781 42.7418 19.8536C42.8149 19.8293 42.9123 19.8293 42.9854 19.8049C43.0584 19.7805 43.1559 19.7561 43.229 19.7561C43.3021 19.7317 43.3751 19.7317 43.4726 19.7073L43.7162 19.6341L43.9354 19.561L44.1791 19.4878L44.3983 19.4146C44.4714 19.3902 44.5444 19.3659 44.6419 19.3171C44.715 19.2927 44.7881 19.2683 44.8611 19.2195C44.9342 19.1951 45.0073 19.1464 45.0804 19.1219C45.1535 19.0976 45.2266 19.0488 45.2996 19.0244C45.3727 19 45.4458 18.9512 45.5189 18.9024C45.5919 18.8781 45.6651 18.8293 45.7381 18.8049C45.8112 18.7561 45.8843 18.7317 45.9574 18.6829C46.0304 18.6341 46.1035 18.6098 46.1523 18.561C46.2254 18.5122 46.2984 18.4634 46.3715 18.439C46.4446 18.3902 46.4933 18.3659 46.5664 18.3171C46.6394 18.2683 46.7126 18.2195 46.7613 18.1707C46.8344 18.1219 46.8831 18.0731 46.9561 18.0244C47.0292 17.9756 47.0779 17.9269 47.151 17.8781C47.2241 17.8293 47.2729 17.7805 47.3459 17.7317C47.419 17.6829 47.4677 17.6341 47.5408 17.561C47.5895 17.5122 47.6626 17.4634 47.7114 17.4146C47.7844 17.3659 47.8331 17.2927 47.8819 17.2439C47.9306 17.1951 48.0036 17.1464 48.0524 17.0731L48.2229 16.9024C48.2716 16.8536 48.3204 16.7805 48.3934 16.7317C48.3691 16.6586 48.4178 16.6098 48.4909 16.5366Z"
              fill="url(#paint0_linear_8753_280546)"/>
        <path d="M39.5995 15.0977C39.1123 15.0977 38.6008 14.9026 38.211 14.5368L35.1172 11.4148C34.362 10.6587 34.362 9.41476 35.1172 8.65869C35.8723 7.90262 37.1147 7.90262 37.8699 8.65869L39.5995 10.3904L44.0088 5.97576C44.764 5.21967 46.0063 5.21967 46.7615 5.97576C47.5167 6.73186 47.5167 7.97576 46.7615 8.73183L40.9637 14.5123C40.5983 14.9026 40.0867 15.0977 39.5995 15.0977Z"
              fill="white"/>
    </g>
    <g clip-path="url(#clip1_8753_280546)">
        <path d="M19.5654 3.82819C19.6466 3.82819 19.7394 3.79385 19.7975 3.73663L21.0043 2.53491C21.132 2.40902 21.132 2.21445 21.0043 2.08856C20.8767 1.96267 20.6794 1.96267 20.5517 2.08856L19.3333 3.29028C19.2056 3.41617 19.2056 3.61073 19.3333 3.73663C19.3913 3.79385 19.4841 3.82819 19.5654 3.82819ZM22.0487 5.88827C21.5149 5.88827 21.0855 6.31173 21.0855 6.83819V10.2946C20.9927 11.6794 19.7858 12.7323 18.3701 12.6408C17.0936 12.5606 16.0724 11.5535 15.9912 10.2946V3.14149C15.9912 2.61503 15.5618 2.19157 15.028 2.19157C14.4942 2.19157 14.0648 2.61503 14.0648 3.14149V10.2946C13.972 11.6794 12.7651 12.7323 11.3494 12.6408C10.0729 12.5606 9.05171 11.5535 8.97048 10.2946C8.97048 7.85679 6.96291 5.88827 4.49116 5.88827C2.01941 5.88827 0.0234375 7.86823 0.0234375 10.306C0.0234375 12.7438 2.03101 14.7123 4.50276 14.7123C4.83929 14.7123 5.17582 14.6779 5.50075 14.5978C6.02295 14.4834 6.34787 13.9684 6.22022 13.4533C6.09257 12.9383 5.58198 12.6179 5.05978 12.7438C4.87411 12.7895 4.67683 12.8124 4.47955 12.8124C3.06381 12.8124 1.92657 11.6908 1.92657 10.2946C1.92657 8.89828 3.06381 7.77668 4.47955 7.77668C5.8953 7.77668 7.03254 8.89828 7.03254 10.2946C7.03254 12.7323 9.02851 14.7123 11.5003 14.7123C12.8696 14.7123 14.1693 14.0943 15.0164 13.0299C16.5482 14.9412 19.3565 15.2731 21.2944 13.7738C22.3736 12.9383 23.0003 11.6565 23.0003 10.306V6.83819C23.0119 6.31173 22.5825 5.88827 22.0487 5.88827Z"
              fill="#091E42"/>
        <path d="M18.9592 18.0111C19.4975 18.0111 19.9339 17.5807 19.9339 17.0498C19.9339 16.5188 19.4975 16.0884 18.9592 16.0884C18.4208 16.0884 17.9844 16.5188 17.9844 17.0498C17.9844 17.5807 18.4208 18.0111 18.9592 18.0111Z"
              fill="#091E42"/>
    </g>
    <defs>
        <linearGradient id="paint0_linear_8753_280546" x1="32.8928" y1="15.4317" x2="46.4391" y2="1.90188"
                        gradientUnits="userSpaceOnUse">
            <stop stop-color="#2D2B73"/>
            <stop offset="1" stop-color="#4DF1B6"/>
        </linearGradient>
        <clipPath id="clip0_8753_280546">
            <rect width="20" height="20" fill="white" transform="translate(31)"/>
        </clipPath>
        <clipPath id="clip1_8753_280546">
            <rect width="23" height="16" fill="white" transform="translate(0 2)"/>
        </clipPath>
    </defs>
</svg>
