<svg xmlns="http://www.w3.org/2000/svg" width="53.922" height="54.512" viewBox="0 0 53.922 54.512"><defs><style>.a{fill:#16a34a;}.b{fill:#16a34a;}</style></defs><g transform="translate(-2.77)"><path class="a" d="M31.4,133.443l-2.324,2.324c.108.2.216.414.338.631a29.523,29.523,0,0,0,13.1,13.1c.21.119.347.168.543.276L45.1,147.6l.226-.226a4.424,4.424,0,0,1,6.256,0l4.616,4.616a4.424,4.424,0,0,1-.025,6.281l-.922.908a10.312,10.312,0,0,1-2.574,1.46,10.583,10.583,0,0,1-2.608.651c-6.859.83-13.13-2.3-21.638-10.809C16.673,138.718,17.557,129.241,17.6,128.832a10.569,10.569,0,0,1,.654-2.61,10.255,10.255,0,0,1,1.464-2.571l.907-.923a4.424,4.424,0,0,1,6.282-.027l4.486,4.486A4.423,4.423,0,0,1,31.4,133.443Z" transform="translate(-13.225 -108.48)"/><g transform="translate(2.77)"><path class="b" d="M34.742,149.754c-6.483,0-12.66-3.409-20.653-11.4C9.012,133.277,5.571,127.99,3.863,122.64a18.644,18.644,0,0,1-1.053-7.221,12.155,12.155,0,0,1,.75-3,11.857,11.857,0,0,1,1.695-2.976,1.629,1.629,0,0,1,.116-.131l.907-.923a6,6,0,0,1,8.522-.036l4.486,4.486a6.007,6.007,0,0,1,0,8.486L17.8,122.812a29.159,29.159,0,0,0,4.992,6.833,28.977,28.977,0,0,0,6.712,4.936l1.224-1.3.034-.035.226-.226a6,6,0,0,1,8.486,0l4.616,4.616a6,6,0,0,1-.034,8.519l-.922.908a1.615,1.615,0,0,1-.135.119,11.958,11.958,0,0,1-2.97,1.686l-.016.006a12.125,12.125,0,0,1-2.985.743A19.114,19.114,0,0,1,34.742,149.754Zm-27.058-38.3a8.681,8.681,0,0,0-1.184,2.1,9.021,9.021,0,0,0-.556,2.221,15.979,15.979,0,0,0,.928,5.915c1.07,3.342,3.577,8.559,9.448,14.431,7.346,7.342,12.855,10.476,18.423,10.476a15.991,15.991,0,0,0,1.91-.117l.017,0a9,9,0,0,0,2.213-.555,8.8,8.8,0,0,0,2.1-1.179l.855-.842a2.846,2.846,0,0,0,.016-4.042l-4.616-4.616a2.847,2.847,0,0,0-4.026,0l-.208.208-2.033,2.163a1.577,1.577,0,0,1-1.911.3c-.061-.034-.114-.058-.167-.084-.1-.049-.228-.109-.384-.2a31.057,31.057,0,0,1-13.686-13.682l-.018-.032c-.075-.133-.149-.274-.221-.411-.041-.078-.082-.155-.122-.23a1.576,1.576,0,0,1,.27-1.869l2.324-2.324a2.85,2.85,0,0,0,0-4.026l-4.486-4.487a2.847,2.847,0,0,0-4.043.017Z" transform="translate(-2.77 -95.242)"/><path class="b" d="M356.094,96.188a1.577,1.577,0,0,1-1.577-1.577V84.729a1.577,1.577,0,1,1,3.154,0v9.882A1.577,1.577,0,0,1,356.094,96.188Z" transform="translate(-317.067 -74.299)"/><path class="b" d="M319.571,132.712H309.69a1.577,1.577,0,0,1,0-3.154h9.881a1.577,1.577,0,1,1,0,3.154Z" transform="translate(-275.604 -115.764)"/><path class="b" d="M237.734,30.531a15.392,15.392,0,0,1-2.837-.263,1.577,1.577,0,0,1,.583-3.1,12.113,12.113,0,1,0,2.254-24.015h0A12.115,12.115,0,0,0,227.094,21.06a1.577,1.577,0,0,1,.139,1.164l-.76,2.838,1.4-.375a1.577,1.577,0,1,1,.816,3.046l-3.34.895a1.994,1.994,0,0,1-2.443-2.443L224.028,22a15.261,15.261,0,0,1,13.7-22h0a15.266,15.266,0,0,1,.118,30.531Z" transform="translate(-199.075)"/></g></g></svg>