<svg xmlns="http://www.w3.org/2000/svg" width="50.477" height="50.477" viewBox="0 0 50.477 50.477"><defs><style>.a{fill:#16a34a;}.b{fill:#16a34a;}</style></defs><path class="a" d="M128.34,88.911a4,4,0,0,0-4,4v8.48H109.957v-8.48a4,4,0,0,0-7.993,0v24.953a4,4,0,0,0,7.993,0v-8.48h14.387v8.48a4,4,0,1,0,7.993,0V92.907A4,4,0,0,0,128.34,88.911Z" transform="translate(-91.912 -80.145)"/><path class="b" d="M115.1,110.063a5.451,5.451,0,0,1-5.445-5.445V97.586H98.163v7.032a5.445,5.445,0,0,1-10.89,0V79.665a5.445,5.445,0,0,1,10.89,0V86.7h11.49V79.665a5.445,5.445,0,0,1,10.89,0v24.953A5.451,5.451,0,0,1,115.1,110.063ZM96.714,94.689H111.1a1.448,1.448,0,0,1,1.448,1.448v8.48a2.548,2.548,0,0,0,5.1,0V79.665a2.548,2.548,0,0,0-5.1,0v8.48a1.448,1.448,0,0,1-1.448,1.448H96.714a1.448,1.448,0,0,1-1.448-1.448v-8.48a2.548,2.548,0,0,0-5.1,0v24.953a2.548,2.548,0,0,0,5.1,0v-8.48A1.448,1.448,0,0,1,96.714,94.689Z" transform="translate(-78.669 -66.903)"/><path class="b" d="M45.2,50.477H43.488a1.448,1.448,0,1,1,0-2.9H45.2a2.383,2.383,0,0,0,2.38-2.38V5.277A2.383,2.383,0,0,0,45.2,2.9H5.277A2.383,2.383,0,0,0,2.9,5.277V45.2a2.383,2.383,0,0,0,2.38,2.38H35.523a1.448,1.448,0,0,1,0,2.9H5.277A5.283,5.283,0,0,1,0,45.2V5.277A5.283,5.283,0,0,1,5.277,0H45.2a5.283,5.283,0,0,1,5.277,5.277V45.2A5.283,5.283,0,0,1,45.2,50.477Z"/></svg>