<svg xmlns="http://www.w3.org/2000/svg" width="121.334" height="88.444" viewBox="0 0 121.334 88.444">
  <g id="Group_3519" data-name="Group 3519" transform="translate(0.002 -0.517)">
    <g id="Ellipse_747" data-name="Ellipse 747" transform="translate(36.381 75.579)">
      <g id="Group_3520" data-name="Group 3520">
        <ellipse id="Ellipse_748" data-name="Ellipse 748" cx="24.254" cy="6.691" rx="24.254" ry="6.691" fill="none"/>
      </g>
      <g id="Group_3521" data-name="Group 3521" transform="translate(0 0)">
        <path id="Path_11291" data-name="Path 11291" d="M67.754,103.649c-9.749,0-24.254-1.782-24.254-6.691S58,90.268,67.754,90.268s24.254,1.782,24.254,6.691S77.5,103.649,67.754,103.649Zm0-11.291c-14.34,0-22.163,3.038-22.163,4.6s7.823,4.6,22.163,4.6,22.163-3.038,22.163-4.6S82.094,92.359,67.754,92.359Z" transform="translate(-43.5 -90.268)" fill="#16a34a"/>
      </g>
    </g>
    <g id="Background" transform="translate(-0.002 16.821)">
      <path id="Path_11292" data-name="Path 11292" d="M33.421,70.869a5.086,5.086,0,0,1,0-10.172H5.085a5.086,5.086,0,1,1,0-10.172H34.147a5.086,5.086,0,0,0,0-10.172H15.983a5.086,5.086,0,1,1,0-10.172H45.045a5.086,5.086,0,1,1,0-10.172h71.2a5.086,5.086,0,0,1,0,10.172H87.184a5.086,5.086,0,0,1,0,10.172h15.984a5.086,5.086,0,0,1,0,10.172H95.776c-3.541,0-6.412,2.277-6.412,5.085S93.723,60.7,93.723,60.7a5.086,5.086,0,0,1,0,10.172H33.421ZM111.16,45.44a5.086,5.086,0,1,1,5.086,5.086h0A5.086,5.086,0,0,1,111.16,45.44Z" transform="translate(0.002 -20.011)" fill="#e1ebff"/>
    </g>
    <g id="cloud" transform="translate(8.942 9.236)">
      <path id="Path_11293" data-name="Path 11293" d="M20.678,39.074h-.688a7.965,7.965,0,0,1-.163-15.93h.247A12.145,12.145,0,0,1,31.954,12.192a12.19,12.19,0,0,1,11.96,11.96,8.314,8.314,0,0,1,7.335,8.009c0,3.251-2.408,6.91-5.261,6.91H26.147" transform="translate(-10.897 -11.147)" fill="#fff"/>
      <path id="Path_11294" data-name="Path 11294" d="M19.691,39.915a9.011,9.011,0,0,1-.742-17.991A13.189,13.189,0,0,1,31.732,10.942,13.2,13.2,0,0,1,44.707,23.023a9.437,9.437,0,0,1,7.382,8.933c0,3.679-2.755,7.955-6.306,7.955H25.942a1.045,1.045,0,0,1,0-2.091H45.783c2.088,0,4.215-2.96,4.215-5.864a7.273,7.273,0,0,0-6.356-6.965l-.96-.062-.018-.962A11.11,11.11,0,0,0,31.73,13.033,11.089,11.089,0,0,0,20.909,23.042l-.093.943H19.637a6.92,6.92,0,1,0,.137,13.839h.7a1.045,1.045,0,1,1,0,2.091h-.782Z" transform="translate(-10.692 -10.942)" fill="#a4c3fe"/>
    </g>
    <g id="Shape" transform="translate(31.241 4.469)">
      <g id="Group_3522" data-name="Group 3522" transform="translate(1.045 1.045)">
        <path id="Path_11295" data-name="Path 11295" d="M66.624,81.821a3.3,3.3,0,0,1-2.577-1.227c-8.48-10.455-14.923-19.66-19.152-27.36-4.174-7.6-6.29-13.9-6.29-18.726a28.016,28.016,0,1,1,56.032,0c0,4.827-2.116,11.128-6.29,18.726-4.229,7.7-10.673,16.9-19.152,27.36a3.348,3.348,0,0,1-.487.487A3.275,3.275,0,0,1,66.624,81.821Z" transform="translate(-38.605 -6.492)" fill="#fff"/>
      </g>
      <g id="Group_3523" data-name="Group 3523">
        <path id="Path_11296" data-name="Path 11296" d="M66.42,80.571a2.269,2.269,0,0,0,1.759-.84c8.44-10.407,14.849-19.56,19.049-27.205,4.088-7.442,6.16-13.573,6.16-18.222a26.971,26.971,0,1,0-53.942,0c0,4.649,2.072,10.78,6.16,18.222,4.2,7.646,10.608,16.8,19.049,27.205a2.261,2.261,0,0,0,1.765.84m0,2.091a4.351,4.351,0,0,1-3.389-1.613Q37.355,49.39,37.355,34.3a29.062,29.062,0,1,1,58.123,0q0,15.086-25.676,46.745a4.359,4.359,0,0,1-3.383,1.613Z" transform="translate(-37.355 -5.242)" fill="#16a34a"/>
      </g>
    </g>
    <g id="Oval" transform="translate(45.772 18.999)">
      <g id="Group_3524" data-name="Group 3524" transform="translate(1.045 1.045)">
        <path id="Path_11297" data-name="Path 11297" d="M69.464,50.837A13.486,13.486,0,1,1,79,46.887,13.436,13.436,0,0,1,69.464,50.837Z" transform="translate(-55.979 -23.866)" fill="#f3f7ff"/>
      </g>
      <g id="Group_3525" data-name="Group 3525">
        <path id="Path_11298" data-name="Path 11298" d="M69.26,49.587A12.423,12.423,0,1,0,62.5,47.6a12.357,12.357,0,0,0,6.756,1.992m0,2.091a14.458,14.458,0,0,1-7.893-2.329,14.533,14.533,0,1,1,7.893,2.329Z" transform="translate(-54.729 -22.616)" fill="#16a34a"/>
      </g>
    </g>
    <g id="Star" transform="translate(85.413 0.517)">
      <path id="Path_11299" data-name="Path 11299" d="M108.621,13.507h0a1.048,1.048,0,0,1-.972-.657l-.516-1.291h0a5.509,5.509,0,0,0-3.059-3.06l-1.29-.515a1.046,1.046,0,0,1,0-1.942l1.291-.516a5.522,5.522,0,0,0,3.059-3.06l.516-1.29a1.046,1.046,0,0,1,.971-.657h0a1.047,1.047,0,0,1,.971.658l.516,1.291a5.512,5.512,0,0,0,3.059,3.059l1.29.515a1.046,1.046,0,0,1,0,1.942l-1.291.516a5.519,5.519,0,0,0-3.059,3.06l-.515,1.29A1.047,1.047,0,0,1,108.621,13.507Zm-2.829-6.5a7.641,7.641,0,0,1,2.829,2.829,7.635,7.635,0,0,1,2.829-2.829,7.629,7.629,0,0,1-2.829-2.83A7.645,7.645,0,0,1,105.792,7.012Z" transform="translate(-102.127 -0.517)" fill="#a4c3fe"/>
    </g>
    <g id="cloud-2" transform="translate(69.429 47.017)">
      <path id="Path_11300" data-name="Path 11300" d="M90.58,76.981h-.5a5.813,5.813,0,0,1,0-11.625h.062a8.7,8.7,0,0,1,17.368.738,6.064,6.064,0,0,1,5.345,5.844c0,2.373-1.756,5.042-3.833,5.042H94.566" transform="translate(-83.221 -56.32)" fill="#fff"/>
      <path id="Path_11301" data-name="Path 11301" d="M108.815,77.823H94.362a1.045,1.045,0,0,1,0-2.091h14.454c1.355,0,2.788-2.055,2.788-4a5.043,5.043,0,0,0-4.423-4.806l-.906-.108-.016-.911a7.653,7.653,0,0,0-15.282-.656l-.092.943h-.948a4.768,4.768,0,1,0-.062,9.535h.5a1.045,1.045,0,0,1,0,2.091h-.5a6.859,6.859,0,0,1-.851-13.664,9.729,9.729,0,0,1,19.274.852,7.16,7.16,0,0,1,5.4,6.692C113.694,74.551,111.563,77.823,108.815,77.823Z" transform="translate(-83.016 -56.116)" fill="#a4c3fe"/>
    </g>
  </g>
</svg>
