<svg width="432" height="339" viewBox="0 0 432 339" fill="none" xmlns="http://www.w3.org/2000/svg">
<g clip-path="url(#clip0_9_1287)">
<path d="M0 339H432V0H0V339ZM139.298 32.4574C140.426 33.1968 142.542 41.5996 142.824 43.2766C142.966 44.1602 142.842 45.9814 142.824 46.883C144.147 49.6238 146.633 52.7974 148.114 55.8989C149.26 58.2792 150.142 60.6954 151.641 63.1117C163.067 74.3276 171.742 80.783 181.616 93.766C190.785 83.1632 208.206 81.2338 219.086 68.9721C229.947 56.7104 241.867 50.7057 255.673 43.2766C259.976 43.7454 263.643 46.4502 268.016 46.883C266.059 59.5955 270.785 75.3373 266.253 88.3564C275.898 91.2956 285.332 86.7155 297.41 87.7613C309.506 88.8072 318.957 79.2142 331.617 77.6635C344.295 76.1307 355.845 81.7026 366.759 86.5532C369.492 99.1395 358.137 105.847 355.598 116.612C353.059 127.377 342.92 133.436 343.837 144.255C343.131 133.995 329.149 150.08 333.257 155.074C322.184 160.322 308.272 173.179 310.335 187.532C315.166 185.927 318.481 192.779 322.678 189.335C323.136 193.933 325.217 197.468 322.678 201.957C327.65 203.652 339.605 207.529 335.02 214.58C343.149 218.421 347.046 214.399 354.416 212.777C358.754 211.821 360.411 214.49 364.996 210.973C368.364 216.69 377.991 230.195 366.759 232.612C359.935 237.12 350.625 238.941 343.837 245.234C338.247 255.62 319.327 272.949 310.335 277.691C314.514 279.044 319.151 282.65 317.388 288.511C305.592 289.466 294.307 292.604 282.122 292.117C277.415 292.117 272.724 292.117 268.016 292.117C267.135 292.117 265.371 292.117 264.49 292.117C247.88 299.33 222.506 292.117 204.539 292.117C181.052 292.117 155.238 300.899 132.245 292.117C124.98 289.34 119.92 286.112 112.849 281.298C97.6849 270.984 89.9971 261.391 87.7753 244.837C85.5536 228.266 85.4831 198.081 84.6367 178.516C83.7904 158.951 89.4504 145.554 84.6367 129.83C92.5185 145.121 101.864 112.591 100.506 100.979C107.207 105.451 116.305 97.3363 112.849 90.1596C115.282 87.7072 117.31 90.7546 119.902 88.3564C121.383 85.4172 122.071 82.1173 123.429 79.3404C128.613 60.5331 118.791 52.4909 119.902 34.2606C127.22 36.154 133.708 25.0283 139.298 32.4574Z"/>
<path d="M123.429 79.3404C126.761 72.5244 127.837 69.0622 130.358 61.1823C132.88 53.2843 122.159 51.0483 121.665 45.0798C121.26 40.1931 129.847 33.2869 134.008 32.4574C134.766 32.3132 138.681 32.0427 139.298 32.4574C133.708 25.0283 127.22 36.154 119.902 34.2606C118.791 52.4909 128.613 60.5331 123.429 79.3404Z" stroke="#F4EFD9" stroke-width="0.3"/>
<path d="M121.665 45.0798C126.444 44.7011 128.242 39.003 132.245 41.4734C131.152 37.9752 134.361 35.8294 134.008 32.4574C129.847 33.2869 121.26 40.1931 121.665 45.0798Z" stroke="#D2C1A1" stroke-width="0.3"/>
<path d="M121.665 45.0798C122.159 51.0484 132.88 53.2843 130.358 61.1823C127.837 69.0622 126.761 72.5244 123.429 79.3404C122.071 82.1173 121.383 85.4172 119.902 88.3564C114.489 99.1755 106.096 106.46 101.74 118.47C97.3675 130.461 95.2869 146.077 91.6898 158.681C90.4555 160.827 99.3776 147.032 98.7252 138.828C98.0904 130.641 104.385 120.94 107.559 113.601C110.063 117.694 108.987 120.67 114.612 120.814C112.602 125.376 111.615 130.226 111.086 135.239C106.113 128.604 107.383 143.624 100.506 138.846C101.688 144.147 98.5842 148.186 98.7429 153.271C108.582 156.048 106.713 179.436 107.559 191.138C103.733 179.237 100.665 185.639 100.541 194.781C100.436 203.941 104.932 210.703 104.033 219.989C115.476 208.683 105.232 239.5 112.849 247.037C109.058 249.724 106.096 250.788 105.796 256.053C102.675 250.68 103.803 251.221 100.506 256.053C100.189 250.175 94.4052 246.082 95.2163 239.824C92.1306 241.321 94.0526 246.027 93.4531 248.84C97.7025 260.309 102.781 273.256 112.849 281.298C119.92 286.112 124.98 289.34 132.245 292.117C131.187 291.522 129.3 289.845 128.718 288.511C131.064 288.511 133.426 288.511 135.771 288.511C133.514 286.707 133.462 282.434 130.482 281.298C137.834 281.713 137.834 276.195 142.824 283.101C145.875 276.7 149.648 270.587 149.878 263.266C154.903 272.444 151.447 252.591 153.404 243.431C155.361 234.253 156.384 221.143 158.676 210.955C160.968 200.767 155.943 186.594 158.694 176.713C158.712 175.162 158.465 172.385 158.694 169.5C159.558 158.699 156.913 147.609 156.931 137.043C156.948 126.476 152.893 114.971 153.404 104.585C153.915 94.1987 152.046 83.2173 146.739 75.3373C141.432 67.4574 148.22 57.2874 148.114 55.8989C146.633 52.7974 144.147 49.6238 142.824 46.883C142.507 60.0823 141.484 73.0112 139.298 86.5532C134.184 74.3456 142.013 52.6712 128.718 46.883C135.101 48.4518 131.98 38.7506 137.535 39.6702C138.504 41.4914 141.026 42.2668 142.824 43.2766C142.542 41.5996 140.426 33.1968 139.298 32.4574C138.681 32.0427 134.766 32.3132 134.008 32.4574C134.361 35.8294 131.152 37.9752 132.245 41.4734C128.242 39.003 126.444 44.7011 121.665 45.0798ZM151.641 129.83C152.487 140.198 155.079 147.934 153.404 158.681C151.747 150.548 147.532 137.854 151.641 129.83ZM119.902 162.287C119.902 176.713 119.902 191.138 119.902 205.564C123.711 195.646 120.713 182.97 123.429 173.106C127.819 186.793 122.864 201.849 125.192 216.383C115.811 199.036 125.068 231.963 125.192 239.824C131.804 234.361 133.585 239.518 139.298 241.628C137.834 247.939 134.378 250.301 139.298 256.053C129.706 257.153 132.527 247.903 132.245 239.824C129.089 244.693 130.781 248.552 126.955 241.628C129.194 253.493 132.897 266.133 132.245 277.691C124.434 280.757 113.713 274.842 114.612 265.069C130.023 272.733 124.91 249.345 123.429 238.021C121.947 226.697 112.549 212.182 116.252 200.028C119.937 187.875 113.255 171.664 119.902 162.287ZM153.404 176.713C153.404 185.134 153.404 193.537 153.404 201.957C150.6 195.466 150.389 183.078 153.404 176.713ZM151.641 221.793C151.623 241.862 149.507 260.561 142.824 279.495C134.872 276.664 130.482 265.772 135.771 257.856C137.588 260.868 133.673 268.297 137.535 272.282C141.678 268.441 137.094 260.543 141.061 256.053C145.945 260.327 139.58 266.782 141.061 272.282C146.633 265.249 146.192 254.502 146.351 245.234C140.603 262.364 139.139 232.305 146.351 229.005C149.384 242.601 148.978 227.4 151.641 221.793Z" stroke="#A7A164" stroke-width="0.3"/>
<path d="M142.824 46.883C142.842 45.9814 142.966 44.1602 142.824 43.2766C141.026 42.2668 138.504 41.4914 137.535 39.6702C131.98 38.7506 135.101 48.4518 128.718 46.883C142.013 52.6712 134.184 74.3456 139.298 86.5532C141.484 73.0112 142.507 60.0823 142.824 46.883Z" stroke="#767133" stroke-width="0.3"/>
<path d="M151.641 63.1117C157.424 72.4522 165.13 82.3157 172.8 90.1596C175.198 92.6119 177.72 94.7036 179.853 97.3723C182.727 100.943 184.702 103.846 186.906 108.191C197.68 102.566 199.531 86.2286 211.733 81.2879C223.917 76.3291 228.237 62.7511 239.804 57.7021C241.691 56.8727 243.207 56.5841 245.094 55.8989C248.761 54.5826 258.689 47.9649 262.727 50.4894C266.024 52.545 262.727 80.7109 262.727 86.5532C262.727 90.989 263.661 96.6511 262.727 100.979C269.533 103.07 274.382 92.1251 284.009 92.089C293.654 92.071 306.367 92.5037 315.642 88.3744C324.917 84.2451 336.378 85.0205 345.6 86.5532C352.353 86.6794 358.807 87.7613 364.996 90.1596C363.956 97.192 358.719 103.233 354.416 108.191C354.028 108.732 353.253 109.724 352.653 109.995C347.998 119.75 344.348 131.543 338.547 140.649C333.098 149.214 323.7 154.876 317.388 162.287C313.438 167.715 306.279 185.476 299.755 187.532C313.103 192.761 322.113 208.485 335.02 214.58C339.605 207.529 327.65 203.652 322.678 201.957C325.217 197.468 323.136 193.933 322.678 189.335C318.481 192.779 315.166 185.927 310.335 187.532C308.272 173.179 322.184 160.322 333.257 155.074C329.149 150.08 343.131 133.995 343.837 144.255C342.92 133.436 353.059 127.377 355.598 116.612C358.137 105.847 369.492 99.1395 366.759 86.5532C355.845 81.7026 344.295 76.1307 331.617 77.6635C318.957 79.2142 309.506 88.8072 297.41 87.7613C285.332 86.7155 275.898 91.2956 266.253 88.3564C270.785 75.3373 266.059 59.5955 268.016 46.883C263.643 46.4502 259.976 43.7454 255.673 43.2766C241.867 50.7057 229.947 56.7104 219.086 68.9721C208.206 81.2338 190.785 83.1632 181.616 93.766C171.742 80.783 163.067 74.3276 151.641 63.1117Z" stroke="#EDF4DD" stroke-width="0.3"/>
<path d="M245.094 55.8989C240.915 58.9283 237.988 76.4012 227.461 77.5372C227.25 86.2467 225.151 102.836 216.882 97.3723C216.582 102.277 217.957 107.596 215.118 111.798C208.824 107.308 209.617 119.984 204.539 111.798C202.405 114.322 202.811 117.676 202.776 120.814C199.073 131.579 197.292 160.863 211.592 158.681C212.05 152.586 214.783 135.167 220.972 123.194C227.161 111.221 232.222 96.0921 239.399 84.3353C246.575 72.5965 255.673 61.2184 262.727 50.4894C258.689 47.9649 248.761 54.5826 245.094 55.8989Z" stroke="#3C601F" stroke-width="0.3"/>
<path d="M211.592 158.681C210.851 168.58 203.569 165.515 208.065 171.303C209.088 164.451 235.749 162.936 220.408 155.074C234.761 151.017 233.174 130.605 234.514 119.011C243.472 119.209 246.434 129.127 245.094 137.043C249.96 135.041 251.971 124.564 245.094 124.42C246.928 114.304 253.752 106.785 257.437 97.3723C252.411 98.5264 250.137 107.128 243.331 106.388C252.799 100.979 247.439 77.5192 259.2 90.1596C259.2 84.1549 259.2 78.1323 259.2 72.1277C263.767 75.0849 258.036 83.7222 262.727 86.5532C262.727 80.7109 266.024 52.545 262.727 50.4894C255.673 61.2184 246.575 72.5965 239.399 84.3353C232.222 96.0921 227.161 111.221 220.972 123.194C214.783 135.167 212.05 152.586 211.592 158.681Z" stroke="#7B9C5F" stroke-width="0.3"/>
<path d="M158.694 169.5C159.293 166.813 160.51 161.025 162.22 158.681C163.208 163.225 160.122 170.041 163.984 173.106C167.651 153.74 161.956 135.167 162.22 115.404C170.314 146.78 172.465 181.095 167.51 214.58C163.702 209.603 166.717 201.074 165.747 194.745C164.107 214.219 159.47 234.397 156.931 254.25C152.699 247.091 157.477 236.867 158.676 228.987C159.893 221.125 161.268 207.89 160.457 200.154C159.646 192.419 162.185 172.547 158.694 176.713C155.943 186.594 160.968 200.767 158.676 210.955C156.384 221.143 155.361 234.253 153.404 243.431C151.447 252.591 154.903 272.444 149.878 263.266C149.648 270.587 145.875 276.7 142.824 283.101C137.834 276.195 137.834 281.713 130.482 281.298C133.462 282.434 133.514 286.707 135.771 288.511C149.578 288.168 162.943 283.065 176.327 275.888C172.871 282.993 184.244 277.313 188.669 274.085C202.617 256.756 208.118 218.493 209.829 196.548C210.216 191.589 210.552 185.242 209.829 180.319C202.123 177.957 209.564 176.532 209.829 174.91C208.118 173.521 209.229 172.8 208.065 171.303C203.569 165.515 210.851 168.58 211.592 158.681C197.292 160.863 199.073 131.579 202.776 120.814C201.647 122.238 198.932 123.428 197.486 124.42C197.327 118.452 191.826 122.04 188.669 113.601C188.281 112.934 188.987 110.752 188.669 109.995C188.475 109.526 187.206 108.787 186.906 108.191C184.702 103.846 182.727 100.943 179.853 97.3723C176.697 95.5872 176.009 99.9148 172.359 96.0019C168.709 92.089 172.641 89.6727 172.8 90.1596C165.13 82.3157 157.424 72.4522 151.641 63.1117C150.142 60.6954 149.26 58.2792 148.114 55.8989C148.22 57.2874 141.432 67.4574 146.739 75.3373C152.046 83.2173 153.915 94.1987 153.404 104.585C152.893 114.971 156.948 126.476 156.931 137.043C156.913 147.609 159.558 158.699 158.694 169.5ZM165.747 93.766C168.551 105.901 177.649 110.518 179.853 124.42C179.06 104.152 193.501 137.169 186.906 144.255C183.256 137.547 176.944 131.561 178.09 122.617C175.11 132.228 174.193 127.251 174.563 119.011C167.246 122.473 165.095 100.6 165.747 93.766ZM190.433 137.043C190.662 127.071 185.055 118.614 181.616 109.995C188.44 115.927 198.826 128.838 190.433 137.043ZM199.249 160.484C200.942 167.39 205.808 178.48 207.307 183.511C208.824 188.524 200.977 204.536 197.486 192.941C197.292 200.876 198.403 209.08 195.722 216.383C196.287 202.733 193.906 183.673 193.959 169.5C202.317 183.15 197.133 166.038 199.249 160.484ZM190.433 173.106C194.224 181.852 191.244 192.455 192.196 201.957C190.538 193.825 186.324 181.131 190.433 173.106ZM186.906 216.383C185.813 225.85 188.37 234.289 188.669 243.431C192.355 241.267 188.246 233.621 193.959 232.612C191.914 239.59 191.103 263.356 181.616 256.053C183.697 268.008 176.115 258.433 178.09 270.479C168.427 257.063 189.128 235.028 186.906 216.383Z" stroke="#6F6B33" stroke-width="0.3"/>
<path d="M239.804 57.7021C239.434 58.3873 239.804 59.5053 239.804 59.5053C233.192 67.8 228.114 73.7686 218.645 79.3404C218.31 80.0797 218.645 81.1436 218.645 81.1436C219.597 90.2137 216.088 101.682 211.592 108.191C207.607 100.997 209.106 94.2168 211.592 86.5532C205.561 88.5908 207.519 96.3986 201.012 97.3723C210.04 99.9509 202.687 112.808 199.249 120.814C196.763 116.847 197.327 114.863 195.722 109.995C193.148 110.986 191.879 114.322 188.669 113.601C191.826 122.04 197.327 118.452 197.486 124.42C198.932 123.428 201.647 122.238 202.776 120.814C202.811 117.676 202.405 114.322 204.539 111.798C209.617 119.984 208.824 107.308 215.118 111.798C217.957 107.596 216.582 102.277 216.882 97.3723C225.151 102.836 227.25 86.2467 227.461 77.5372C237.988 76.4012 240.915 58.9283 245.094 55.8989C243.207 56.5842 241.691 56.8727 239.804 57.7021Z" stroke="#5C8136" stroke-width="0.3"/>
<path d="M186.906 108.191C187.206 108.787 188.475 109.526 188.669 109.995C199.372 111.563 203.975 81.901 218.645 81.1436C218.645 81.1436 218.31 80.0797 218.645 79.3404C221.325 73.2997 233.597 61.579 239.804 59.5053C239.804 59.5053 239.434 58.3873 239.804 57.7021C228.237 62.7511 223.917 76.3291 211.733 81.2879C199.531 86.2286 197.68 102.566 186.906 108.191Z" stroke="#A1BA7E" stroke-width="0.3"/>
<path d="M218.645 79.3404C228.114 73.7686 233.192 67.8 239.804 59.5053C233.597 61.579 221.325 73.2997 218.645 79.3404Z" stroke="#7C9B4D" stroke-width="0.3"/>
<path d="M208.065 171.303C209.229 172.8 208.118 173.521 209.829 174.91C214.184 178.444 220.602 175.919 225.698 176.713C220.972 169.338 232.469 164.505 227.461 156.878C235.502 156.084 239.31 145.86 246.857 144.255C243.719 155.579 231.429 167.462 229.224 176.713C228.378 169.392 242.643 168.094 244.653 161.836C246.681 155.579 251.53 147.176 253.893 140.631C256.255 134.085 260.611 123.483 266.253 120.814C268.104 129.469 274.117 131.236 275.069 140.649C278.931 136.574 287.994 137.403 283.886 129.83C292.579 130.822 300.601 122.148 303.282 115.404C308.801 119.534 319.557 111.023 315.624 104.585C326.328 104.333 337.136 98.9592 342.073 90.1596C349.514 96.1642 350.89 90.953 357.943 90.1596C358.948 97.174 347.592 95.7855 343.837 100.979C348.492 101.826 351.207 114.07 349.127 100.979C354.646 101.736 352.97 105.739 354.416 108.191C358.719 103.233 363.956 97.192 364.996 90.1596C358.807 87.7613 352.353 86.6794 345.6 86.5532C343.255 86.4991 340.892 86.5532 338.547 86.5532C329.907 87.9777 320.138 98.4002 312.627 100.33C305.115 102.277 295.47 118.325 290.939 108.191C285.332 113.601 284.873 122.707 276.833 124.42C276.603 118.163 276.603 112.086 278.596 106.388C275.969 102.097 271.596 108.823 269.78 104.585C268.387 105.108 267.769 106.1 266.253 106.388C268.651 107.29 273.095 108.065 275.069 109.995C270.22 115.512 265.724 114.701 259.2 115.404C267.346 111.365 253.84 109.472 260.963 102.782C261.316 102.223 262.638 101.393 262.727 100.979C263.661 96.6511 262.727 90.989 262.727 86.5532C258.036 83.7222 263.767 75.0849 259.2 72.1277C259.2 78.1323 259.2 84.155 259.2 90.1596C247.439 77.5192 252.799 100.979 243.331 106.388C250.137 107.128 252.411 98.5264 257.437 97.3723C253.752 106.785 246.928 114.304 245.094 124.42C251.971 124.564 249.96 135.041 245.094 137.043C246.434 129.127 243.472 119.209 234.514 119.011C233.174 130.605 234.761 151.017 220.408 155.074C235.749 162.936 209.088 164.451 208.065 171.303Z" stroke="#4D722B" stroke-width="0.3"/>
<path d="M188.669 109.995C188.987 110.752 188.281 112.934 188.669 113.601C191.879 114.322 193.148 110.986 195.722 109.995C197.327 114.863 196.763 116.847 199.249 120.814C202.687 112.808 210.04 99.9509 201.012 97.3723C207.519 96.3986 205.561 88.5908 211.592 86.5532C209.106 94.2168 207.607 100.997 211.592 108.191C216.088 101.682 219.597 90.2137 218.645 81.1436C203.975 81.901 199.372 111.563 188.669 109.995Z" stroke="#7C9F56" stroke-width="0.3"/>
<path d="M262.727 100.979C262.638 101.393 261.316 102.223 260.963 102.782C260.029 107.218 263.908 105.505 266.253 106.388C267.769 106.1 268.387 105.108 269.78 104.585C277.326 101.808 283.992 96.7773 292.702 97.3723C286.848 103.485 273.095 110.049 280.359 120.814C292.579 96.9937 314.496 89.3481 338.547 86.5532C340.892 86.5532 343.255 86.4991 345.6 86.5532C336.378 85.0205 324.917 84.2451 315.642 88.3744C306.367 92.5037 293.654 92.071 284.009 92.089C274.382 92.125 269.533 103.07 262.727 100.979Z" stroke="#92AE6F" stroke-width="0.3"/>
<path d="M269.78 104.585C271.596 108.823 275.969 102.097 278.596 106.388C276.603 112.086 276.603 118.163 276.833 124.42C284.873 122.707 285.332 113.601 290.939 108.191C295.47 118.325 305.115 102.277 312.627 100.33C320.138 98.4002 329.907 87.9777 338.547 86.5532C314.496 89.3481 292.579 96.9937 280.359 120.814C273.095 110.049 286.848 103.485 292.702 97.3723C283.992 96.7773 277.326 101.808 269.78 104.585Z" stroke="#678F3D" stroke-width="0.3"/>
<path d="M112.849 281.298C102.781 273.256 97.7025 260.309 93.4531 248.84C84.7602 225.363 84.9012 182.555 91.6898 158.681C95.2869 146.077 97.3675 130.461 101.74 118.47C106.096 106.46 114.489 99.1755 119.902 88.3564C117.31 90.7546 115.282 87.7072 112.849 90.1596C116.305 97.3363 107.207 105.451 100.506 100.979C101.864 112.591 92.5185 145.121 84.6367 129.83C89.4504 145.554 83.7904 158.951 84.6367 178.516C85.4831 198.081 85.5536 228.266 87.7753 244.837C89.9971 261.391 97.6849 270.984 112.849 281.298Z" stroke="#F6F5E2" stroke-width="0.3"/>
<path d="M179.853 97.3723C177.72 94.7036 175.198 92.6119 172.8 90.1596C172.641 89.6727 168.709 92.089 172.359 96.0019C176.009 99.9148 176.697 95.5872 179.853 97.3723Z" stroke="#4C4D21" stroke-width="0.3"/>
<path d="M229.224 176.713C229.877 177.109 231.869 176.731 232.751 176.713C238.887 176.55 243.983 174.801 250.384 174.91C253.593 173.864 257.878 170.113 260.963 167.697C267.505 162.558 276.409 156.481 280.359 149.665C276.039 146.942 272.636 156.409 269.78 151.468C293.584 131.579 316.242 113.493 343.837 100.979C347.592 95.7855 358.948 97.174 357.943 90.1596C350.89 90.953 349.514 96.1642 342.073 90.1596C337.136 98.9592 326.328 104.333 315.624 104.585C319.557 111.023 308.801 119.534 303.282 115.404C300.601 122.148 292.579 130.822 283.886 129.83C287.994 137.403 278.931 136.574 275.069 140.649C274.117 131.236 268.104 129.469 266.253 120.814C260.611 123.483 256.255 134.085 253.893 140.631C251.53 147.176 246.681 155.579 244.653 161.836C242.643 168.094 228.378 169.392 229.224 176.713ZM268.016 155.074C265.618 161.71 257.26 166.849 250.384 169.5C255.286 163.153 261.986 159.492 268.016 155.074Z" stroke="#35571D" stroke-width="0.3"/>
<path d="M165.747 93.766C165.095 100.6 167.246 122.473 174.563 119.011C174.193 127.251 175.11 132.228 178.09 122.617C176.944 131.561 183.256 137.547 186.906 144.255C193.501 137.169 179.06 104.152 179.853 124.42C177.649 110.518 168.551 105.901 165.747 93.766Z" stroke="#8A854A" stroke-width="0.3"/>
<path d="M260.963 167.697C262.638 167.318 271.208 168.887 275.069 171.303C277.256 159.528 293.407 157.563 297.992 147.862C297.216 152.28 300.831 155.994 303.282 158.681C308.395 144.418 324.952 148.908 331.494 138.846C325.71 136.862 315.078 144.273 308.571 140.649C321.055 139.513 326.909 130.371 335.02 124.42C334.315 146.636 343.026 110.175 352.653 109.995C353.253 109.724 354.028 108.732 354.416 108.191C352.97 105.739 354.646 101.736 349.127 100.979C351.207 114.07 348.492 101.826 343.837 100.979C316.242 113.493 293.584 131.579 269.78 151.468C272.636 156.409 276.039 146.942 280.359 149.665C276.409 156.481 267.505 162.558 260.963 167.697Z" stroke="#7FA161" stroke-width="0.3"/>
<path d="M266.253 106.388C263.908 105.505 260.029 107.218 260.963 102.782C253.84 109.472 267.346 111.365 259.2 115.404C265.724 114.701 270.22 115.512 275.069 109.995C273.095 108.065 268.651 107.29 266.253 106.388Z" stroke="#6C9049" stroke-width="0.3"/>
<path d="M190.433 137.043C198.826 128.838 188.44 115.927 181.616 109.995C185.055 118.614 190.662 127.071 190.433 137.043Z" stroke="#85874D" stroke-width="0.3"/>
<path d="M260.963 167.697C257.878 170.113 253.593 173.864 250.384 174.91C258.265 175.036 264.455 177.578 271.543 180.319C273.782 180.662 280.095 178.516 283.886 180.319C282.951 183.204 279.037 181.617 276.833 182.122C284.961 186.829 290.568 183.926 299.755 187.532C306.279 185.476 313.438 167.715 317.388 162.287C323.277 154.191 332.799 148.331 338.547 140.649C344.348 131.543 347.998 119.75 352.653 109.995C343.026 110.175 334.315 146.636 335.02 124.42C326.909 130.371 321.055 139.513 308.571 140.649C315.078 144.273 325.71 136.862 331.494 138.846C324.952 148.908 308.395 144.418 303.282 158.681C300.831 155.994 297.216 152.28 297.992 147.862C293.407 157.563 277.256 159.528 275.069 171.303C271.208 168.887 262.638 167.318 260.963 167.697ZM305.045 162.287C306.456 167.805 302.418 172.583 297.992 174.91C295.664 170.87 299.826 162.323 305.045 162.287Z" stroke="#587736" stroke-width="0.3"/>
<path d="M91.6898 158.681C84.9012 182.555 84.7602 225.363 93.4531 248.84C94.0526 246.027 92.1306 241.321 95.2163 239.824C94.4052 246.082 100.189 250.175 100.506 256.053C103.803 251.221 102.675 250.68 105.796 256.053C106.096 250.788 109.058 249.724 112.849 247.037C105.232 239.5 115.476 208.683 104.033 219.989C104.932 210.703 100.436 203.941 100.541 194.781C100.665 185.639 103.733 179.237 107.559 191.138C106.713 179.436 108.582 156.048 98.7429 153.271C98.5842 148.186 101.688 144.147 100.506 138.846C107.383 143.624 106.113 128.604 111.086 135.239C111.615 130.226 112.602 125.376 114.612 120.814C108.987 120.67 110.063 117.694 107.559 113.601C104.385 120.94 98.0904 130.641 98.7252 138.828C99.3776 147.032 90.4555 160.827 91.6898 158.681Z" stroke="#BBB87C" stroke-width="0.3"/>
<path d="M158.694 169.5C158.465 172.385 158.712 175.162 158.694 176.713C162.185 172.547 159.646 192.419 160.457 200.154C161.268 207.89 159.893 221.125 158.676 228.987C157.477 236.867 152.699 247.091 156.931 254.25C159.47 234.397 164.107 214.219 165.747 194.745C166.717 201.074 163.702 209.603 167.51 214.58C172.465 181.095 170.314 146.78 162.22 115.404C161.956 135.167 167.651 153.74 163.984 173.106C160.122 170.041 163.208 163.225 162.22 158.681C160.51 161.025 159.293 166.813 158.694 169.5Z" stroke="#908B4A" stroke-width="0.3"/>
<path d="M151.641 129.83C147.532 137.854 151.747 150.548 153.404 158.681C155.079 147.934 152.487 140.198 151.641 129.83Z" stroke="#847D42" stroke-width="0.3"/>
<path d="M317.388 162.287C323.7 154.876 333.098 149.214 338.547 140.649C332.799 148.331 323.277 154.191 317.388 162.287Z" stroke="#AABE97" stroke-width="0.3"/>
<path d="M209.829 174.91C209.564 176.532 202.123 177.957 209.829 180.319C211.398 180.806 213.496 180.085 215.118 180.319C219.879 179.255 228.078 177.578 232.751 176.713C231.869 176.731 229.877 177.109 229.224 176.713C231.429 167.462 243.719 155.579 246.857 144.255C239.31 145.86 235.502 156.084 227.461 156.878C232.469 164.505 220.972 169.338 225.698 176.713C220.602 175.919 214.184 178.444 209.829 174.91Z" stroke="#7E9A56" stroke-width="0.3"/>
<path d="M268.016 155.074C261.986 159.492 255.286 163.153 250.384 169.5C257.26 166.849 265.618 161.71 268.016 155.074Z" stroke="#64824C" stroke-width="0.3"/>
<path d="M199.249 160.484C197.133 166.038 202.317 183.15 193.959 169.5C193.906 183.673 196.287 202.733 195.722 216.383C198.403 209.08 197.292 200.876 197.486 192.941C200.977 204.536 208.824 188.524 207.307 183.511C205.808 178.48 200.942 167.39 199.249 160.484Z" stroke="#8C874D" stroke-width="0.3"/>
<path d="M119.902 162.287C113.255 171.664 119.937 187.875 116.252 200.028C112.549 212.182 121.947 226.697 123.429 238.021C124.91 249.345 130.023 272.733 114.612 265.069C113.713 274.842 124.434 280.757 132.245 277.691C132.897 266.133 129.194 253.493 126.955 241.628C130.781 248.552 129.089 244.693 132.245 239.824C132.527 247.903 129.706 257.153 139.298 256.053C134.378 250.301 137.834 247.939 139.298 241.628C133.585 239.518 131.804 234.361 125.192 239.824C125.068 231.963 115.811 199.036 125.192 216.383C122.864 201.849 127.819 186.793 123.429 173.106C120.713 182.97 123.711 195.646 119.902 205.564C119.902 191.138 119.902 176.713 119.902 162.287Z" stroke="#918C4B" stroke-width="0.3"/>
<path d="M305.045 162.287C299.826 162.323 295.664 170.87 297.992 174.91C302.418 172.583 306.455 167.805 305.045 162.287Z" stroke="#799F52" stroke-width="0.3"/>
<path d="M190.433 173.106C186.324 181.131 190.538 193.825 192.196 201.957C191.244 192.455 194.224 181.852 190.433 173.106Z" stroke="#8E884B" stroke-width="0.3"/>
<path d="M232.751 176.713C228.078 177.578 219.879 179.255 215.118 180.319C225.151 181.744 236.56 180.445 246.857 182.122C263.291 184.791 285.384 191.607 299.755 200.154C297.868 198.549 296.37 196.169 294.465 194.745C306.085 193.464 312.133 207.457 323.065 212.38C334.015 217.285 336.554 228.969 349.127 230.809C346.446 235.208 342.638 231.458 340.31 234.415C347.504 235.443 347.98 239.68 343.837 245.234C350.625 238.941 359.935 237.12 366.759 232.612C368.946 229.005 363.55 224.894 366.759 221.793C362.122 220.873 359.142 215.121 354.416 212.777C347.046 214.399 343.149 218.421 335.02 214.58C322.113 208.485 313.103 192.761 299.755 187.532C290.568 183.926 284.961 186.829 276.833 182.122C274.611 181.852 273.588 181.113 271.543 180.319C264.455 177.578 258.265 175.036 250.384 174.91C243.983 174.801 238.887 176.55 232.751 176.713ZM352.653 227.202C366.318 227.635 360.658 217.465 352.653 227.202Z" stroke="#A5A371" stroke-width="0.3"/>
<path d="M153.404 176.713C150.389 183.078 150.6 195.466 153.404 201.957C153.404 193.537 153.404 185.134 153.404 176.713Z" stroke="#837E40" stroke-width="0.3"/>
<path d="M271.543 180.319C273.588 181.113 274.611 181.852 276.833 182.122C279.037 181.617 282.951 183.204 283.886 180.319C280.095 178.516 273.782 180.662 271.543 180.319Z" stroke="#354714" stroke-width="0.3"/>
<path d="M209.829 196.548C210.657 199.235 212.861 203.238 216.882 201.957C219.368 213.119 216.741 215.265 217.516 224.858C218.275 234.433 235.766 222.027 229.224 212.777C232.804 215.968 230.159 222.658 230.988 227.202C233.756 227.905 238.429 225.507 239.804 229.005C243.207 229.492 245.993 231.566 248.62 232.612C252.447 234.144 252.623 233.405 255.673 236.218C262.215 237.246 273.888 228.284 282.122 232.612C290.357 236.939 298.785 241.664 306.808 236.218C308.942 234.776 312.609 232.449 312.098 229.005C301.836 227.725 291.644 228.771 283.886 221.793C287.007 217.573 289.528 227.833 292.702 221.793C288.558 213.768 280.165 210.36 280.359 201.957C273.306 204.987 278.913 210.703 280.359 214.58C270.203 211.623 274.54 219.665 271.543 227.202C259.711 222.117 278.79 208.052 273.306 198.351C272.812 208.539 262.18 215.067 260.963 225.399C258.794 221.684 257.719 216.762 252.147 219.989C258.53 205.961 235.89 212.236 234.514 200.154C232.046 204.392 227.091 202.192 222.171 203.761C221.36 197.81 219.509 192.869 215.118 187.532C224.058 181.239 244.547 190.778 246.857 182.122C236.56 180.445 225.151 181.744 215.118 180.319C213.496 180.085 211.398 180.806 209.829 180.319C210.552 185.242 210.216 191.589 209.829 196.548Z" stroke="#3A2F25" stroke-width="0.3"/>
<path d="M306.808 236.218C306.861 236.074 310.264 242.06 308.571 243.431C303.934 240.708 299.35 245.216 299.755 250.644C302.576 249.147 310.546 249.327 310.335 254.25C314.425 250.59 319.416 248.534 324.441 247.037C328.778 245.739 330.101 248.714 331.494 243.431C331.917 241.069 326.01 238.725 324.441 241.628C323.806 237.913 328.655 236.507 331.494 236.218C331.37 232.864 331.988 231.259 329.731 229.005C327.015 231.872 313.932 233.081 313.861 227.202C320.191 231.007 324.123 224.065 329.731 227.202C324.758 216.798 308.73 205.492 299.755 200.154C285.384 191.607 263.291 184.791 246.857 182.122C244.547 190.778 224.058 181.239 215.118 187.532C219.509 192.869 221.36 197.81 222.171 203.761C227.091 202.192 232.046 204.392 234.514 200.154C235.89 212.236 258.53 205.961 252.147 219.989C257.719 216.762 258.794 221.684 260.963 225.399C262.18 215.067 272.812 208.539 273.306 198.351C278.79 208.052 259.711 222.117 271.543 227.202C274.54 219.665 270.203 211.623 280.359 214.58C278.913 210.703 273.306 204.987 280.359 201.957C280.165 210.36 288.558 213.768 292.702 221.793C289.528 227.833 287.007 217.573 283.886 221.793C291.644 228.771 301.836 227.725 312.098 229.005C312.609 232.449 308.942 234.776 306.808 236.218ZM234.514 187.532C234.267 200.93 226.65 195.43 234.514 187.532ZM252.147 198.351C247.633 197.017 238.57 201.362 234.514 196.548C237.635 192.887 244.177 195.592 248.62 194.745C255.726 193.266 273.324 185.693 269.78 203.761C264.225 201.939 255.815 205.438 252.147 198.351ZM280.359 196.548C273.412 202.949 271.913 190.597 280.359 196.548ZM296.229 223.596C299.967 215.121 288.594 209.116 285.649 201.957C303.035 193.428 327.544 232.594 296.229 223.596ZM317.388 236.218C318.816 237.679 316.841 243.016 314.373 240.96C311.922 238.923 315.801 234.595 317.388 236.218Z" stroke="#624E3E" stroke-width="0.3"/>
<path d="M234.514 187.532C234.267 200.93 226.65 195.43 234.514 187.532Z" stroke="#3C271D" stroke-width="0.3"/>
<path d="M248.62 194.745C252.641 195.845 249.996 195.574 252.147 198.351C255.815 205.438 264.225 201.939 269.78 203.761C273.324 185.693 255.726 193.266 248.62 194.745Z" stroke="#967A6A" stroke-width="0.3"/>
<path d="M299.755 200.154C308.73 205.492 324.758 216.798 329.731 227.202C330.083 227.923 329.731 229.005 329.731 229.005C331.988 231.259 331.37 232.864 331.494 236.218C331.564 238.274 332.023 241.447 331.494 243.431C330.101 248.714 328.778 245.739 324.441 247.037C319.909 248.931 314.919 253.421 310.335 256.053C309.859 262.743 307.478 259.93 305.045 261.463C301.06 263.969 300.178 265.033 296.229 268.676C295.752 269.108 294.941 270.1 294.465 270.479C300.055 270.028 308.977 270.641 315.624 266.872C310.758 273.382 301.483 274.608 296.229 281.298C299.261 281.28 300.637 280.667 303.282 279.495C305.309 278.593 308.589 278.611 310.335 277.691C319.327 272.949 338.247 255.62 343.837 245.234C347.98 239.68 347.504 235.443 340.31 234.415C342.638 231.458 346.446 235.208 349.127 230.809C336.554 228.969 334.015 217.285 323.065 212.38C312.133 207.457 306.085 193.464 294.465 194.745C296.37 196.169 297.868 198.549 299.755 200.154Z" stroke="#CBC2A3" stroke-width="0.3"/>
<path d="M252.147 198.351C249.996 195.574 252.641 195.845 248.62 194.745C244.177 195.592 237.635 192.887 234.514 196.548C238.57 201.362 247.633 197.017 252.147 198.351Z" stroke="#5B403F" stroke-width="0.3"/>
<path d="M280.359 196.548C273.412 202.949 271.913 190.597 280.359 196.548Z" stroke="#84706C" stroke-width="0.3"/>
<path d="M188.669 274.085C187.982 278.593 190.08 280.703 195.722 281.298C199.637 280.09 201.964 281.388 204.539 281.298C207.078 280.793 209.405 281.316 211.592 279.495C224.922 268.369 210.358 238.22 223.935 230.809C227.638 228.789 233.703 228.518 238.041 229.005C238.905 229.095 239.804 229.005 239.804 229.005C238.429 225.507 233.756 227.905 230.988 227.202C230.159 222.658 232.804 215.968 229.224 212.777C235.766 222.027 218.275 234.433 217.516 224.858C216.741 215.265 219.368 213.119 216.882 201.957C212.861 203.238 210.657 199.235 209.829 196.548C208.118 218.493 202.617 256.756 188.669 274.085Z" stroke="#1B160D" stroke-width="0.3"/>
<path d="M296.229 223.596C327.544 232.594 303.035 193.428 285.649 201.957C288.594 209.116 299.967 215.121 296.229 223.596Z" stroke="#917263" stroke-width="0.3"/>
<path d="M354.416 212.777C359.142 215.121 362.122 220.873 366.759 221.793C363.55 224.894 368.946 229.005 366.759 232.612C377.991 230.195 368.364 216.69 364.996 210.973C360.411 214.49 358.754 211.821 354.416 212.777Z" stroke="#CBC5AA" stroke-width="0.3"/>
<path d="M186.906 216.383C189.128 235.028 168.427 257.063 178.09 270.479C176.115 258.433 183.697 268.008 181.616 256.053C191.103 263.356 191.914 239.59 193.959 232.612C188.246 233.621 192.355 241.267 188.669 243.431C188.37 234.289 185.813 225.85 186.906 216.383Z" stroke="#8F894C" stroke-width="0.3"/>
<path d="M151.641 221.793C148.978 227.4 149.384 242.601 146.351 229.005C139.139 232.305 140.603 262.364 146.351 245.234C146.192 254.502 146.633 265.249 141.061 272.282C139.58 266.782 145.945 260.327 141.061 256.053C137.094 260.543 141.678 268.441 137.535 272.282C133.673 268.297 137.588 260.868 135.771 257.856C130.482 265.772 134.872 276.664 142.824 279.495C149.507 260.561 151.623 241.862 151.641 221.793Z" stroke="#898345" stroke-width="0.3"/>
<path d="M352.653 227.202C366.318 227.635 360.658 217.465 352.653 227.202Z" stroke="#746C35" stroke-width="0.3"/>
<path d="M329.731 229.005C329.731 229.005 330.083 227.923 329.731 227.202C324.123 224.065 320.191 231.007 313.861 227.202C313.932 233.081 327.015 231.872 329.731 229.005Z" stroke="#321C0C" stroke-width="0.3"/>
<path d="M234.514 238.021C231.041 237.589 226.192 242.529 223.935 239.824C228.025 239.716 227.373 230.989 223.935 230.809C227.638 228.789 233.703 228.518 238.041 229.005C241.797 235.389 234.514 232.954 234.514 238.021ZM234.514 238.021C231.358 242.457 216.899 248.065 230.988 252.447C221.801 241.285 240.792 246.442 245.094 248.84C246.469 247.975 248.462 247.181 248.62 245.234C239.028 248.606 241.197 236.705 234.514 238.021Z" stroke="#6E5642" stroke-width="0.3"/>
<path d="M245.094 248.84C244.706 249.093 245.094 250.644 245.094 250.644C248.726 251.473 252.588 251.888 255.673 250.644C254.51 255.981 257.278 255.314 260.963 254.25C257.507 251.671 261.298 248.336 260.963 245.234C256.026 242.854 249.908 244.567 245.094 241.628C249.343 238.833 241.656 232.251 248.62 232.612C245.993 231.566 243.207 229.492 239.804 229.005C239.804 229.005 238.905 229.095 238.041 229.005C241.797 235.389 234.514 232.954 234.514 238.021C241.197 236.705 239.028 248.606 248.62 245.234C248.462 247.181 246.469 247.975 245.094 248.84Z" stroke="#917764" stroke-width="0.3"/>
<path d="M211.592 279.495C216.229 278.196 222.63 279.675 227.461 279.495C230.371 278.629 238.922 272.21 245.094 274.085C251.265 275.96 255.938 270.046 257.437 266.872C265.283 264.168 258.036 272.985 264.49 272.282C262.727 261.661 277.291 265.971 273.306 256.053C279.266 262.671 284.767 253.691 292.702 254.25C283.374 264.51 298.873 260.435 296.229 268.676C300.178 265.033 301.06 263.969 305.045 261.463C303.67 261.282 301.783 253.637 299.226 256.558C296.652 259.497 293.654 256.45 292.702 250.644C287.007 255.025 281.223 245.739 269.78 248.84C270.097 259.01 262.691 259.317 259.2 265.069C255.356 260.164 253.029 259.75 246.857 261.463C241.832 258.289 250.154 254.34 246.857 252.447C243.754 253.673 239.751 250.463 245.094 250.644C245.094 250.644 244.706 249.093 245.094 248.84C240.792 246.442 221.801 241.285 230.988 252.447C216.899 248.065 231.358 242.457 234.514 238.021C231.041 237.589 226.192 242.529 223.935 239.824C228.025 239.716 227.373 230.989 223.935 230.809C210.358 238.22 224.922 268.369 211.592 279.495Z" stroke="#5D402F" stroke-width="0.3"/>
<path d="M255.673 236.218C259.606 239.861 254.122 240.708 262.727 238.021C265.46 241.736 262.832 255.079 260.963 254.25C257.278 255.314 254.51 255.981 255.673 250.644C252.588 251.888 248.726 251.473 245.094 250.644C239.751 250.463 243.754 253.673 246.857 252.447C250.154 254.34 241.832 258.289 246.857 261.463C253.029 259.75 255.356 260.164 259.2 265.069C262.691 259.317 270.097 259.01 269.78 248.84C281.223 245.739 287.007 255.025 292.702 250.644C293.654 256.45 296.652 259.497 299.226 256.558C301.783 253.637 303.67 261.282 305.045 261.463C307.478 259.93 309.859 262.743 310.335 256.053C310.405 255.152 310.335 254.25 310.335 254.25C310.546 249.327 302.576 249.147 299.755 250.644C299.35 245.216 303.934 240.708 308.571 243.431C310.264 242.06 306.861 236.074 306.808 236.218C298.785 241.664 290.357 236.939 282.122 232.612C273.888 228.284 262.215 237.246 255.673 236.218ZM273.306 241.628C270.608 255.693 260.223 240.221 273.306 241.628Z" stroke="#7A604D" stroke-width="0.3"/>
<path d="M260.963 254.25C262.832 255.079 265.46 241.736 262.727 238.021C254.122 240.708 259.606 239.861 255.673 236.218C252.623 233.405 252.447 234.144 248.62 232.612C241.656 232.251 249.343 238.833 245.094 241.628C249.908 244.567 256.026 242.854 260.963 245.234C261.298 248.336 257.507 251.671 260.963 254.25Z" stroke="#A7927F" stroke-width="0.3"/>
<path d="M317.388 236.218C315.801 234.595 311.922 238.923 314.373 240.96C316.841 243.016 318.816 237.679 317.388 236.218Z" stroke="#967968" stroke-width="0.3"/>
<path d="M331.494 243.431C332.023 241.447 331.564 238.274 331.494 236.218C328.655 236.507 323.806 237.913 324.441 241.628C326.01 238.725 331.917 241.069 331.494 243.431Z" stroke="#3C2A13" stroke-width="0.3"/>
<path d="M273.306 241.628C270.608 255.693 260.223 240.221 273.306 241.628Z" stroke="#9A8168" stroke-width="0.3"/>
<path d="M310.335 254.25C310.335 254.25 310.405 255.152 310.335 256.053C314.919 253.421 319.909 248.931 324.441 247.037C319.416 248.534 314.425 250.59 310.335 254.25Z" stroke="#AE9880" stroke-width="0.3"/>
<path d="M227.461 279.495C236.948 279.116 244.371 276.069 253.91 275.888C258.6 275.798 262.779 277.006 266.253 277.691C273.518 278.413 287.976 275.672 294.465 270.479C294.941 270.1 295.752 269.108 296.229 268.676C298.873 260.435 283.374 264.51 292.702 254.25C284.767 253.691 279.266 262.671 273.306 256.053C277.291 265.971 262.727 261.661 264.49 272.282C258.036 272.985 265.283 264.168 257.437 266.872C255.938 270.046 251.265 275.96 245.094 274.085C238.922 272.21 230.371 278.629 227.461 279.495Z" stroke="#422E1E" stroke-width="0.3"/>
<path d="M294.465 270.479C287.976 275.672 273.518 278.413 266.253 277.691C262.533 277.313 256.414 276.033 253.91 275.888C244.371 276.069 236.948 279.116 227.461 279.495C222.63 279.675 216.229 278.196 211.592 279.495C206.267 280.973 204.027 286.365 204.539 290.314C204.645 291.197 204.539 292.117 204.539 292.117C222.506 292.117 247.88 299.33 264.49 292.117C255.973 292.117 245.112 293.614 238.041 290.314C257.56 288.132 274.823 288.078 292.702 281.298C293.584 281.334 295.347 281.298 296.229 281.298C301.483 274.608 310.758 273.382 315.624 266.872C308.977 270.641 300.055 270.028 294.465 270.479Z" stroke="#B2AA81" stroke-width="0.3"/>
<path d="M135.771 288.511C133.426 288.511 131.064 288.511 128.718 288.511C129.3 289.845 131.187 291.522 132.245 292.117C139.88 296.481 155.167 294.101 163.984 293.92C165.306 293.614 167.016 292.279 169.273 292.117C174.898 290.512 181.563 286.689 188.669 288.511C180.982 283.876 193.889 285.049 195.722 281.298C190.08 280.703 187.982 278.593 188.669 274.085C184.244 277.313 172.871 282.993 176.327 275.888C162.943 283.065 149.578 288.168 135.771 288.511Z" stroke="#424225" stroke-width="0.3"/>
<path d="M266.253 277.691C262.779 277.006 258.6 275.798 253.91 275.888C256.414 276.033 262.533 277.313 266.253 277.691Z" stroke="#74684A" stroke-width="0.3"/>
<path d="M303.282 279.495C304.163 279.567 308.871 284.976 310.335 284.904C303.317 290.891 290.357 288.294 282.122 292.117C294.307 292.604 305.591 289.466 317.388 288.511C319.151 282.65 314.514 279.044 310.335 277.691C308.589 278.611 305.309 278.593 303.282 279.495Z" stroke="#C8C8C8" stroke-width="0.3"/>
<path d="M195.722 281.298C193.889 285.049 180.982 283.876 188.669 288.511C181.563 286.689 174.898 290.512 169.273 292.117C171.601 291.955 173.999 292.117 176.327 292.117C183.803 292.099 189.957 290.332 197.486 290.314C191.843 288.745 198.173 286.347 195.722 284.904C196.78 280.739 201.241 281.244 204.539 281.298C201.964 281.388 199.637 280.09 195.722 281.298Z" stroke="#646255" stroke-width="0.3"/>
<path d="M204.539 281.298C201.241 281.244 196.78 280.739 195.722 284.904C198.173 286.347 191.843 288.745 197.486 290.314C198.984 290.314 203.304 289.538 204.539 290.314C204.027 286.365 206.267 280.973 211.592 279.495C209.405 281.316 207.078 280.793 204.539 281.298Z" stroke="#92886A" stroke-width="0.3"/>
<path d="M296.229 281.298C295.347 281.298 293.584 281.334 292.702 281.298C293.178 291.161 275.158 289.016 268.016 292.117C272.724 292.117 277.415 292.117 282.122 292.117C290.357 288.294 303.317 290.891 310.335 284.904C308.871 284.976 304.163 279.567 303.282 279.495C300.637 280.667 299.261 281.28 296.229 281.298Z" stroke="#A2A19C" stroke-width="0.3"/>
<path d="M264.49 292.117C265.371 292.117 267.135 292.117 268.016 292.117C275.158 289.016 293.178 291.161 292.702 281.298C274.823 288.078 257.56 288.132 238.041 290.314C245.112 293.614 255.973 292.117 264.49 292.117Z" stroke="#7F7D61" stroke-width="0.3"/>
<path d="M176.327 292.117C173.029 292.604 168.392 293.83 163.984 293.92C155.167 294.101 139.88 296.481 132.245 292.117C155.238 300.899 181.052 292.117 204.539 292.117C204.539 292.117 204.645 291.197 204.539 290.314C203.304 289.538 198.984 290.314 197.486 290.314C189.957 290.332 183.803 292.099 176.327 292.117Z" stroke="#BEBFB7" stroke-width="0.3"/>
<path d="M163.984 293.92C168.392 293.83 173.029 292.604 176.327 292.117C173.999 292.117 171.601 291.955 169.273 292.117C167.016 292.279 165.306 293.614 163.984 293.92Z" stroke="#87887F" stroke-width="0.3"/>
<path d="M123.429 79.3404C126.761 72.5244 127.837 69.0622 130.358 61.1823C132.88 53.2843 122.159 51.0483 121.665 45.0798C121.26 40.1931 129.847 33.2869 134.008 32.4574C134.766 32.3132 138.681 32.0427 139.298 32.4574C133.708 25.0283 127.22 36.154 119.902 34.2606C118.791 52.4909 128.613 60.5331 123.429 79.3404Z" fill="#F4EFD9" stroke="black"/>
<path d="M121.665 45.0798C126.444 44.7011 128.242 39.003 132.245 41.4734C131.152 37.9752 134.361 35.8294 134.008 32.4574C129.847 33.2869 121.26 40.1931 121.665 45.0798Z" fill="#D2C1A1" stroke="black"/>
<path d="M121.665 45.0798C122.159 51.0484 132.88 53.2843 130.358 61.1823C127.837 69.0622 126.761 72.5244 123.429 79.3404C122.071 82.1173 121.383 85.4172 119.902 88.3564C114.489 99.1755 106.096 106.46 101.74 118.47C97.3675 130.461 95.2869 146.077 91.6898 158.681C90.4555 160.827 99.3776 147.032 98.7252 138.828C98.0904 130.641 104.385 120.94 107.559 113.601C110.063 117.694 108.987 120.67 114.612 120.814C112.602 125.376 111.615 130.226 111.086 135.239C106.113 128.604 107.383 143.624 100.506 138.846C101.688 144.147 98.5842 148.186 98.7429 153.271C108.582 156.048 106.713 179.436 107.559 191.138C103.733 179.237 100.665 185.639 100.541 194.781C100.436 203.941 104.932 210.703 104.033 219.989C115.476 208.683 105.232 239.5 112.849 247.037C109.058 249.724 106.096 250.788 105.796 256.053C102.675 250.68 103.803 251.221 100.506 256.053C100.189 250.175 94.4052 246.082 95.2163 239.824C92.1306 241.321 94.0526 246.027 93.4531 248.84C97.7025 260.309 102.781 273.256 112.849 281.298C119.92 286.112 124.98 289.34 132.245 292.117C131.187 291.522 129.3 289.845 128.718 288.511C131.064 288.511 133.426 288.511 135.771 288.511C133.514 286.707 133.462 282.434 130.482 281.298C137.834 281.713 137.834 276.195 142.824 283.101C145.875 276.7 149.648 270.587 149.878 263.266C154.903 272.444 151.447 252.591 153.404 243.431C155.361 234.253 156.384 221.143 158.676 210.955C160.968 200.767 155.943 186.594 158.694 176.713C158.712 175.162 158.465 172.385 158.694 169.5C159.558 158.699 156.913 147.609 156.931 137.043C156.948 126.476 152.893 114.971 153.404 104.585C153.915 94.1987 152.046 83.2173 146.739 75.3373C141.432 67.4574 148.22 57.2874 148.114 55.8989C146.633 52.7974 144.147 49.6238 142.824 46.883C142.507 60.0823 141.484 73.0112 139.298 86.5532C134.184 74.3456 142.013 52.6712 128.718 46.883C135.101 48.4518 131.98 38.7506 137.535 39.6702C138.504 41.4914 141.026 42.2668 142.824 43.2766C142.542 41.5996 140.426 33.1968 139.298 32.4574C138.681 32.0427 134.766 32.3132 134.008 32.4574C134.361 35.8294 131.152 37.9752 132.245 41.4734C128.242 39.003 126.444 44.7011 121.665 45.0798ZM151.641 129.83C152.487 140.198 155.079 147.934 153.404 158.681C151.747 150.548 147.532 137.854 151.641 129.83ZM119.902 162.287C119.902 176.713 119.902 191.138 119.902 205.564C123.711 195.646 120.713 182.97 123.429 173.106C127.819 186.793 122.864 201.849 125.192 216.383C115.811 199.036 125.068 231.963 125.192 239.824C131.804 234.361 133.585 239.518 139.298 241.628C137.834 247.939 134.378 250.301 139.298 256.053C129.706 257.153 132.527 247.903 132.245 239.824C129.089 244.693 130.781 248.552 126.955 241.628C129.194 253.493 132.897 266.133 132.245 277.691C124.434 280.757 113.713 274.842 114.612 265.069C130.023 272.733 124.91 249.345 123.429 238.021C121.947 226.697 112.549 212.182 116.252 200.028C119.937 187.875 113.255 171.664 119.902 162.287ZM153.404 176.713C153.404 185.134 153.404 193.537 153.404 201.957C150.6 195.466 150.389 183.078 153.404 176.713ZM151.641 221.793C151.623 241.862 149.507 260.561 142.824 279.495C134.872 276.664 130.482 265.772 135.771 257.856C137.588 260.868 133.673 268.297 137.535 272.282C141.678 268.441 137.094 260.543 141.061 256.053C145.945 260.327 139.58 266.782 141.061 272.282C146.633 265.249 146.192 254.502 146.351 245.234C140.603 262.364 139.139 232.305 146.351 229.005C149.384 242.601 148.978 227.4 151.641 221.793Z" fill="#A7A164" stroke="black"/>
<path d="M142.824 46.883C142.842 45.9814 142.966 44.1602 142.824 43.2766C141.026 42.2668 138.504 41.4914 137.535 39.6702C131.98 38.7506 135.101 48.4518 128.718 46.883C142.013 52.6712 134.184 74.3456 139.298 86.5532C141.484 73.0112 142.507 60.0823 142.824 46.883Z" fill="#767133" stroke="black"/>
<path d="M151.641 63.1117C157.424 72.4522 165.13 82.3157 172.8 90.1596C175.198 92.6119 177.72 94.7036 179.853 97.3723C182.727 100.943 184.702 103.846 186.906 108.191C197.68 102.566 199.531 86.2286 211.733 81.2879C223.917 76.3291 228.237 62.7511 239.804 57.7021C241.691 56.8727 243.207 56.5841 245.094 55.8989C248.761 54.5826 258.689 47.9649 262.727 50.4894C266.024 52.545 262.727 80.7109 262.727 86.5532C262.727 90.989 263.661 96.6511 262.727 100.979C269.533 103.07 274.382 92.1251 284.009 92.089C293.654 92.071 306.367 92.5037 315.642 88.3744C324.917 84.2451 336.378 85.0205 345.6 86.5532C352.353 86.6794 358.807 87.7613 364.996 90.1596C363.956 97.192 358.719 103.233 354.416 108.191C354.028 108.732 353.253 109.724 352.653 109.995C347.998 119.75 344.348 131.543 338.547 140.649C333.098 149.214 323.7 154.876 317.388 162.287C313.438 167.715 306.279 185.476 299.755 187.532C313.103 192.761 322.113 208.485 335.02 214.58C339.605 207.529 327.65 203.652 322.678 201.957C325.217 197.468 323.136 193.933 322.678 189.335C318.481 192.779 315.166 185.927 310.335 187.532C308.272 173.179 322.184 160.322 333.257 155.074C329.149 150.08 343.131 133.995 343.837 144.255C342.92 133.436 353.059 127.377 355.598 116.612C358.137 105.847 369.492 99.1395 366.759 86.5532C355.845 81.7026 344.295 76.1307 331.617 77.6635C318.957 79.2142 309.506 88.8072 297.41 87.7613C285.332 86.7155 275.898 91.2956 266.253 88.3564C270.785 75.3373 266.059 59.5955 268.016 46.883C263.643 46.4502 259.976 43.7454 255.673 43.2766C241.867 50.7057 229.947 56.7104 219.086 68.9721C208.206 81.2338 190.785 83.1632 181.616 93.766C171.742 80.783 163.067 74.3276 151.641 63.1117Z" fill="#EDF4DD" stroke="black"/>
<path d="M245.094 55.8989C240.915 58.9283 237.988 76.4012 227.461 77.5372C227.25 86.2467 225.151 102.836 216.882 97.3723C216.582 102.277 217.957 107.596 215.118 111.798C208.824 107.308 209.617 119.984 204.539 111.798C202.405 114.322 202.811 117.676 202.776 120.814C199.073 131.579 197.292 160.863 211.592 158.681C212.05 152.586 214.783 135.167 220.972 123.194C227.161 111.221 232.222 96.0921 239.399 84.3353C246.575 72.5965 255.673 61.2184 262.727 50.4894C258.689 47.9649 248.761 54.5826 245.094 55.8989Z" fill="#3C601F" stroke="black"/>
<path d="M211.592 158.681C210.851 168.58 203.569 165.515 208.065 171.303C209.088 164.451 235.749 162.936 220.408 155.074C234.761 151.017 233.174 130.605 234.514 119.011C243.472 119.209 246.434 129.127 245.094 137.043C249.96 135.041 251.971 124.564 245.094 124.42C246.928 114.304 253.752 106.785 257.437 97.3723C252.411 98.5264 250.137 107.128 243.331 106.388C252.799 100.979 247.439 77.5192 259.2 90.1596C259.2 84.1549 259.2 78.1323 259.2 72.1277C263.767 75.0849 258.036 83.7222 262.727 86.5532C262.727 80.7109 266.024 52.545 262.727 50.4894C255.673 61.2184 246.575 72.5965 239.399 84.3353C232.222 96.0921 227.161 111.221 220.972 123.194C214.783 135.167 212.05 152.586 211.592 158.681Z" fill="#7B9C5F" stroke="black"/>
<path d="M158.694 169.5C159.293 166.813 160.51 161.025 162.22 158.681C163.208 163.225 160.122 170.041 163.984 173.106C167.651 153.74 161.956 135.167 162.22 115.404C170.314 146.78 172.465 181.095 167.51 214.58C163.702 209.603 166.717 201.074 165.747 194.745C164.107 214.219 159.47 234.397 156.931 254.25C152.699 247.091 157.477 236.867 158.676 228.987C159.893 221.125 161.268 207.89 160.457 200.154C159.646 192.419 162.185 172.547 158.694 176.713C155.943 186.594 160.968 200.767 158.676 210.955C156.384 221.143 155.361 234.253 153.404 243.431C151.447 252.591 154.903 272.444 149.878 263.266C149.648 270.587 145.875 276.7 142.824 283.101C137.834 276.195 137.834 281.713 130.482 281.298C133.462 282.434 133.514 286.707 135.771 288.511C149.578 288.168 162.943 283.065 176.327 275.888C172.871 282.993 184.244 277.313 188.669 274.085C202.617 256.756 208.118 218.493 209.829 196.548C210.216 191.589 210.552 185.242 209.829 180.319C202.123 177.957 209.564 176.532 209.829 174.91C208.118 173.521 209.229 172.8 208.065 171.303C203.569 165.515 210.851 168.58 211.592 158.681C197.292 160.863 199.073 131.579 202.776 120.814C201.647 122.238 198.932 123.428 197.486 124.42C197.327 118.452 191.826 122.04 188.669 113.601C188.281 112.934 188.987 110.752 188.669 109.995C188.475 109.526 187.206 108.787 186.906 108.191C184.702 103.846 182.727 100.943 179.853 97.3723C176.697 95.5872 176.009 99.9148 172.359 96.0019C168.709 92.089 172.641 89.6727 172.8 90.1596C165.13 82.3157 157.424 72.4522 151.641 63.1117C150.142 60.6954 149.26 58.2792 148.114 55.8989C148.22 57.2874 141.432 67.4574 146.739 75.3373C152.046 83.2173 153.915 94.1987 153.404 104.585C152.893 114.971 156.948 126.476 156.931 137.043C156.913 147.609 159.558 158.699 158.694 169.5ZM165.747 93.766C168.551 105.901 177.649 110.518 179.853 124.42C179.06 104.152 193.501 137.169 186.906 144.255C183.256 137.547 176.944 131.561 178.09 122.617C175.11 132.228 174.193 127.251 174.563 119.011C167.246 122.473 165.095 100.6 165.747 93.766ZM190.433 137.043C190.662 127.071 185.055 118.614 181.616 109.995C188.44 115.927 198.826 128.838 190.433 137.043ZM199.249 160.484C200.942 167.39 205.808 178.48 207.307 183.511C208.824 188.524 200.977 204.536 197.486 192.941C197.292 200.876 198.403 209.08 195.722 216.383C196.287 202.733 193.906 183.673 193.959 169.5C202.317 183.15 197.133 166.038 199.249 160.484ZM190.433 173.106C194.224 181.852 191.244 192.455 192.196 201.957C190.538 193.825 186.324 181.131 190.433 173.106ZM186.906 216.383C185.813 225.85 188.37 234.289 188.669 243.431C192.355 241.267 188.246 233.621 193.959 232.612C191.914 239.59 191.103 263.356 181.616 256.053C183.697 268.008 176.115 258.433 178.09 270.479C168.427 257.063 189.128 235.028 186.906 216.383Z" fill="#6F6B33" stroke="black"/>
<path d="M239.804 57.7021C239.434 58.3873 239.804 59.5053 239.804 59.5053C233.192 67.8 228.114 73.7686 218.645 79.3404C218.31 80.0797 218.645 81.1436 218.645 81.1436C219.597 90.2137 216.088 101.682 211.592 108.191C207.607 100.997 209.106 94.2168 211.592 86.5532C205.561 88.5908 207.519 96.3986 201.012 97.3723C210.04 99.9509 202.687 112.808 199.249 120.814C196.763 116.847 197.327 114.863 195.722 109.995C193.148 110.986 191.879 114.322 188.669 113.601C191.826 122.04 197.327 118.452 197.486 124.42C198.932 123.428 201.647 122.238 202.776 120.814C202.811 117.676 202.405 114.322 204.539 111.798C209.617 119.984 208.824 107.308 215.118 111.798C217.957 107.596 216.582 102.277 216.882 97.3723C225.151 102.836 227.25 86.2467 227.461 77.5372C237.988 76.4012 240.915 58.9283 245.094 55.8989C243.207 56.5842 241.691 56.8727 239.804 57.7021Z" fill="#5C8136" stroke="black"/>
<path d="M186.906 108.191C187.206 108.787 188.475 109.526 188.669 109.995C199.372 111.563 203.975 81.901 218.645 81.1436C218.645 81.1436 218.31 80.0797 218.645 79.3404C221.325 73.2997 233.597 61.579 239.804 59.5053C239.804 59.5053 239.434 58.3873 239.804 57.7021C228.237 62.7511 223.917 76.3291 211.733 81.2879C199.531 86.2286 197.68 102.566 186.906 108.191Z" fill="#A1BA7E" stroke="black"/>
<path d="M218.645 79.3404C228.114 73.7686 233.192 67.8 239.804 59.5053C233.597 61.579 221.325 73.2997 218.645 79.3404Z" fill="#7C9B4D" stroke="black"/>
<path d="M208.065 171.303C209.229 172.8 208.118 173.521 209.829 174.91C214.184 178.444 220.602 175.919 225.698 176.713C220.972 169.338 232.469 164.505 227.461 156.878C235.502 156.084 239.31 145.86 246.857 144.255C243.719 155.579 231.429 167.462 229.224 176.713C228.378 169.392 242.643 168.094 244.653 161.836C246.681 155.579 251.53 147.176 253.893 140.631C256.255 134.085 260.611 123.483 266.253 120.814C268.104 129.469 274.117 131.236 275.069 140.649C278.931 136.574 287.994 137.403 283.886 129.83C292.579 130.822 300.601 122.148 303.282 115.404C308.801 119.534 319.557 111.023 315.624 104.585C326.328 104.333 337.136 98.9592 342.073 90.1596C349.514 96.1642 350.89 90.953 357.943 90.1596C358.948 97.174 347.592 95.7855 343.837 100.979C348.492 101.826 351.207 114.07 349.127 100.979C354.646 101.736 352.97 105.739 354.416 108.191C358.719 103.233 363.956 97.192 364.996 90.1596C358.807 87.7613 352.353 86.6794 345.6 86.5532C343.255 86.4991 340.892 86.5532 338.547 86.5532C329.907 87.9777 320.138 98.4002 312.627 100.33C305.115 102.277 295.47 118.325 290.939 108.191C285.332 113.601 284.873 122.707 276.833 124.42C276.603 118.163 276.603 112.086 278.596 106.388C275.969 102.097 271.596 108.823 269.78 104.585C268.387 105.108 267.769 106.1 266.253 106.388C268.651 107.29 273.095 108.065 275.069 109.995C270.22 115.512 265.724 114.701 259.2 115.404C267.346 111.365 253.84 109.472 260.963 102.782C261.316 102.223 262.638 101.393 262.727 100.979C263.661 96.6511 262.727 90.989 262.727 86.5532C258.036 83.7222 263.767 75.0849 259.2 72.1277C259.2 78.1323 259.2 84.155 259.2 90.1596C247.439 77.5192 252.799 100.979 243.331 106.388C250.137 107.128 252.411 98.5264 257.437 97.3723C253.752 106.785 246.928 114.304 245.094 124.42C251.971 124.564 249.96 135.041 245.094 137.043C246.434 129.127 243.472 119.209 234.514 119.011C233.174 130.605 234.761 151.017 220.408 155.074C235.749 162.936 209.088 164.451 208.065 171.303Z" fill="#4D722B" stroke="black"/>
<path d="M188.669 109.995C188.987 110.752 188.281 112.934 188.669 113.601C191.879 114.322 193.148 110.986 195.722 109.995C197.327 114.863 196.763 116.847 199.249 120.814C202.687 112.808 210.04 99.9509 201.012 97.3723C207.519 96.3986 205.561 88.5908 211.592 86.5532C209.106 94.2168 207.607 100.997 211.592 108.191C216.088 101.682 219.597 90.2137 218.645 81.1436C203.975 81.901 199.372 111.563 188.669 109.995Z" fill="#7C9F56" stroke="black"/>
<path d="M262.727 100.979C262.638 101.393 261.316 102.223 260.963 102.782C260.029 107.218 263.908 105.505 266.253 106.388C267.769 106.1 268.387 105.108 269.78 104.585C277.326 101.808 283.992 96.7773 292.702 97.3723C286.848 103.485 273.095 110.049 280.359 120.814C292.579 96.9937 314.496 89.3481 338.547 86.5532C340.892 86.5532 343.255 86.4991 345.6 86.5532C336.378 85.0205 324.917 84.2451 315.642 88.3744C306.367 92.5037 293.654 92.071 284.009 92.089C274.382 92.125 269.533 103.07 262.727 100.979Z" fill="#92AE6F" stroke="black"/>
<path d="M269.78 104.585C271.596 108.823 275.969 102.097 278.596 106.388C276.603 112.086 276.603 118.163 276.833 124.42C284.873 122.707 285.332 113.601 290.939 108.191C295.47 118.325 305.115 102.277 312.627 100.33C320.138 98.4002 329.907 87.9777 338.547 86.5532C314.496 89.3481 292.579 96.9937 280.359 120.814C273.095 110.049 286.848 103.485 292.702 97.3723C283.992 96.7773 277.326 101.808 269.78 104.585Z" fill="#678F3D" stroke="black"/>
<path d="M112.849 281.298C102.781 273.256 97.7025 260.309 93.4531 248.84C84.7602 225.363 84.9012 182.555 91.6898 158.681C95.2869 146.077 97.3675 130.461 101.74 118.47C106.096 106.46 114.489 99.1755 119.902 88.3564C117.31 90.7546 115.282 87.7072 112.849 90.1596C116.305 97.3363 107.207 105.451 100.506 100.979C101.864 112.591 92.5185 145.121 84.6367 129.83C89.4504 145.554 83.7904 158.951 84.6367 178.516C85.4831 198.081 85.5536 228.266 87.7753 244.837C89.9971 261.391 97.6849 270.984 112.849 281.298Z" fill="#F6F5E2" stroke="black"/>
<path d="M179.853 97.3723C177.72 94.7036 175.198 92.6119 172.8 90.1596C172.641 89.6727 168.709 92.089 172.359 96.0019C176.009 99.9148 176.697 95.5872 179.853 97.3723Z" fill="#4C4D21" stroke="black"/>
<path d="M229.224 176.713C229.877 177.109 231.869 176.731 232.751 176.713C238.887 176.55 243.983 174.801 250.384 174.91C253.593 173.864 257.878 170.113 260.963 167.697C267.505 162.558 276.409 156.481 280.359 149.665C276.039 146.942 272.636 156.409 269.78 151.468C293.584 131.579 316.242 113.493 343.837 100.979C347.592 95.7855 358.948 97.174 357.943 90.1596C350.89 90.953 349.514 96.1642 342.073 90.1596C337.136 98.9592 326.328 104.333 315.624 104.585C319.557 111.023 308.801 119.534 303.282 115.404C300.601 122.148 292.579 130.822 283.886 129.83C287.994 137.403 278.931 136.574 275.069 140.649C274.117 131.236 268.104 129.469 266.253 120.814C260.611 123.483 256.255 134.085 253.893 140.631C251.53 147.176 246.681 155.579 244.653 161.836C242.643 168.094 228.378 169.392 229.224 176.713ZM268.016 155.074C265.618 161.71 257.26 166.849 250.384 169.5C255.286 163.153 261.986 159.492 268.016 155.074Z" fill="#35571D" stroke="black"/>
<path d="M165.747 93.766C165.095 100.6 167.246 122.473 174.563 119.011C174.193 127.251 175.11 132.228 178.09 122.617C176.944 131.561 183.256 137.547 186.906 144.255C193.501 137.169 179.06 104.152 179.853 124.42C177.649 110.518 168.551 105.901 165.747 93.766Z" fill="#8A854A" stroke="black"/>
<path d="M260.963 167.697C262.638 167.318 271.208 168.887 275.069 171.303C277.256 159.528 293.407 157.563 297.992 147.862C297.216 152.28 300.831 155.994 303.282 158.681C308.395 144.418 324.952 148.908 331.494 138.846C325.71 136.862 315.078 144.273 308.571 140.649C321.055 139.513 326.909 130.371 335.02 124.42C334.315 146.636 343.026 110.175 352.653 109.995C353.253 109.724 354.028 108.732 354.416 108.191C352.97 105.739 354.646 101.736 349.127 100.979C351.207 114.07 348.492 101.826 343.837 100.979C316.242 113.493 293.584 131.579 269.78 151.468C272.636 156.409 276.039 146.942 280.359 149.665C276.409 156.481 267.505 162.558 260.963 167.697Z" fill="#7FA161" stroke="black"/>
<path d="M266.253 106.388C263.908 105.505 260.029 107.218 260.963 102.782C253.84 109.472 267.346 111.365 259.2 115.404C265.724 114.701 270.22 115.512 275.069 109.995C273.095 108.065 268.651 107.29 266.253 106.388Z" fill="#6C9049" stroke="black"/>
<path d="M190.433 137.043C198.826 128.838 188.44 115.927 181.616 109.995C185.055 118.614 190.662 127.071 190.433 137.043Z" fill="#85874D" stroke="black"/>
<path d="M260.963 167.697C257.878 170.113 253.593 173.864 250.384 174.91C258.265 175.036 264.455 177.578 271.543 180.319C273.782 180.662 280.095 178.516 283.886 180.319C282.951 183.204 279.037 181.617 276.833 182.122C284.961 186.829 290.568 183.926 299.755 187.532C306.279 185.476 313.438 167.715 317.388 162.287C323.277 154.191 332.799 148.331 338.547 140.649C344.348 131.543 347.998 119.75 352.653 109.995C343.026 110.175 334.315 146.636 335.02 124.42C326.909 130.371 321.055 139.513 308.571 140.649C315.078 144.273 325.71 136.862 331.494 138.846C324.952 148.908 308.395 144.418 303.282 158.681C300.831 155.994 297.216 152.28 297.992 147.862C293.407 157.563 277.256 159.528 275.069 171.303C271.208 168.887 262.638 167.318 260.963 167.697ZM305.045 162.287C306.456 167.805 302.418 172.583 297.992 174.91C295.664 170.87 299.826 162.323 305.045 162.287Z" fill="#587736" stroke="black"/>
<path d="M91.6898 158.681C84.9012 182.555 84.7602 225.363 93.4531 248.84C94.0526 246.027 92.1306 241.321 95.2163 239.824C94.4052 246.082 100.189 250.175 100.506 256.053C103.803 251.221 102.675 250.68 105.796 256.053C106.096 250.788 109.058 249.724 112.849 247.037C105.232 239.5 115.476 208.683 104.033 219.989C104.932 210.703 100.436 203.941 100.541 194.781C100.665 185.639 103.733 179.237 107.559 191.138C106.713 179.436 108.582 156.048 98.7429 153.271C98.5842 148.186 101.688 144.147 100.506 138.846C107.383 143.624 106.113 128.604 111.086 135.239C111.615 130.226 112.602 125.376 114.612 120.814C108.987 120.67 110.063 117.694 107.559 113.601C104.385 120.94 98.0904 130.641 98.7252 138.828C99.3776 147.032 90.4555 160.827 91.6898 158.681Z" fill="#BBB87C" stroke="black"/>
<path d="M158.694 169.5C158.465 172.385 158.712 175.162 158.694 176.713C162.185 172.547 159.646 192.419 160.457 200.154C161.268 207.89 159.893 221.125 158.676 228.987C157.477 236.867 152.699 247.091 156.931 254.25C159.47 234.397 164.107 214.219 165.747 194.745C166.717 201.074 163.702 209.603 167.51 214.58C172.465 181.095 170.314 146.78 162.22 115.404C161.956 135.167 167.651 153.74 163.984 173.106C160.122 170.041 163.208 163.225 162.22 158.681C160.51 161.025 159.293 166.813 158.694 169.5Z" fill="#908B4A" stroke="black"/>
<path d="M151.641 129.83C147.532 137.854 151.747 150.548 153.404 158.681C155.079 147.934 152.487 140.198 151.641 129.83Z" fill="#847D42" stroke="black"/>
<path d="M317.388 162.287C323.7 154.876 333.098 149.214 338.547 140.649C332.799 148.331 323.277 154.191 317.388 162.287Z" fill="#AABE97" stroke="black"/>
<path d="M209.829 174.91C209.564 176.532 202.123 177.957 209.829 180.319C211.398 180.806 213.496 180.085 215.118 180.319C219.879 179.255 228.078 177.578 232.751 176.713C231.869 176.731 229.877 177.109 229.224 176.713C231.429 167.462 243.719 155.579 246.857 144.255C239.31 145.86 235.502 156.084 227.461 156.878C232.469 164.505 220.972 169.338 225.698 176.713C220.602 175.919 214.184 178.444 209.829 174.91Z" fill="#7E9A56" stroke="black"/>
<path d="M268.016 155.074C261.986 159.492 255.286 163.153 250.384 169.5C257.26 166.849 265.618 161.71 268.016 155.074Z" fill="#64824C" stroke="black"/>
<path d="M199.249 160.484C197.133 166.038 202.317 183.15 193.959 169.5C193.906 183.673 196.287 202.733 195.722 216.383C198.403 209.08 197.292 200.876 197.486 192.941C200.977 204.536 208.824 188.524 207.307 183.511C205.808 178.48 200.942 167.39 199.249 160.484Z" fill="#8C874D" stroke="black"/>
<path d="M119.902 162.287C113.255 171.664 119.937 187.875 116.252 200.028C112.549 212.182 121.947 226.697 123.429 238.021C124.91 249.345 130.023 272.733 114.612 265.069C113.713 274.842 124.434 280.757 132.245 277.691C132.897 266.133 129.194 253.493 126.955 241.628C130.781 248.552 129.089 244.693 132.245 239.824C132.527 247.903 129.706 257.153 139.298 256.053C134.378 250.301 137.834 247.939 139.298 241.628C133.585 239.518 131.804 234.361 125.192 239.824C125.068 231.963 115.811 199.036 125.192 216.383C122.864 201.849 127.819 186.793 123.429 173.106C120.713 182.97 123.711 195.646 119.902 205.564C119.902 191.138 119.902 176.713 119.902 162.287Z" fill="#918C4B" stroke="black"/>
<path d="M305.045 162.287C299.826 162.323 295.664 170.87 297.992 174.91C302.418 172.583 306.455 167.805 305.045 162.287Z" fill="#799F52" stroke="black"/>
<path d="M190.433 173.106C186.324 181.131 190.538 193.825 192.196 201.957C191.244 192.455 194.224 181.852 190.433 173.106Z" fill="#8E884B" stroke="black"/>
<path d="M232.751 176.713C228.078 177.578 219.879 179.255 215.118 180.319C225.151 181.744 236.56 180.445 246.857 182.122C263.291 184.791 285.384 191.607 299.755 200.154C297.868 198.549 296.37 196.169 294.465 194.745C306.085 193.464 312.133 207.457 323.065 212.38C334.015 217.285 336.554 228.969 349.127 230.809C346.446 235.208 342.638 231.458 340.31 234.415C347.504 235.443 347.98 239.68 343.837 245.234C350.625 238.941 359.935 237.12 366.759 232.612C368.946 229.005 363.55 224.894 366.759 221.793C362.122 220.873 359.142 215.121 354.416 212.777C347.046 214.399 343.149 218.421 335.02 214.58C322.113 208.485 313.103 192.761 299.755 187.532C290.568 183.926 284.961 186.829 276.833 182.122C274.611 181.852 273.588 181.113 271.543 180.319C264.455 177.578 258.265 175.036 250.384 174.91C243.983 174.801 238.887 176.55 232.751 176.713ZM352.653 227.202C366.318 227.635 360.658 217.465 352.653 227.202Z" fill="#A5A371" stroke="black"/>
<path d="M153.404 176.713C150.389 183.078 150.6 195.466 153.404 201.957C153.404 193.537 153.404 185.134 153.404 176.713Z" fill="#837E40" stroke="black"/>
<path d="M271.543 180.319C273.588 181.113 274.611 181.852 276.833 182.122C279.037 181.617 282.951 183.204 283.886 180.319C280.095 178.516 273.782 180.662 271.543 180.319Z" fill="#354714" stroke="black"/>
<path d="M209.829 196.548C210.657 199.235 212.861 203.238 216.882 201.957C219.368 213.119 216.741 215.265 217.516 224.858C218.275 234.433 235.766 222.027 229.224 212.777C232.804 215.968 230.159 222.658 230.988 227.202C233.756 227.905 238.429 225.507 239.804 229.005C243.207 229.492 245.993 231.566 248.62 232.612C252.447 234.144 252.623 233.405 255.673 236.218C262.215 237.246 273.888 228.284 282.122 232.612C290.357 236.939 298.785 241.664 306.808 236.218C308.942 234.776 312.609 232.449 312.098 229.005C301.836 227.725 291.644 228.771 283.886 221.793C287.007 217.573 289.528 227.833 292.702 221.793C288.558 213.768 280.165 210.36 280.359 201.957C273.306 204.987 278.913 210.703 280.359 214.58C270.203 211.623 274.54 219.665 271.543 227.202C259.711 222.117 278.79 208.052 273.306 198.351C272.812 208.539 262.18 215.067 260.963 225.399C258.794 221.684 257.719 216.762 252.147 219.989C258.53 205.961 235.89 212.236 234.514 200.154C232.046 204.392 227.091 202.192 222.171 203.761C221.36 197.81 219.509 192.869 215.118 187.532C224.058 181.239 244.547 190.778 246.857 182.122C236.56 180.445 225.151 181.744 215.118 180.319C213.496 180.085 211.398 180.806 209.829 180.319C210.552 185.242 210.216 191.589 209.829 196.548Z" fill="#3A2F25" stroke="black"/>
<path d="M306.808 236.218C306.861 236.074 310.264 242.06 308.571 243.431C303.934 240.708 299.35 245.216 299.755 250.644C302.576 249.147 310.546 249.327 310.335 254.25C314.425 250.59 319.416 248.534 324.441 247.037C328.778 245.739 330.101 248.714 331.494 243.431C331.917 241.069 326.01 238.725 324.441 241.628C323.806 237.913 328.655 236.507 331.494 236.218C331.37 232.864 331.988 231.259 329.731 229.005C327.015 231.872 313.932 233.081 313.861 227.202C320.191 231.007 324.123 224.065 329.731 227.202C324.758 216.798 308.73 205.492 299.755 200.154C285.384 191.607 263.291 184.791 246.857 182.122C244.547 190.778 224.058 181.239 215.118 187.532C219.509 192.869 221.36 197.81 222.171 203.761C227.091 202.192 232.046 204.392 234.514 200.154C235.89 212.236 258.53 205.961 252.147 219.989C257.719 216.762 258.794 221.684 260.963 225.399C262.18 215.067 272.812 208.539 273.306 198.351C278.79 208.052 259.711 222.117 271.543 227.202C274.54 219.665 270.203 211.623 280.359 214.58C278.913 210.703 273.306 204.987 280.359 201.957C280.165 210.36 288.558 213.768 292.702 221.793C289.528 227.833 287.007 217.573 283.886 221.793C291.644 228.771 301.836 227.725 312.098 229.005C312.609 232.449 308.942 234.776 306.808 236.218ZM234.514 187.532C234.267 200.93 226.65 195.43 234.514 187.532ZM252.147 198.351C247.633 197.017 238.57 201.362 234.514 196.548C237.635 192.887 244.177 195.592 248.62 194.745C255.726 193.266 273.324 185.693 269.78 203.761C264.225 201.939 255.815 205.438 252.147 198.351ZM280.359 196.548C273.412 202.949 271.913 190.597 280.359 196.548ZM296.229 223.596C299.967 215.121 288.594 209.116 285.649 201.957C303.035 193.428 327.544 232.594 296.229 223.596ZM317.388 236.218C318.816 237.679 316.841 243.016 314.373 240.96C311.922 238.923 315.801 234.595 317.388 236.218Z" fill="#624E3E" stroke="black"/>
<path d="M234.514 187.532C234.267 200.93 226.65 195.43 234.514 187.532Z" fill="#3C271D" stroke="black"/>
<path d="M248.62 194.745C252.641 195.845 249.996 195.574 252.147 198.351C255.815 205.438 264.225 201.939 269.78 203.761C273.324 185.693 255.726 193.266 248.62 194.745Z" fill="#967A6A" stroke="black"/>
<path d="M299.755 200.154C308.73 205.492 324.758 216.798 329.731 227.202C330.083 227.923 329.731 229.005 329.731 229.005C331.988 231.259 331.37 232.864 331.494 236.218C331.564 238.274 332.023 241.447 331.494 243.431C330.101 248.714 328.778 245.739 324.441 247.037C319.909 248.931 314.919 253.421 310.335 256.053C309.859 262.743 307.478 259.93 305.045 261.463C301.06 263.969 300.178 265.033 296.229 268.676C295.752 269.108 294.941 270.1 294.465 270.479C300.055 270.028 308.977 270.641 315.624 266.872C310.758 273.382 301.483 274.608 296.229 281.298C299.261 281.28 300.637 280.667 303.282 279.495C305.309 278.593 308.589 278.611 310.335 277.691C319.327 272.949 338.247 255.62 343.837 245.234C347.98 239.68 347.504 235.443 340.31 234.415C342.638 231.458 346.446 235.208 349.127 230.809C336.554 228.969 334.015 217.285 323.065 212.38C312.133 207.457 306.085 193.464 294.465 194.745C296.37 196.169 297.868 198.549 299.755 200.154Z" fill="#CBC2A3" stroke="black"/>
<path d="M252.147 198.351C249.996 195.574 252.641 195.845 248.62 194.745C244.177 195.592 237.635 192.887 234.514 196.548C238.57 201.362 247.633 197.017 252.147 198.351Z" fill="#5B403F" stroke="black"/>
<path d="M280.359 196.548C273.412 202.949 271.913 190.597 280.359 196.548Z" fill="#84706C" stroke="black"/>
<path d="M188.669 274.085C187.982 278.593 190.08 280.703 195.722 281.298C199.637 280.09 201.964 281.388 204.539 281.298C207.078 280.793 209.405 281.316 211.592 279.495C224.922 268.369 210.358 238.22 223.935 230.809C227.638 228.789 233.703 228.518 238.041 229.005C238.905 229.095 239.804 229.005 239.804 229.005C238.429 225.507 233.756 227.905 230.988 227.202C230.159 222.658 232.804 215.968 229.224 212.777C235.766 222.027 218.275 234.433 217.516 224.858C216.741 215.265 219.368 213.119 216.882 201.957C212.861 203.238 210.657 199.235 209.829 196.548C208.118 218.493 202.617 256.756 188.669 274.085Z" fill="#1B160D" stroke="black"/>
<path d="M296.229 223.596C327.544 232.594 303.035 193.428 285.649 201.957C288.594 209.116 299.967 215.121 296.229 223.596Z" fill="#917263" stroke="black"/>
<path d="M354.416 212.777C359.142 215.121 362.122 220.873 366.759 221.793C363.55 224.894 368.946 229.005 366.759 232.612C377.991 230.195 368.364 216.69 364.996 210.973C360.411 214.49 358.754 211.821 354.416 212.777Z" fill="#CBC5AA" stroke="black"/>
<path d="M186.906 216.383C189.128 235.028 168.427 257.063 178.09 270.479C176.115 258.433 183.697 268.008 181.616 256.053C191.103 263.356 191.914 239.59 193.959 232.612C188.246 233.621 192.355 241.267 188.669 243.431C188.37 234.289 185.813 225.85 186.906 216.383Z" fill="#8F894C" stroke="black"/>
<path d="M151.641 221.793C148.978 227.4 149.384 242.601 146.351 229.005C139.139 232.305 140.603 262.364 146.351 245.234C146.192 254.502 146.633 265.249 141.061 272.282C139.58 266.782 145.945 260.327 141.061 256.053C137.094 260.543 141.678 268.441 137.535 272.282C133.673 268.297 137.588 260.868 135.771 257.856C130.482 265.772 134.872 276.664 142.824 279.495C149.507 260.561 151.623 241.862 151.641 221.793Z" fill="#898345" stroke="black"/>
<path d="M352.653 227.202C366.318 227.635 360.658 217.465 352.653 227.202Z" fill="#746C35" stroke="black"/>
<path d="M329.731 229.005C329.731 229.005 330.083 227.923 329.731 227.202C324.123 224.065 320.191 231.007 313.861 227.202C313.932 233.081 327.015 231.872 329.731 229.005Z" fill="#321C0C" stroke="black"/>
<path d="M223.935 230.809C227.373 230.989 228.025 239.716 223.935 239.824C226.192 242.529 231.041 237.589 234.514 238.021C231.358 242.457 216.899 248.065 230.988 252.447C221.801 241.285 240.792 246.442 245.094 248.84C246.469 247.975 248.462 247.181 248.62 245.234C239.028 248.606 241.197 236.705 234.514 238.021C234.514 232.954 241.797 235.389 238.041 229.005C233.703 228.518 227.638 228.789 223.935 230.809Z" fill="#6E5642"/>
<path d="M234.514 238.021C231.041 237.589 226.192 242.529 223.935 239.824C228.025 239.716 227.373 230.989 223.935 230.809C227.638 228.789 233.703 228.518 238.041 229.005C241.797 235.389 234.514 232.954 234.514 238.021ZM234.514 238.021C231.358 242.457 216.899 248.065 230.988 252.447C221.801 241.285 240.792 246.442 245.094 248.84C246.469 247.975 248.462 247.181 248.62 245.234C239.028 248.606 241.197 236.705 234.514 238.021Z" stroke="black"/>
<path d="M245.094 248.84C244.706 249.093 245.094 250.644 245.094 250.644C248.726 251.473 252.588 251.888 255.673 250.644C254.51 255.981 257.278 255.314 260.963 254.25C257.507 251.671 261.298 248.336 260.963 245.234C256.026 242.854 249.908 244.567 245.094 241.628C249.343 238.833 241.656 232.251 248.62 232.612C245.993 231.566 243.207 229.492 239.804 229.005C239.804 229.005 238.905 229.095 238.041 229.005C241.797 235.389 234.514 232.954 234.514 238.021C241.197 236.705 239.028 248.606 248.62 245.234C248.462 247.181 246.469 247.975 245.094 248.84Z" fill="#917764" stroke="black"/>
<path d="M211.592 279.495C216.229 278.196 222.63 279.675 227.461 279.495C230.371 278.629 238.922 272.21 245.094 274.085C251.265 275.96 255.938 270.046 257.437 266.872C265.283 264.168 258.036 272.985 264.49 272.282C262.727 261.661 277.291 265.971 273.306 256.053C279.266 262.671 284.767 253.691 292.702 254.25C283.374 264.51 298.873 260.435 296.229 268.676C300.178 265.033 301.06 263.969 305.045 261.463C303.67 261.282 301.783 253.637 299.226 256.558C296.652 259.497 293.654 256.45 292.702 250.644C287.007 255.025 281.223 245.739 269.78 248.84C270.097 259.01 262.691 259.317 259.2 265.069C255.356 260.164 253.029 259.75 246.857 261.463C241.832 258.289 250.154 254.34 246.857 252.447C243.754 253.673 239.751 250.463 245.094 250.644C245.094 250.644 244.706 249.093 245.094 248.84C240.792 246.442 221.801 241.285 230.988 252.447C216.899 248.065 231.358 242.457 234.514 238.021C231.041 237.589 226.192 242.529 223.935 239.824C228.025 239.716 227.373 230.989 223.935 230.809C210.358 238.22 224.922 268.369 211.592 279.495Z" fill="#5D402F" stroke="black"/>
<path d="M255.673 236.218C259.606 239.861 254.122 240.708 262.727 238.021C265.46 241.736 262.832 255.079 260.963 254.25C257.278 255.314 254.51 255.981 255.673 250.644C252.588 251.888 248.726 251.473 245.094 250.644C239.751 250.463 243.754 253.673 246.857 252.447C250.154 254.34 241.832 258.289 246.857 261.463C253.029 259.75 255.356 260.164 259.2 265.069C262.691 259.317 270.097 259.01 269.78 248.84C281.223 245.739 287.007 255.025 292.702 250.644C293.654 256.45 296.652 259.497 299.226 256.558C301.783 253.637 303.67 261.282 305.045 261.463C307.478 259.93 309.859 262.743 310.335 256.053C310.405 255.152 310.335 254.25 310.335 254.25C310.546 249.327 302.576 249.147 299.755 250.644C299.35 245.216 303.934 240.708 308.571 243.431C310.264 242.06 306.861 236.074 306.808 236.218C298.785 241.664 290.357 236.939 282.122 232.612C273.888 228.284 262.215 237.246 255.673 236.218ZM273.306 241.628C270.608 255.693 260.223 240.221 273.306 241.628Z" fill="#7A604D" stroke="black"/>
<path d="M260.963 254.25C262.832 255.079 265.46 241.736 262.727 238.021C254.122 240.708 259.606 239.861 255.673 236.218C252.623 233.405 252.447 234.144 248.62 232.612C241.656 232.251 249.343 238.833 245.094 241.628C249.908 244.567 256.026 242.854 260.963 245.234C261.298 248.336 257.507 251.671 260.963 254.25Z" fill="#A7927F" stroke="black"/>
<path d="M317.388 236.218C315.801 234.595 311.922 238.923 314.373 240.96C316.841 243.016 318.816 237.679 317.388 236.218Z" fill="#967968" stroke="black"/>
<path d="M331.494 243.431C332.023 241.447 331.564 238.274 331.494 236.218C328.655 236.507 323.806 237.913 324.441 241.628C326.01 238.725 331.917 241.069 331.494 243.431Z" fill="#3C2A13" stroke="black"/>
<path d="M273.306 241.628C270.608 255.693 260.223 240.221 273.306 241.628Z" fill="#9A8168" stroke="black"/>
<path d="M310.335 254.25C310.335 254.25 310.405 255.152 310.335 256.053C314.919 253.421 319.909 248.931 324.441 247.037C319.416 248.534 314.425 250.59 310.335 254.25Z" fill="#AE9880" stroke="black"/>
<path d="M227.461 279.495C236.948 279.116 244.371 276.069 253.91 275.888C258.6 275.798 262.779 277.006 266.253 277.691C273.518 278.413 287.976 275.672 294.465 270.479C294.941 270.1 295.752 269.108 296.229 268.676C298.873 260.435 283.374 264.51 292.702 254.25C284.767 253.691 279.266 262.671 273.306 256.053C277.291 265.971 262.727 261.661 264.49 272.282C258.036 272.985 265.283 264.168 257.437 266.872C255.938 270.046 251.265 275.96 245.094 274.085C238.922 272.21 230.371 278.629 227.461 279.495Z" fill="#422E1E" stroke="black"/>
<path d="M294.465 270.479C287.976 275.672 273.518 278.413 266.253 277.691C262.533 277.313 256.414 276.033 253.91 275.888C244.371 276.069 236.948 279.116 227.461 279.495C222.63 279.675 216.229 278.196 211.592 279.495C206.267 280.973 204.027 286.365 204.539 290.314C204.645 291.197 204.539 292.117 204.539 292.117C222.506 292.117 247.88 299.33 264.49 292.117C255.973 292.117 245.112 293.614 238.041 290.314C257.56 288.132 274.823 288.078 292.702 281.298C293.584 281.334 295.347 281.298 296.229 281.298C301.483 274.608 310.758 273.382 315.624 266.872C308.977 270.641 300.055 270.028 294.465 270.479Z" fill="#B2AA81" stroke="black"/>
<path d="M135.771 288.511C133.426 288.511 131.064 288.511 128.718 288.511C129.3 289.845 131.187 291.522 132.245 292.117C139.88 296.481 155.167 294.101 163.984 293.92C165.306 293.614 167.016 292.279 169.273 292.117C174.898 290.512 181.563 286.689 188.669 288.511C180.982 283.876 193.889 285.049 195.722 281.298C190.08 280.703 187.982 278.593 188.669 274.085C184.244 277.313 172.871 282.993 176.327 275.888C162.943 283.065 149.578 288.168 135.771 288.511Z" fill="#424225" stroke="black"/>
<path d="M266.253 277.691C262.779 277.006 258.6 275.798 253.91 275.888C256.414 276.033 262.533 277.313 266.253 277.691Z" fill="#74684A" stroke="black"/>
<path d="M303.282 279.495C304.163 279.567 308.871 284.976 310.335 284.904C303.317 290.891 290.357 288.294 282.122 292.117C294.307 292.604 305.591 289.466 317.388 288.511C319.151 282.65 314.514 279.044 310.335 277.691C308.589 278.611 305.309 278.593 303.282 279.495Z" fill="#C8C8C8" stroke="black"/>
<path d="M195.722 281.298C193.889 285.049 180.982 283.876 188.669 288.511C181.563 286.689 174.898 290.512 169.273 292.117C171.601 291.955 173.999 292.117 176.327 292.117C183.803 292.099 189.957 290.332 197.486 290.314C191.843 288.745 198.173 286.347 195.722 284.904C196.78 280.739 201.241 281.244 204.539 281.298C201.964 281.388 199.637 280.09 195.722 281.298Z" fill="#646255" stroke="black"/>
<path d="M204.539 281.298C201.241 281.244 196.78 280.739 195.722 284.904C198.173 286.347 191.843 288.745 197.486 290.314C198.984 290.314 203.304 289.538 204.539 290.314C204.027 286.365 206.267 280.973 211.592 279.495C209.405 281.316 207.078 280.793 204.539 281.298Z" fill="#92886A" stroke="black"/>
<path d="M296.229 281.298C295.347 281.298 293.584 281.334 292.702 281.298C293.178 291.161 275.158 289.016 268.016 292.117C272.724 292.117 277.415 292.117 282.122 292.117C290.357 288.294 303.317 290.891 310.335 284.904C308.871 284.976 304.163 279.567 303.282 279.495C300.637 280.667 299.261 281.28 296.229 281.298Z" fill="#A2A19C" stroke="black"/>
<path d="M264.49 292.117C265.371 292.117 267.135 292.117 268.016 292.117C275.158 289.016 293.178 291.161 292.702 281.298C274.823 288.078 257.56 288.132 238.041 290.314C245.112 293.614 255.973 292.117 264.49 292.117Z" fill="#7F7D61" stroke="black"/>
<path d="M176.327 292.117C173.029 292.604 168.392 293.83 163.984 293.92C155.167 294.101 139.88 296.481 132.245 292.117C155.238 300.899 181.052 292.117 204.539 292.117C204.539 292.117 204.645 291.197 204.539 290.314C203.304 289.538 198.984 290.314 197.486 290.314C189.957 290.332 183.803 292.099 176.327 292.117Z" fill="#BEBFB7" stroke="black"/>
<path d="M163.984 293.92C168.392 293.83 173.029 292.604 176.327 292.117C173.999 292.117 171.601 291.955 169.273 292.117C167.016 292.279 165.306 293.614 163.984 293.92Z" fill="#87887F" stroke="black"/>
</g>
<defs>
<clipPath id="clip0_9_1287">
<rect width="432" height="339" fill="white"/>
</clipPath>
</defs>
</svg>
