<svg xmlns="http://www.w3.org/2000/svg" width="21.983" height="25.734" viewBox="0 0 21.983 25.734">
  <g id="medical-stethoscope-variant" transform="translate(-21.262 0)">
    <g id="Group_212" data-name="Group 212" transform="translate(21.262 0)">
      <path id="Path_2058" data-name="Path 2058" d="M24.617,13.469a1.633,1.633,0,0,0,.828,1.282,5.364,5.364,0,0,0,1.252.508,13.338,13.338,0,0,1-1.471,3.25,3.812,3.812,0,0,0-.024,3.966,6.875,6.875,0,0,0,5.94,3.26,5.181,5.181,0,0,0,4.25-2.2,9.044,9.044,0,0,0,.883-8.014c-.869-2.769.293-4.246,1.063-4.881a3.51,3.51,0,1,0-.979-1.725c-1.453,1.063-3.129,3.454-1.956,7.193a7.2,7.2,0,0,1-.593,6.265,3.239,3.239,0,0,1-2.668,1.4,4.934,4.934,0,0,1-4.224-2.249,1.88,1.88,0,0,1-.028-1.975A15.243,15.243,0,0,0,28.7,15.372a5.22,5.22,0,0,0,1.689-.565,1.629,1.629,0,0,0,.848-1.234c2.305-2.084,3.369-5.838,3.431-6.058a.98.98,0,0,0-.484-1.125c.318-2.819-.725-4.239-1.354-4.818a.708.708,0,0,0-.3-.716L31.376.1a.578.578,0,0,0-.848.224L29.977,1.39a.52.52,0,0,0,.327.767l1.308.385a.853.853,0,0,0,.917-.351,4.906,4.906,0,0,1,1.013,4.1.978.978,0,0,0-.763.7,12.8,12.8,0,0,1-2.569,4.854,1.628,1.628,0,0,0-1.359.075,1.858,1.858,0,0,1-.849.235h-.059a1.893,1.893,0,0,1-.9-.26,1.622,1.622,0,0,0-1.341-.109,12.9,12.9,0,0,1-2.514-4.8.981.981,0,0,0-.763-.7,4.9,4.9,0,0,1,1.013-4.1.853.853,0,0,0,.916.351l1.308-.385a.52.52,0,0,0,.327-.767L25.439.325A.578.578,0,0,0,24.592.1L23.434.858a.708.708,0,0,0-.3.716c-.629.579-1.673,2-1.354,4.818A.981.981,0,0,0,21.3,7.517,14.714,14.714,0,0,0,24.617,13.469Zm15.14-6.707a1.363,1.363,0,1,1-1.363,1.363A1.363,1.363,0,0,1,39.757,6.762Z" transform="translate(-21.262 0)" fill="#16a34a"/>
    </g>
  </g>
</svg>
