<svg width="21" height="21" viewBox="0 0 21 21" fill="none" xmlns="http://www.w3.org/2000/svg">
<path d="M0.289974 19.29L3.99997 15.61C2.55987 13.8144 1.86247 11.5353 2.05116 9.2413C2.23985 6.9473 3.3003 4.81278 5.01445 3.27664C6.7286 1.74051 8.96617 0.91951 11.2671 0.98247C13.5679 1.04543 15.7573 1.98756 17.3848 3.61514C19.0124 5.24272 19.9545 7.43204 20.0175 9.73292C20.0805 12.0338 19.2595 14.2714 17.7233 15.9855C16.1872 17.6997 14.0527 18.7601 11.7587 18.9488C9.46468 19.1375 7.18556 18.4401 5.38997 17L1.70997 20.68C1.61701 20.7737 1.50641 20.8481 1.38455 20.8989C1.26269 20.9497 1.13198 20.9758 0.999973 20.9758C0.867962 20.9758 0.737255 20.9497 0.615396 20.8989C0.493538 20.8481 0.382936 20.7737 0.289974 20.68C0.109734 20.4935 0.00898361 20.2443 0.00898361 19.985C0.00898361 19.7257 0.109734 19.4765 0.289974 19.29ZM11 17C12.3844 17 13.7378 16.5895 14.889 15.8203C16.0401 15.0511 16.9373 13.9579 17.4671 12.6788C17.9969 11.3997 18.1356 9.99224 17.8655 8.63437C17.5954 7.2765 16.9287 6.02922 15.9497 5.05025C14.9708 4.07128 13.7235 3.4046 12.3656 3.1345C11.0077 2.86441 9.60027 3.00303 8.32119 3.53284C7.04211 4.06266 5.94886 4.95986 5.17969 6.11101C4.41052 7.26215 3.99997 8.61553 3.99997 10C3.99997 11.8565 4.73747 13.637 6.05023 14.9497C7.36298 16.2625 9.14346 17 11 17Z" fill="black"/>
</svg>
