<svg xmlns="http://www.w3.org/2000/svg" width="174" height="97.482" viewBox="0 0 174 97.482">
  <g id="successful" transform="translate(-680 -342.475)">
    <g id="BG" transform="translate(680 358.633)">
      <path id="Path_9889" data-name="Path 9889" d="M842.722,413.475a5.639,5.639,0,1,1,5.639,5.639A5.639,5.639,0,0,1,842.722,413.475Zm-125.667,5.639a5.639,5.639,0,0,1,0-11.278H685.639a5.639,5.639,0,0,1,0-11.278h32.222a5.639,5.639,0,1,0,0-11.278H697.722a5.639,5.639,0,1,1,0-11.278h32.222a5.639,5.639,0,0,1,0-11.278h45.917a5.639,5.639,0,1,1,0,11.278h51.556a5.639,5.639,0,1,1,0,11.278h17.722a5.639,5.639,0,1,1,0,11.278H829.833a5.639,5.639,0,1,0,0,11.278h4.833a5.639,5.639,0,0,1,0,11.278Z" transform="translate(-680 -362.725)" fill="#e8f0fe" opacity="0.49"/>
    </g>
    <g id="Shape" transform="translate(731.206 349.667)">
      <path id="Path_9890" data-name="Path 9890" d="M809.989,419.577a31.244,31.244,0,0,1-4.7,3.721l6.036-5.1C810.919,418.652,810.468,419.116,809.989,419.577Zm3.622-4.006h0l-11.237,9.359a38.436,38.436,0,0,1-15.065,4.623,39.229,39.229,0,0,1-18.409-2.725,38.542,38.542,0,1,1,35.162-68.264A39.223,39.223,0,0,1,815.41,369.4,38.27,38.27,0,0,1,813.61,415.572Z" transform="translate(-743.806 -351.646)" fill="#fff"/>
      <path id="Path_9891" data-name="Path 9891" d="M783.474,430.483a40.4,40.4,0,0,1-15.2-2.967,39.413,39.413,0,0,1-13.516-9.14,39.92,39.92,0,0,1-6.222-8.348,39.416,39.416,0,0,1,15.442-53.668,39.681,39.681,0,0,1,50.168,59.6,49.222,49.222,0,0,1-11.529,9.6,39.2,39.2,0,0,1-15.46,4.745C785.936,430.426,784.7,430.483,783.474,430.483Zm-.246-77.076a37.513,37.513,0,0,0-14.186,72.255,38.363,38.363,0,0,0,17.933,2.655,37.2,37.2,0,0,0,14.586-4.456,60.214,60.214,0,0,0,6.137-4.367,45.968,45.968,0,0,0,4.951-4.869,37.454,37.454,0,0,0,1.693-44.9,37.848,37.848,0,0,0-31.115-16.314Zm30.142,61.925h0Z" transform="translate(-743.566 -351.403)" fill="#16a34a"/>
    </g>
    <g id="bling" transform="translate(799.424 342.475)">
      <g id="Line" transform="translate(8.056)">
        <path id="Path_9892" data-name="Path 9892" d="M839.257,349.322a1.007,1.007,0,0,1-1.007-1.007v-4.833a1.007,1.007,0,1,1,2.014,0v4.833A1.007,1.007,0,0,1,839.257,349.322Z" transform="translate(-838.25 -342.475)" fill="#16a34a"/>
      </g>
      <g id="Line-2" transform="translate(8.056 11.278)">
        <path id="Path_9893" data-name="Path 9893" d="M839.257,363.322a1.007,1.007,0,0,1-1.007-1.007v-4.833a1.007,1.007,0,1,1,2.014,0v4.833A1.007,1.007,0,0,1,839.257,363.322Z" transform="translate(-838.25 -356.475)" fill="#16a34a"/>
      </g>
      <g id="Line-3" transform="translate(0 8.056)">
        <path id="Path_9894" data-name="Path 9894" d="M834.09,354.489h-4.833a1.007,1.007,0,1,1,0-2.014h4.833a1.007,1.007,0,1,1,0,2.014Z" transform="translate(-828.25 -352.475)" fill="#16a34a"/>
      </g>
      <g id="Line-4" transform="translate(11.278 8.056)">
        <path id="Path_9895" data-name="Path 9895" d="M848.09,354.489h-4.833a1.007,1.007,0,0,1,0-2.014h4.833a1.007,1.007,0,0,1,0,2.014Z" transform="translate(-842.25 -352.475)" fill="#16a34a"/>
      </g>
    </g>
    <g id="bling-2" transform="translate(734.174 425.054)">
      <g id="Line-5" transform="translate(6.444)">
        <path id="Path_9896" data-name="Path 9896" d="M756.257,450.711a1.007,1.007,0,0,1-1.007-1.007v-3.222a1.007,1.007,0,1,1,2.014,0V449.7A1.007,1.007,0,0,1,756.257,450.711Z" transform="translate(-755.25 -445.475)" fill="#16a34a"/>
      </g>
      <g id="Line-6" transform="translate(6.444 9.667)">
        <path id="Path_9897" data-name="Path 9897" d="M756.257,462.711a1.007,1.007,0,0,1-1.007-1.007v-3.222a1.007,1.007,0,1,1,2.014,0V461.7A1.007,1.007,0,0,1,756.257,462.711Z" transform="translate(-755.25 -457.475)" fill="#16a34a"/>
      </g>
      <g id="Line-7" transform="translate(0 6.444)">
        <path id="Path_9898" data-name="Path 9898" d="M751.479,455.489h-3.222a1.007,1.007,0,0,1,0-2.014h3.222a1.007,1.007,0,0,1,0,2.014Z" transform="translate(-747.25 -453.475)" fill="#16a34a"/>
      </g>
      <g id="Line-8" transform="translate(9.667 6.444)">
        <path id="Path_9899" data-name="Path 9899" d="M763.479,455.489h-3.222a1.007,1.007,0,0,1,0-2.014h3.222a1.007,1.007,0,0,1,0,2.014Z" transform="translate(-759.25 -453.475)" fill="#16a34a"/>
      </g>
    </g>
    <g id="Shape-2" transform="translate(744.113 356.723)">
      <path id="Path_9900" data-name="Path 9900" d="M774.8,361.413a33.6,33.6,0,0,0-11.561,7.325,34.071,34.071,0,0,0-2.4,2.575" transform="translate(-759.831 -360.406)" fill="#14d199"/>
      <path id="Path_9901" data-name="Path 9901" d="M760.595,372.076a1.007,1.007,0,0,1-.77-1.655,35.209,35.209,0,0,1,2.474-2.651,34.4,34.4,0,0,1,11.906-7.542,1.007,1.007,0,1,1,.709,1.885,32.412,32.412,0,0,0-11.215,7.1,33.143,33.143,0,0,0-2.333,2.5A1,1,0,0,1,760.595,372.076Z" transform="translate(-759.588 -360.163)" fill="#16a34a"/>
    </g>
    <g id="Path_7" data-name="Path 7" transform="translate(749.882 376.117)">
      <path id="Path_9902" data-name="Path 9902" d="M772.817,397.3a2.905,2.905,0,0,0-4.065.181,2.811,2.811,0,0,0,.143,3.971l.04.036,13.541,12.2a4.068,4.068,0,0,0,5.69-.254c.063-.068.063-.068.124-.139l19.323-22.917a2.81,2.81,0,0,0-.33-3.96l-.043-.035a2.9,2.9,0,0,0-4.051.367l-18.167,21.546Z" transform="translate(-766.993 -384.725)" fill="#e8f0fe"/>
      <path id="Path_9903" data-name="Path 9903" d="M784.942,415.479a5.048,5.048,0,0,1-3.38-1.285L768.019,402a3.832,3.832,0,0,1-1.267-2.7,3.793,3.793,0,0,1,1.02-2.737,3.932,3.932,0,0,1,5.474-.245v0l11.433,10.3,17.5-20.751a3.932,3.932,0,0,1,5.458-.5,3.837,3.837,0,0,1,.5,5.426L788.667,413.87A5.081,5.081,0,0,1,784.942,415.479Zm-14.306-18.152a1.9,1.9,0,0,0-1.39.6,1.805,1.805,0,0,0,.093,2.547l13.57,12.223a3.077,3.077,0,0,0,4.28-.192l.093-.106,19.32-22.914a1.805,1.805,0,0,0-.21-2.542,1.916,1.916,0,0,0-2.677.216L784.878,409.5,771.9,397.807A1.892,1.892,0,0,0,770.636,397.327Z" transform="translate(-766.75 -384.484)" fill="#16a34a"/>
    </g>
  </g>
</svg>
