<svg xmlns="http://www.w3.org/2000/svg" width="63.181" height="100" viewBox="0 0 63.181 100">
  <g id="Group_3517" data-name="Group 3517" transform="translate(-5567 -2397)">
    <path id="Path_11286" data-name="Path 11286" d="M67.463,129.923C54.3,148.789,52.4,164.73,52.4,164.73c-.292,1.316-1.462,1.316-1.755,0,0,0-2.486-15.941-15.356-34.808-10.676-14.918-15.5-20.769-15.5-32.907a31.18,31.18,0,0,1,31.444-31.3,31.523,31.523,0,0,1,31.737,31.3C82.966,109.154,73.605,121,67.463,129.923Z" transform="translate(5547.215 2331.283)" fill="#10bdff"/>
    <path id="noun_Hospital_2384" d="M13,0a2.162,2.162,0,0,0-2.167,2.167v8.667H2.167A2.162,2.162,0,0,0,0,13v6.5a2.162,2.162,0,0,0,2.167,2.166h8.667v8.667A2.162,2.162,0,0,0,13,32.5h6.5a2.162,2.162,0,0,0,2.166-2.167V21.666h8.667A2.162,2.162,0,0,0,32.5,19.5V13a2.162,2.162,0,0,0-2.166-2.167H21.666V2.167A2.162,2.162,0,0,0,19.5,0Z" transform="translate(5582 2414.5)" fill="#fff"/>
  </g>
</svg>
