<svg xmlns="http://www.w3.org/2000/svg" width="63.181" height="100" viewBox="0 0 63.181 100">
  <g id="Group_3512" data-name="Group 3512" transform="translate(-5476 -2397)">
    <path id="Path_11283" data-name="Path 11283" d="M67.463,129.923C54.3,148.789,52.4,164.73,52.4,164.73c-.292,1.316-1.462,1.316-1.755,0,0,0-2.486-15.941-15.356-34.808-10.676-14.918-15.5-20.769-15.5-32.907a31.18,31.18,0,0,1,31.444-31.3,31.523,31.523,0,0,1,31.737,31.3C82.966,109.154,73.605,121,67.463,129.923Z" transform="translate(5456.215 2331.283)" fill="#13b5c7"/>
    <g id="Group_3511" data-name="Group 3511" transform="translate(5516.526 2401.188) rotate(45)">
      <path id="Path_11285" data-name="Path 11285" d="M4,26.946H22.618V37.031A9.309,9.309,0,0,1,4,37.031ZM13.309,6A9.32,9.32,0,0,0,4,15.309V25.394H22.618V15.309A9.32,9.32,0,0,0,13.309,6Z" transform="translate(0)" fill="#fff"/>
    </g>
  </g>
</svg>
