<svg xmlns="http://www.w3.org/2000/svg" width="63.181" height="100" viewBox="0 0 63.181 100">
  <g id="Group_3510" data-name="Group 3510" transform="translate(-5567 -2397)">
    <path id="Path_11286" data-name="Path 11286" d="M67.463,129.923C54.3,148.789,52.4,164.73,52.4,164.73c-.292,1.316-1.462,1.316-1.755,0,0,0-2.486-15.941-15.356-34.808-10.676-14.918-15.5-20.769-15.5-32.907a31.18,31.18,0,0,1,31.444-31.3,31.523,31.523,0,0,1,31.737,31.3C82.966,109.154,73.605,121,67.463,129.923Z" transform="translate(5547.215 2331.283)" fill="#f88181"/>
    <path id="Path_11287" data-name="Path 11287" d="M110.871,104.618A4.623,4.623,0,0,1,106.253,100V94.037H96.508V100a4.618,4.618,0,0,1-9.236,0V78.838a4.618,4.618,0,0,1,9.236,0V84.8h9.745V78.838a4.618,4.618,0,0,1,9.235,0V100A4.623,4.623,0,0,1,110.871,104.618Z" transform="translate(5496.727 2340.598)" fill="#fff"/>
  </g>
</svg>
