<svg xmlns="http://www.w3.org/2000/svg" width="63.181" height="100" viewBox="0 0 63.181 100">
  <g id="Group_3516" data-name="Group 3516" transform="translate(-5476 -2397)">
    <path id="Path_11283" data-name="Path 11283" d="M67.463,129.923C54.3,148.789,52.4,164.73,52.4,164.73c-.292,1.316-1.462,1.316-1.755,0,0,0-2.486-15.941-15.356-34.808-10.676-14.918-15.5-20.769-15.5-32.907a31.18,31.18,0,0,1,31.444-31.3,31.523,31.523,0,0,1,31.737,31.3C82.966,109.154,73.605,121,67.463,129.923Z" transform="translate(5456.215 2331.283)" fill="#ff9e67"/>
    <path id="Path_11290" data-name="Path 11290" d="M189.33,123.289V113.248a1.674,1.674,0,0,0,0-3.348h-8.056a1.674,1.674,0,0,0,0,3.348v10.041l-9.2,13.386a4.183,4.183,0,0,0,3.347,6.693h19.771a4.183,4.183,0,0,0,3.346-6.693Z" transform="translate(5322.376 2301.933)" fill="#fff"/>
  </g>
</svg>
